<svg id="svg" version="1.1" xmlns="http://www.w3.org/2000/svg" xmlns:xlink="http://www.w3.org/1999/xlink" width="400" height="395.24617996604417" viewBox="0, 0, 400,395.24617996604417"><g id="svgg"><path id="path0" d="M0.000 197.628 L 0.000 395.257 22.233 395.238 C 42.822 395.221,44.335 395.174,42.688 394.607 C 41.709 394.270,40.740 393.834,40.534 393.638 C 40.327 393.441,39.912 393.281,39.612 393.281 C 39.311 393.281,37.701 392.598,36.034 391.764 C 15.441 381.461,2.951 362.633,0.786 338.627 C 0.108 331.108,0.309 61.080,0.996 55.731 C 4.538 28.181,20.000 9.684,47.036 0.656 C 48.658 0.115,46.673 0.060,24.407 0.031 L 0.000 0.000 0.000 197.628 M356.290 1.640 C 372.523 7.114,385.086 18.089,392.692 33.438 C 394.102 36.286,395.257 38.899,395.257 39.245 C 395.257 39.591,395.414 39.971,395.605 40.089 C 395.796 40.208,396.049 40.707,396.165 41.200 C 396.282 41.692,396.666 43.073,397.018 44.269 C 397.763 46.796,398.197 48.957,398.999 54.150 C 399.881 59.853,399.899 337.025,399.018 342.916 C 398.178 348.536,396.419 354.829,394.498 359.091 C 393.680 360.905,390.836 366.660,390.397 367.391 C 389.702 368.546,387.219 372.101,386.947 372.332 C 386.818 372.441,386.410 372.974,386.039 373.518 C 383.620 377.062,372.437 387.008,368.379 389.223 C 365.732 390.668,363.033 392.013,361.462 392.672 C 357.533 394.318,356.392 394.781,355.731 394.999 C 355.405 395.107,365.232 395.209,377.569 395.226 L 400.000 395.257 400.000 197.628 L 400.000 0.000 375.791 0.026 L 351.581 0.052 356.290 1.640 M121.296 97.377 C 114.339 99.436,108.065 104.815,105.161 111.210 C 101.894 118.403,102.793 131.775,106.831 136.052 C 107.096 136.332,107.911 137.273,108.643 138.143 C 110.057 139.823,138.955 169.282,154.644 185.037 C 159.807 190.222,164.032 194.628,164.032 194.829 C 164.032 195.030,161.414 197.743,158.215 200.858 C 155.016 203.973,147.124 211.769,140.676 218.182 C 134.229 224.595,124.838 233.901,119.808 238.861 C 106.750 251.738,104.689 254.539,103.339 261.236 C 100.864 273.506,105.393 284.894,115.350 291.439 C 117.767 293.028,118.919 293.539,122.953 294.812 C 125.549 295.631,131.571 295.369,134.864 294.294 C 141.018 292.285,140.942 292.351,167.416 266.069 C 196.253 237.442,199.787 233.992,200.274 233.992 C 200.498 233.992,212.234 245.509,226.355 259.585 C 255.455 288.595,256.093 289.206,259.711 291.547 C 270.717 298.666,284.178 295.364,293.131 283.347 C 298.613 275.989,298.947 261.992,293.832 253.882 C 292.863 252.345,283.120 242.298,264.471 223.605 C 249.121 208.219,236.561 195.384,236.561 195.083 C 236.561 194.783,243.138 187.840,251.177 179.656 C 259.216 171.471,265.891 164.617,266.010 164.424 C 266.129 164.232,272.286 157.971,279.693 150.511 C 294.682 135.415,295.248 134.660,296.611 127.981 C 301.678 103.154,274.632 86.668,254.953 102.588 C 253.533 103.737,240.658 116.342,226.342 130.599 C 212.026 144.857,200.232 156.522,200.133 156.522 C 200.035 156.522,196.334 152.920,191.910 148.518 C 142.741 99.594,144.603 101.371,140.119 99.110 C 134.520 96.287,127.240 95.617,121.296 97.377 " stroke="none" fill="#f5f5f6" fill-rule="evenodd"></path><path id="path1" d="M49.407 0.372 C 49.081 0.551,46.769 1.356,44.269 2.160 C 32.758 5.864,22.779 12.717,15.216 22.112 C 13.354 24.424,8.300 32.079,8.300 32.587 C 8.300 32.696,7.701 34.016,6.969 35.520 C 4.406 40.787,2.537 47.686,1.206 56.796 C 0.480 61.762,0.640 334.705,1.372 340.144 C 2.236 346.559,3.592 352.243,5.565 357.708 C 5.761 358.251,6.037 359.024,6.179 359.425 C 11.032 373.186,25.522 387.362,40.578 393.076 C 42.716 393.887,44.775 394.710,45.153 394.904 C 46.098 395.390,353.553 395.372,354.452 394.886 C 354.829 394.682,356.472 394.029,358.103 393.435 C 379.661 385.575,395.762 365.114,398.646 341.912 C 399.528 334.820,399.487 60.095,398.603 54.185 C 397.741 48.423,396.199 42.235,394.900 39.328 C 394.706 38.893,394.244 37.826,393.873 36.957 C 386.399 19.411,371.689 6.296,353.953 1.364 C 352.648 1.001,351.272 0.546,350.895 0.352 C 350.024 -0.095,50.221 -0.075,49.407 0.372 M343.083 13.236 C 364.341 16.424,379.332 30.954,383.868 52.767 L 384.772 57.115 384.777 198.221 C 384.783 354.242,384.970 342.228,382.421 349.993 C 376.839 366.994,361.125 380.257,343.281 383.026 C 340.813 383.409,311.239 383.526,208.696 383.557 C 69.650 383.599,56.290 383.503,52.372 382.434 C 32.696 377.065,20.228 363.856,16.168 344.081 C 15.241 339.569,14.880 58.594,15.795 54.545 C 16.016 53.567,16.480 51.522,16.825 50.000 C 21.004 31.587,37.483 16.181,56.119 13.265 C 61.318 12.451,337.665 12.424,343.083 13.236 " stroke="none" fill="#182233" fill-rule="evenodd"></path><path id="path2" d="M58.498 13.832 C 53.869 14.220,46.750 16.345,43.874 18.197 C 43.547 18.407,42.836 18.761,42.292 18.984 C 40.599 19.678,38.931 20.617,37.321 21.783 C 36.468 22.400,35.148 23.334,34.387 23.857 C 31.822 25.620,26.486 31.490,24.089 35.185 C 20.119 41.304,17.631 48.166,16.567 55.929 C 16.028 59.855,16.045 336.436,16.583 340.119 C 19.163 357.749,25.938 368.093,40.564 376.732 C 42.356 377.790,44.056 378.662,44.342 378.670 C 44.628 378.677,45.573 379.027,46.443 379.447 C 47.312 379.867,48.234 380.216,48.492 380.224 C 48.750 380.231,49.461 380.446,50.073 380.702 C 54.223 382.434,46.941 382.345,197.628 382.500 C 326.996 382.634,340.042 382.590,343.281 382.010 C 347.539 381.247,353.036 379.625,354.715 378.637 C 355.383 378.244,357.081 377.351,358.488 376.653 C 368.473 371.703,376.412 362.733,381.028 351.186 C 383.874 344.067,383.755 349.806,383.981 208.300 C 384.232 51.050,384.300 54.331,380.574 44.032 C 378.585 38.538,370.433 26.087,368.823 26.087 C 368.679 26.087,367.693 25.331,366.632 24.407 C 364.511 22.562,357.475 18.182,356.630 18.182 C 356.338 18.182,355.705 17.926,355.223 17.613 C 353.836 16.711,349.115 15.136,345.455 14.354 C 341.941 13.604,67.187 13.104,58.498 13.832 M133.246 96.077 C 136.064 96.638,136.831 96.881,139.328 97.999 C 139.763 98.193,140.697 98.589,141.403 98.878 C 142.110 99.166,142.688 99.537,142.688 99.701 C 142.688 99.866,142.855 100.000,143.059 100.000 C 143.263 100.000,144.005 100.525,144.707 101.167 C 145.410 101.809,146.177 102.225,146.412 102.092 C 146.646 101.959,146.704 101.997,146.541 102.177 C 146.222 102.529,147.319 103.953,147.908 103.953 C 148.226 103.953,153.388 109.044,154.973 110.920 C 155.317 111.327,156.784 112.760,158.234 114.104 C 159.683 115.448,160.870 116.767,160.870 117.035 C 160.870 117.304,160.962 117.430,161.076 117.317 C 161.190 117.203,164.283 120.108,167.950 123.772 C 171.617 127.437,174.844 130.435,175.121 130.435 C 175.399 130.435,175.516 130.545,175.381 130.679 C 175.047 131.014,179.883 135.968,180.544 135.968 C 180.836 135.968,180.963 136.148,180.828 136.367 C 180.692 136.586,180.993 136.931,181.496 137.132 C 181.999 137.334,182.270 137.511,182.097 137.524 C 181.924 137.538,182.231 137.998,182.779 138.547 C 183.328 139.095,183.905 139.526,184.062 139.505 C 184.220 139.484,184.491 139.853,184.665 140.324 C 184.840 140.796,185.293 141.267,185.673 141.372 C 186.053 141.477,186.857 142.269,187.460 143.131 C 188.062 143.994,188.729 144.592,188.942 144.461 C 189.154 144.330,189.328 144.407,189.328 144.632 C 189.328 145.058,192.169 147.992,195.378 150.880 C 196.398 151.798,197.233 152.700,197.233 152.883 C 197.233 153.588,199.073 154.749,200.395 154.880 C 201.156 154.955,201.679 154.915,201.558 154.790 C 201.337 154.565,208.053 147.431,208.485 147.431 C 208.837 147.431,212.648 143.350,212.648 142.973 C 212.648 142.791,212.803 142.737,212.993 142.854 C 213.182 142.971,214.140 142.137,215.122 141.000 C 217.608 138.122,231.722 124.033,233.410 122.746 C 234.224 122.125,234.687 121.494,234.529 121.219 C 234.381 120.962,234.409 120.886,234.591 121.051 C 235.002 121.424,236.815 119.778,236.520 119.300 C 236.402 119.109,236.540 119.002,236.828 119.061 C 237.116 119.121,237.339 118.992,237.324 118.775 C 237.309 118.557,237.798 117.902,238.411 117.318 C 239.024 116.734,239.526 116.350,239.526 116.466 C 239.526 116.581,241.171 115.032,243.182 113.022 C 245.193 111.013,246.806 109.256,246.768 109.118 C 246.729 108.980,247.141 108.517,247.682 108.090 C 248.223 107.662,250.300 105.832,252.298 104.022 C 254.295 102.213,256.996 100.089,258.300 99.303 C 259.605 98.517,260.796 97.691,260.947 97.466 C 261.098 97.242,261.343 97.180,261.491 97.328 C 261.639 97.476,262.316 97.368,262.995 97.089 C 266.945 95.461,273.913 95.265,278.854 96.643 C 280.158 97.006,281.403 97.350,281.621 97.407 C 282.634 97.669,283.785 98.304,286.038 99.841 C 287.381 100.758,288.569 101.418,288.678 101.309 C 288.787 101.200,289.717 102.195,290.746 103.520 C 291.775 104.845,292.766 105.929,292.949 105.929 C 293.131 105.929,293.281 106.271,293.281 106.689 C 293.281 107.107,293.741 107.996,294.304 108.665 C 294.867 109.334,295.178 109.887,294.996 109.894 C 294.813 109.901,294.931 110.127,295.257 110.396 C 296.122 111.110,296.901 112.621,296.630 113.060 C 296.501 113.268,296.528 113.653,296.690 113.915 C 296.852 114.177,297.043 114.924,297.114 115.575 C 297.185 116.226,297.442 116.881,297.685 117.031 C 298.408 117.478,297.949 130.726,297.159 132.217 C 296.815 132.867,296.128 134.247,295.632 135.282 C 295.137 136.318,294.494 137.362,294.204 137.603 C 293.913 137.844,293.670 138.242,293.663 138.487 C 293.648 138.980,292.301 140.711,291.933 140.711 C 291.519 140.711,290.177 142.220,290.396 142.438 C 290.604 142.647,289.304 144.155,289.064 143.983 C 288.759 143.765,287.747 144.400,287.747 144.810 C 287.747 145.062,287.353 145.443,286.871 145.657 C 286.389 145.872,285.899 146.407,285.784 146.846 C 285.449 148.114,284.293 149.518,283.823 149.227 C 283.587 149.081,283.275 149.284,283.129 149.679 C 282.832 150.484,281.161 152.174,280.660 152.174 C 280.481 152.174,280.090 152.475,279.791 152.843 C 279.347 153.390,279.346 153.453,279.783 153.190 C 280.215 152.930,280.231 153.028,279.867 153.707 C 279.621 154.168,279.109 154.545,278.731 154.545 C 277.968 154.545,274.711 157.808,274.691 158.593 C 274.671 159.374,273.772 160.366,272.915 160.550 C 272.486 160.643,272.181 160.936,272.237 161.200 C 272.293 161.465,272.051 161.793,271.700 161.928 C 270.532 162.376,269.170 163.912,269.170 164.781 C 269.170 165.671,267.818 166.462,266.897 166.111 C 266.625 166.008,266.403 166.178,266.403 166.490 C 266.403 166.801,265.791 167.566,265.044 168.190 C 264.296 168.813,263.780 169.478,263.897 169.667 C 264.214 170.180,262.832 171.542,261.994 171.542 C 261.569 171.542,261.258 171.830,261.250 172.233 C 261.241 172.614,260.663 173.290,259.965 173.737 C 259.244 174.198,258.721 174.851,258.755 175.248 C 258.790 175.652,258.287 176.266,257.570 176.697 C 255.947 177.673,253.574 179.954,252.754 181.326 C 252.397 181.923,251.418 182.733,250.578 183.126 C 249.738 183.519,248.941 184.186,248.807 184.608 C 248.673 185.030,248.397 185.375,248.195 185.375 C 247.992 185.375,247.826 185.648,247.826 185.981 C 247.826 186.314,247.541 186.696,247.192 186.830 C 246.842 186.964,245.737 187.847,244.736 188.793 C 243.734 189.740,242.808 190.514,242.677 190.514 C 242.547 190.514,242.194 191.142,241.892 191.909 C 241.528 192.839,241.010 193.389,240.340 193.557 C 238.168 194.102,238.066 194.792,239.909 196.476 C 240.840 197.327,241.757 198.024,241.947 198.024 C 242.137 198.024,242.248 198.194,242.194 198.403 C 242.053 198.944,245.050 201.976,245.727 201.976 C 246.037 201.976,246.174 202.167,246.029 202.401 C 245.885 202.634,246.154 203.238,246.628 203.741 C 247.101 204.245,247.527 204.919,247.573 205.239 C 247.695 206.064,250.260 208.696,250.943 208.696 C 251.258 208.696,251.392 208.819,251.242 208.969 C 250.889 209.321,254.572 213.074,255.007 212.805 C 255.188 212.693,255.336 212.840,255.336 213.132 C 255.336 213.424,256.314 214.629,257.510 215.810 C 258.706 216.991,259.684 217.785,259.685 217.575 C 259.686 217.365,260.045 217.781,260.482 218.498 C 260.919 219.215,261.408 219.723,261.567 219.626 C 261.727 219.530,262.087 219.699,262.367 220.002 C 262.648 220.305,262.750 220.553,262.595 220.553 C 262.440 220.553,262.725 220.993,263.230 221.529 C 263.734 222.066,264.343 222.393,264.583 222.256 C 264.823 222.120,264.900 222.141,264.754 222.304 C 264.428 222.668,266.746 225.142,267.271 224.990 C 267.478 224.930,267.556 225.030,267.444 225.212 C 267.184 225.632,280.681 239.130,281.360 239.130 C 281.638 239.130,281.771 239.282,281.656 239.468 C 281.541 239.654,281.886 240.219,282.423 240.723 C 282.960 241.227,283.406 241.475,283.413 241.274 C 283.421 241.073,283.643 241.293,283.907 241.761 C 284.171 242.230,286.477 244.768,289.032 247.401 C 291.586 250.034,293.676 252.373,293.676 252.599 C 293.676 252.826,293.854 252.901,294.071 252.767 C 294.289 252.632,294.466 252.889,294.466 253.336 C 294.466 253.784,294.655 254.150,294.885 254.150 C 295.115 254.150,295.193 254.329,295.058 254.548 C 294.922 254.767,295.093 255.054,295.436 255.186 C 295.780 255.318,296.023 255.628,295.977 255.875 C 295.845 256.574,296.454 258.103,296.865 258.103 C 297.067 258.103,297.233 258.725,297.233 259.486 C 297.233 260.247,297.425 260.870,297.659 260.870 C 297.895 260.870,298.046 261.445,297.997 262.154 C 297.949 262.861,297.969 265.395,298.042 267.787 L 298.175 272.134 298.419 268.379 L 298.663 264.625 298.740 268.182 C 298.820 271.901,298.171 275.621,296.773 279.447 C 296.336 280.642,295.885 282.021,295.770 282.510 C 295.654 282.999,295.403 283.399,295.211 283.399 C 295.019 283.399,294.862 283.666,294.862 283.992 C 294.862 284.318,294.684 284.585,294.466 284.585 C 294.249 284.585,294.071 284.782,294.071 285.022 C 294.071 285.263,293.626 285.809,293.083 286.237 C 292.540 286.664,292.095 287.273,292.095 287.590 C 292.095 287.908,291.818 288.273,291.479 288.403 C 291.141 288.533,290.957 288.883,291.072 289.181 C 291.204 289.527,290.998 289.723,290.501 289.723 C 290.073 289.723,289.723 289.912,289.723 290.142 C 289.723 290.372,289.564 290.462,289.369 290.342 C 289.041 290.139,288.758 290.542,288.554 291.502 C 288.372 292.358,287.697 292.766,286.756 292.586 C 286.131 292.467,285.771 292.579,285.771 292.891 C 285.771 293.781,283.042 296.037,282.302 295.759 C 281.703 295.535,281.687 295.586,282.171 296.181 C 282.939 297.125,282.687 297.220,280.489 296.809 C 278.347 296.409,276.825 296.646,275.794 297.542 C 274.863 298.351,267.764 297.995,267.061 297.104 C 266.808 296.783,265.978 296.436,265.217 296.333 C 263.269 296.070,261.158 295.181,260.551 294.368 C 260.267 293.987,259.866 293.676,259.661 293.676 C 259.456 293.676,258.916 293.304,258.461 292.849 C 257.971 292.358,257.327 292.102,256.880 292.219 C 256.465 292.328,256.218 292.267,256.330 292.085 C 256.443 291.903,256.209 291.519,255.811 291.233 C 255.412 290.946,254.972 290.405,254.833 290.032 C 254.693 289.658,254.133 289.240,253.588 289.103 C 253.043 288.966,252.490 288.516,252.359 288.103 C 252.228 287.690,251.905 287.352,251.642 287.352 C 251.378 287.352,250.906 286.996,250.593 286.561 C 250.280 286.126,249.709 285.771,249.325 285.771 C 248.694 285.771,246.640 283.107,246.640 282.288 C 246.640 282.103,246.192 281.712,245.645 281.419 C 244.921 281.032,244.786 280.799,245.151 280.568 C 245.554 280.311,245.553 280.248,245.145 280.243 C 244.866 280.240,244.072 279.659,243.381 278.953 C 242.690 278.246,241.896 277.720,241.616 277.784 C 241.329 277.850,241.107 277.548,241.107 277.092 C 241.107 276.648,240.861 276.285,240.560 276.285 C 240.259 276.285,239.920 275.929,239.806 275.494 C 239.656 274.918,239.267 274.704,238.377 274.704 C 237.704 274.704,237.154 274.533,237.154 274.324 C 237.154 274.115,236.780 273.595,236.322 273.168 C 235.864 272.742,235.600 272.213,235.735 271.994 C 236.012 271.546,234.331 269.565,233.673 269.565 C 233.438 269.565,232.926 269.023,232.534 268.360 C 231.836 267.178,229.644 265.717,229.644 266.433 C 229.644 266.634,229.466 266.798,229.248 266.798 C 229.029 266.798,228.896 266.227,228.951 265.528 C 229.038 264.425,228.909 264.229,227.971 264.045 C 226.668 263.790,225.171 262.578,225.501 262.045 C 225.631 261.833,225.550 261.660,225.320 261.660 C 225.090 261.660,224.901 261.388,224.901 261.055 C 224.901 260.722,224.634 260.347,224.308 260.222 C 223.982 260.097,223.715 259.822,223.715 259.611 C 223.715 258.879,220.537 256.158,219.947 256.384 C 219.549 256.537,219.368 256.341,219.368 255.761 C 219.368 255.296,219.101 254.814,218.775 254.688 C 218.449 254.563,218.182 254.213,218.182 253.910 C 218.182 253.606,217.783 253.354,217.292 253.347 C 216.310 253.333,214.229 251.698,214.229 250.939 C 214.229 249.274,211.922 248.536,210.291 249.679 C 209.615 250.152,209.293 250.210,209.182 249.877 C 209.095 249.618,208.773 249.407,208.465 249.407 C 208.157 249.407,207.905 249.240,207.905 249.036 C 207.905 248.832,208.305 248.687,208.794 248.713 C 211.535 248.861,211.841 248.705,211.226 247.472 C 210.532 246.080,209.654 245.304,209.136 245.625 C 208.924 245.756,208.631 245.670,208.485 245.434 C 208.340 245.198,207.952 245.108,207.624 245.234 C 207.190 245.401,207.096 245.283,207.281 244.802 C 207.539 244.129,205.783 241.897,204.997 241.897 C 204.393 241.897,203.162 240.652,203.162 240.041 C 203.162 239.739,202.806 239.111,202.372 238.644 C 201.937 238.177,201.581 237.583,201.581 237.323 C 201.581 235.884,199.151 236.657,198.642 238.259 C 198.462 238.825,197.940 239.246,197.243 239.385 C 196.424 239.549,196.072 239.897,195.911 240.701 C 195.780 241.358,195.369 241.879,194.882 242.006 C 194.436 242.123,194.071 242.490,194.071 242.822 C 194.071 243.154,193.703 243.542,193.252 243.685 C 192.760 243.841,192.518 244.167,192.647 244.502 C 192.793 244.882,192.571 245.059,191.952 245.059 C 190.730 245.059,189.777 246.741,190.503 247.615 C 190.927 248.126,190.879 248.221,190.200 248.221 C 189.757 248.221,189.324 248.012,189.239 247.756 C 189.151 247.492,188.869 247.424,188.586 247.598 C 188.312 247.768,188.184 248.155,188.301 248.459 C 188.417 248.763,188.340 249.012,188.130 249.012 C 187.919 249.012,187.747 249.283,187.747 249.615 C 187.747 249.968,187.257 250.315,186.561 250.455 C 185.655 250.636,185.375 250.907,185.375 251.604 C 185.375 252.206,185.074 252.607,184.486 252.786 C 183.997 252.934,183.135 253.524,182.571 254.097 C 182.007 254.670,180.992 255.635,180.317 256.241 C 179.508 256.968,179.173 257.565,179.336 257.990 C 179.514 258.454,179.416 258.571,178.988 258.407 C 178.617 258.264,177.865 258.737,176.998 259.658 C 176.231 260.472,175.312 261.250,174.956 261.387 C 174.600 261.523,174.308 262.002,174.308 262.451 C 174.308 262.899,173.997 263.376,173.617 263.510 C 172.617 263.863,171.146 265.269,171.146 265.872 C 171.146 266.156,170.738 266.491,170.239 266.616 C 168.844 266.966,168.169 268.283,168.946 269.141 C 169.781 270.064,169.294 270.455,168.201 269.739 C 167.226 269.100,165.848 270.052,166.090 271.196 C 166.166 271.551,165.761 271.782,164.922 271.863 C 163.943 271.957,163.582 272.215,163.397 272.950 C 163.264 273.480,163.020 273.913,162.854 273.913 C 162.688 273.913,161.595 274.924,160.426 276.160 C 155.395 281.477,153.781 283.004,153.194 283.004 C 152.765 283.004,152.569 283.371,152.569 284.176 C 152.569 285.343,151.379 286.454,150.626 285.989 C 150.436 285.871,150.178 286.041,150.054 286.366 C 149.929 286.691,149.578 286.957,149.273 286.957 C 148.968 286.957,148.295 287.578,147.778 288.337 C 147.261 289.097,146.635 289.719,146.386 289.721 C 146.138 289.722,145.832 289.990,145.707 290.316 C 145.582 290.642,145.207 290.909,144.874 290.909 C 144.541 290.909,144.269 291.176,144.269 291.502 C 144.269 291.828,144.034 292.095,143.747 292.095 C 143.460 292.095,142.839 292.540,142.366 293.083 C 141.894 293.626,141.258 294.071,140.954 294.071 C 140.650 294.071,140.298 294.338,140.173 294.664 C 140.035 295.025,140.173 295.257,140.526 295.257 C 142.592 295.257,140.464 296.004,137.253 296.406 C 130.890 297.202,129.574 297.321,126.581 297.377 C 125.005 297.407,123.715 297.564,123.715 297.727 C 123.715 297.890,123.538 298.024,123.320 298.024 C 123.103 298.024,122.925 297.771,122.925 297.461 C 122.925 296.735,120.235 295.812,119.694 296.353 C 119.105 296.943,117.082 296.043,116.833 295.080 C 116.642 294.343,115.762 293.646,113.162 292.172 C 112.662 291.889,112.253 291.488,112.253 291.283 C 112.253 291.077,112.067 290.909,111.839 290.909 C 111.611 290.909,111.013 290.464,110.509 289.921 C 110.005 289.377,109.395 288.933,109.152 288.933 C 108.909 288.933,108.601 288.495,108.466 287.959 C 108.332 287.423,107.884 286.878,107.471 286.746 C 107.057 286.615,106.719 286.253,106.719 285.942 C 106.719 285.630,106.556 285.375,106.356 285.375 C 106.155 285.375,105.877 284.854,105.737 284.217 C 105.597 283.580,105.230 282.849,104.922 282.593 C 104.614 282.337,104.196 281.569,103.995 280.886 C 103.793 280.203,103.167 278.358,102.604 276.786 C 101.497 273.694,101.290 270.839,102.075 269.508 C 102.470 268.839,102.470 268.636,102.075 268.492 C 101.524 268.293,101.452 266.572,101.838 262.877 C 102.013 261.199,102.211 260.586,102.463 260.942 C 102.707 261.287,102.748 261.084,102.584 260.336 C 102.272 258.914,103.096 256.177,103.598 256.969 C 103.832 257.338,103.942 257.095,103.947 256.202 C 103.950 255.432,104.115 254.995,104.348 255.138 C 104.565 255.273,104.743 255.114,104.743 254.787 C 104.743 254.459,105.177 253.722,105.708 253.150 C 106.239 252.577,106.728 251.723,106.795 251.252 C 106.862 250.781,107.317 250.220,107.806 250.005 C 108.295 249.790,108.696 249.291,108.696 248.895 C 108.696 248.499,108.853 248.272,109.046 248.391 C 109.239 248.510,109.493 248.236,109.612 247.782 C 109.734 247.315,110.016 247.072,110.260 247.223 C 110.501 247.372,110.643 247.258,110.583 246.966 C 110.523 246.678,110.690 246.485,110.954 246.537 C 111.218 246.589,111.341 246.388,111.227 246.090 C 110.994 245.483,112.943 243.765,113.485 244.100 C 113.677 244.218,113.834 244.142,113.834 243.931 C 113.834 243.469,118.056 239.225,119.040 238.699 C 119.433 238.489,119.636 238.074,119.508 237.741 C 119.357 237.348,119.533 237.154,120.042 237.154 C 120.951 237.154,123.064 235.066,122.634 234.593 C 122.468 234.410,122.517 234.365,122.743 234.494 C 123.275 234.795,131.726 226.334,131.329 225.897 C 131.163 225.714,131.214 225.671,131.443 225.800 C 132.315 226.295,154.695 203.342,154.720 201.927 C 154.741 200.776,154.875 200.633,156.067 200.495 C 157.036 200.383,157.312 200.472,157.093 200.825 C 156.912 201.118,156.959 201.206,157.214 201.049 C 157.445 200.906,157.540 200.434,157.427 200.000 C 157.283 199.450,157.415 199.209,157.859 199.209 C 158.210 199.209,158.498 198.949,158.498 198.631 C 158.498 198.312,158.816 197.881,159.205 197.673 C 159.594 197.465,160.158 196.836,160.458 196.276 C 160.758 195.715,161.250 195.257,161.553 195.257 C 161.855 195.257,161.992 195.079,161.858 194.862 C 161.723 194.644,161.268 194.466,160.846 194.466 C 160.418 194.466,160.079 194.197,160.079 193.856 C 160.079 193.521,159.109 192.320,157.922 191.188 C 154.668 188.083,154.220 187.747,153.333 187.747 C 152.696 187.747,152.571 187.573,152.767 186.957 C 152.905 186.522,152.867 186.166,152.682 186.166 C 152.498 186.166,152.146 185.632,151.900 184.980 C 151.567 184.098,151.199 183.794,150.463 183.794 C 149.918 183.794,149.414 183.644,149.341 183.459 C 148.671 181.754,143.726 176.680,142.734 176.680 C 142.068 176.680,141.897 176.438,141.897 175.494 C 141.897 174.704,141.700 174.308,141.304 174.308 C 140.978 174.308,140.711 174.054,140.711 173.743 C 140.711 173.432,140.316 173.121,139.832 173.051 C 139.348 172.982,138.739 172.495,138.479 171.971 C 137.516 170.033,132.005 164.964,131.457 165.512 C 131.307 165.663,131.296 165.494,131.433 165.137 C 131.583 164.745,131.356 164.163,130.861 163.667 C 130.409 163.215,130.040 162.668,130.040 162.451 C 130.040 161.878,128.558 161.964,128.343 162.549 C 128.202 162.934,128.041 162.923,127.619 162.500 C 127.196 162.077,127.185 161.916,127.569 161.775 C 128.388 161.475,128.125 160.870,127.174 160.864 C 125.736 160.854,125.220 160.322,125.514 159.152 C 125.737 158.265,125.649 158.103,124.944 158.103 C 124.486 158.103,124.108 157.880,124.105 157.609 C 124.101 157.279,123.975 157.311,123.726 157.704 C 123.422 158.184,123.259 158.199,122.846 157.787 C 122.433 157.374,122.438 157.218,122.872 156.950 C 123.243 156.720,123.272 156.539,122.967 156.350 C 122.726 156.201,122.352 156.190,122.134 156.324 C 121.917 156.458,121.739 156.380,121.739 156.150 C 121.739 155.920,121.554 155.731,121.327 155.731 C 120.408 155.731,119.870 154.758,120.185 153.662 C 120.425 152.824,120.364 152.569,119.920 152.569 C 119.602 152.569,119.205 152.198,119.037 151.744 C 118.762 151.002,118.679 150.982,118.211 151.546 C 117.589 152.295,116.625 152.373,116.541 151.680 C 116.507 151.408,116.439 151.008,116.389 150.791 C 116.338 150.573,116.276 150.063,116.251 149.657 C 116.218 149.117,115.990 148.976,115.399 149.131 C 114.780 149.292,114.640 149.188,114.797 148.683 C 115.027 147.941,114.542 146.959,113.995 147.062 C 113.051 147.240,112.737 146.978,112.945 146.183 C 113.098 145.599,113.024 145.420,112.710 145.614 C 112.442 145.780,112.253 145.653,112.253 145.307 C 112.253 144.654,110.905 144.078,110.280 144.464 C 109.900 144.699,109.690 143.677,109.814 142.194 C 109.846 141.813,109.710 141.502,109.512 141.502 C 108.927 141.502,107.022 139.422,105.499 137.122 C 103.085 133.476,102.794 132.751,101.939 128.261 C 101.508 126.000,101.938 116.984,102.401 118.577 C 102.718 119.668,102.976 117.562,102.801 115.316 C 102.754 114.718,102.917 114.229,103.163 114.229 C 103.439 114.229,103.509 113.908,103.344 113.389 C 103.165 112.824,103.220 112.638,103.515 112.820 C 103.774 112.980,103.953 112.795,103.953 112.367 C 103.953 111.339,107.200 105.950,108.642 104.584 C 109.308 103.953,109.742 103.241,109.606 103.003 C 109.471 102.764,109.500 102.696,109.671 102.850 C 109.843 103.005,110.716 102.535,111.612 101.805 C 117.621 96.911,126.130 94.658,133.246 96.077 M112.572 151.413 C 112.495 151.647,112.262 151.838,112.055 151.838 C 111.849 151.838,111.616 151.647,111.538 151.413 C 111.460 151.179,111.693 150.988,112.055 150.988 C 112.418 150.988,112.650 151.179,112.572 151.413 M279.392 159.637 C 279.306 159.887,279.031 159.919,278.704 159.715 C 278.405 159.529,278.291 159.164,278.452 158.903 C 278.799 158.343,279.617 158.981,279.392 159.637 M123.625 162.376 C 123.846 163.040,122.570 163.440,122.012 162.882 C 121.657 162.526,121.686 162.330,122.138 162.045 C 122.839 161.603,123.409 161.730,123.625 162.376 M154.150 192.053 C 154.150 192.517,152.994 192.951,152.527 192.662 C 152.326 192.537,152.263 192.270,152.388 192.068 C 152.679 191.597,154.150 191.585,154.150 192.053 M184.275 260.547 C 183.672 261.151,183.226 260.705,183.561 259.832 C 183.759 259.317,183.930 259.266,184.282 259.618 C 184.633 259.969,184.632 260.190,184.275 260.547 M255.325 292.475 C 255.644 292.677,255.785 292.963,255.638 293.110 C 255.276 293.472,254.150 293.012,254.150 292.503 C 254.150 292.001,254.559 291.991,255.325 292.475 M289.542 292.859 C 289.222 293.377,288.142 293.419,288.142 292.914 C 288.142 292.713,288.454 292.479,288.834 292.394 C 289.697 292.202,289.875 292.320,289.542 292.859 M135.367 297.616 C 135.497 297.826,136.175 297.902,136.873 297.785 C 138.087 297.581,138.108 297.599,137.363 298.202 C 136.935 298.548,136.342 298.739,136.046 298.625 C 135.750 298.512,135.173 298.419,134.763 298.419 C 134.262 298.419,134.092 298.224,134.244 297.826 C 134.504 297.150,135.020 297.053,135.367 297.616 M277.195 299.407 C 277.152 299.625,276.827 299.863,276.472 299.936 C 275.459 300.146,273.854 299.625,274.131 299.176 C 274.449 298.662,277.299 298.876,277.195 299.407 M131.621 299.977 C 131.621 300.951,130.985 301.369,130.686 300.591 C 130.562 300.266,130.143 299.997,129.755 299.994 C 129.156 299.989,129.140 299.931,129.644 299.605 C 130.642 298.960,131.621 299.144,131.621 299.977 M281.956 301.371 C 282.309 302.289,281.509 302.481,281.034 301.592 C 280.696 300.961,280.724 300.791,281.169 300.791 C 281.480 300.791,281.834 301.052,281.956 301.371 M271.245 302.266 C 270.321 302.349,268.809 302.349,267.885 302.266 C 266.961 302.182,267.717 302.114,269.565 302.114 C 271.413 302.114,272.169 302.182,271.245 302.266 " stroke="none" fill="#f9323b" fill-rule="evenodd"></path><path id="path3" d="M56.119 13.265 C 37.483 16.181,21.004 31.587,16.825 50.000 C 16.480 51.522,16.016 53.567,15.795 54.545 C 14.880 58.594,15.241 339.569,16.168 344.081 C 20.228 363.856,32.696 377.065,52.372 382.434 C 56.290 383.503,69.650 383.599,208.696 383.557 C 311.239 383.526,340.813 383.409,343.281 383.026 C 361.125 380.257,376.839 366.994,382.421 349.993 C 384.970 342.228,384.783 354.242,384.777 198.221 L 384.772 57.115 383.868 52.767 C 379.332 30.954,364.341 16.424,343.083 13.236 C 337.665 12.424,61.318 12.451,56.119 13.265 M345.455 14.350 C 353.379 16.034,361.816 20.082,366.992 24.685 C 367.859 25.456,368.692 26.087,368.843 26.087 C 369.279 26.087,375.361 33.515,376.065 34.907 C 376.415 35.599,376.919 36.515,377.185 36.942 C 378.656 39.303,379.364 40.619,379.638 41.502 C 379.807 42.045,380.265 43.202,380.656 44.071 C 381.047 44.941,381.665 46.986,382.031 48.617 C 382.396 50.247,382.863 52.204,383.067 52.964 C 383.997 56.425,384.176 86.821,383.982 208.300 C 383.755 349.806,383.874 344.067,381.028 351.186 C 376.412 362.733,368.473 371.703,358.488 376.653 C 357.081 377.351,355.383 378.244,354.715 378.637 C 353.036 379.625,347.539 381.247,343.281 382.010 C 340.042 382.590,326.996 382.634,197.628 382.500 C 46.941 382.345,54.223 382.434,50.073 380.702 C 49.461 380.446,48.750 380.231,48.492 380.224 C 48.234 380.216,47.312 379.867,46.443 379.447 C 45.573 379.027,44.628 378.677,44.342 378.670 C 44.056 378.662,42.356 377.790,40.564 376.732 C 25.939 368.094,19.140 357.711,16.587 340.119 C 16.044 336.382,16.018 59.808,16.560 55.929 C 17.732 47.529,22.303 35.971,25.704 32.806 C 25.821 32.698,26.321 32.075,26.814 31.423 C 28.438 29.278,33.298 24.476,34.447 23.882 C 35.066 23.562,35.573 23.165,35.573 23.000 C 35.573 22.835,36.151 22.364,36.858 21.953 C 37.564 21.542,38.231 21.103,38.340 20.978 C 38.582 20.700,43.664 18.186,46.653 16.866 C 50.064 15.359,54.822 14.141,58.498 13.832 C 67.149 13.107,341.938 13.603,345.455 14.350 M295.655 111.090 C 295.653 111.429,295.913 112.052,296.232 112.474 C 296.987 113.472,296.995 113.040,296.247 111.606 C 295.923 110.984,295.656 110.752,295.655 111.090 M297.569 122.332 C 297.213 133.707,297.197 133.731,277.612 153.495 C 253.906 177.417,237.359 194.459,237.219 195.095 C 237.147 195.427,237.502 196.052,238.010 196.484 C 238.518 196.916,240.842 199.161,243.175 201.474 C 247.119 205.385,249.196 206.827,246.826 204.010 C 246.258 203.335,245.905 202.601,246.042 202.380 C 246.180 202.158,246.037 201.976,245.727 201.976 C 245.050 201.976,242.053 198.944,242.194 198.403 C 242.248 198.194,242.137 198.024,241.947 198.024 C 241.757 198.024,240.840 197.327,239.909 196.476 C 238.066 194.792,238.168 194.102,240.340 193.557 C 241.010 193.389,241.528 192.839,241.892 191.909 C 242.194 191.142,242.547 190.514,242.677 190.514 C 242.808 190.514,243.734 189.740,244.736 188.793 C 245.737 187.847,246.842 186.964,247.192 186.830 C 247.541 186.696,247.826 186.314,247.826 185.981 C 247.826 185.648,247.992 185.375,248.195 185.375 C 248.397 185.375,248.673 185.030,248.807 184.608 C 248.941 184.186,249.738 183.519,250.578 183.126 C 251.418 182.733,252.397 181.923,252.754 181.326 C 253.574 179.954,255.947 177.673,257.570 176.697 C 258.287 176.266,258.790 175.652,258.755 175.248 C 258.721 174.851,259.244 174.198,259.965 173.737 C 260.663 173.290,261.241 172.614,261.250 172.233 C 261.258 171.830,261.569 171.542,261.994 171.542 C 262.832 171.542,264.214 170.180,263.897 169.667 C 263.780 169.478,264.296 168.813,265.044 168.190 C 265.791 167.566,266.403 166.801,266.403 166.490 C 266.403 166.178,266.625 166.008,266.897 166.111 C 267.818 166.462,269.170 165.671,269.170 164.781 C 269.170 163.912,270.532 162.376,271.700 161.928 C 272.051 161.793,272.293 161.465,272.237 161.200 C 272.181 160.936,272.486 160.643,272.915 160.550 C 273.772 160.366,274.671 159.374,274.691 158.593 C 274.711 157.808,277.968 154.545,278.731 154.545 C 279.109 154.545,279.621 154.168,279.867 153.707 C 280.231 153.028,280.215 152.930,279.783 153.190 C 279.346 153.453,279.347 153.390,279.791 152.843 C 280.090 152.475,280.481 152.174,280.660 152.174 C 281.161 152.174,282.832 150.484,283.129 149.679 C 283.275 149.284,283.587 149.081,283.823 149.227 C 284.293 149.518,285.449 148.114,285.784 146.846 C 285.899 146.407,286.389 145.872,286.871 145.657 C 287.353 145.443,287.747 145.062,287.747 144.810 C 287.747 144.389,288.287 144.026,289.046 143.938 C 289.541 143.880,290.629 142.672,290.396 142.438 C 290.177 142.220,291.519 140.711,291.933 140.711 C 292.301 140.711,293.648 138.980,293.663 138.487 C 293.670 138.242,293.913 137.844,294.204 137.603 C 294.494 137.362,295.137 136.318,295.632 135.282 C 296.128 134.247,296.812 132.872,297.154 132.227 C 297.772 131.059,298.386 119.492,297.931 117.589 C 297.828 117.154,297.665 119.289,297.569 122.332 M101.865 121.937 C 101.519 126.895,102.145 131.345,103.560 134.001 C 105.306 137.279,108.657 141.502,109.512 141.502 C 109.710 141.502,109.846 141.813,109.814 142.194 C 109.690 143.677,109.900 144.699,110.280 144.464 C 110.905 144.078,112.253 144.654,112.253 145.307 C 112.253 145.653,112.442 145.780,112.710 145.614 C 113.024 145.420,113.098 145.599,112.945 146.183 C 112.737 146.978,113.051 147.240,113.995 147.062 C 114.542 146.959,115.027 147.941,114.797 148.683 C 114.640 149.188,114.780 149.292,115.399 149.131 C 115.990 148.976,116.218 149.117,116.251 149.657 C 116.276 150.063,116.338 150.573,116.389 150.791 C 116.439 151.008,116.507 151.408,116.541 151.680 C 116.625 152.373,117.589 152.295,118.211 151.546 C 118.679 150.982,118.762 151.002,119.037 151.744 C 119.205 152.198,119.602 152.569,119.920 152.569 C 120.364 152.569,120.425 152.824,120.185 153.662 C 119.870 154.758,120.408 155.731,121.327 155.731 C 121.554 155.731,121.739 155.920,121.739 156.150 C 121.739 156.380,121.917 156.458,122.134 156.324 C 122.352 156.190,122.726 156.201,122.967 156.350 C 123.272 156.539,123.243 156.720,122.872 156.950 C 122.438 157.218,122.433 157.374,122.846 157.787 C 123.259 158.199,123.422 158.184,123.726 157.704 C 123.975 157.311,124.101 157.279,124.105 157.609 C 124.108 157.880,124.486 158.103,124.944 158.103 C 125.649 158.103,125.737 158.265,125.514 159.152 C 125.220 160.322,125.736 160.854,127.174 160.864 C 128.125 160.870,128.388 161.475,127.569 161.775 C 127.185 161.916,127.196 162.077,127.619 162.500 C 128.041 162.923,128.202 162.934,128.343 162.549 C 128.558 161.964,130.040 161.878,130.040 162.451 C 130.040 162.668,130.409 163.215,130.861 163.667 C 131.356 164.163,131.583 164.745,131.433 165.137 C 131.296 165.494,131.307 165.663,131.457 165.512 C 132.005 164.964,137.516 170.033,138.479 171.971 C 138.739 172.495,139.348 172.982,139.832 173.051 C 140.316 173.121,140.711 173.432,140.711 173.743 C 140.711 174.054,140.978 174.308,141.304 174.308 C 141.700 174.308,141.897 174.704,141.897 175.494 C 141.897 176.438,142.068 176.680,142.734 176.680 C 143.726 176.680,148.671 181.754,149.341 183.459 C 149.414 183.644,149.918 183.794,150.463 183.794 C 151.199 183.794,151.567 184.098,151.900 184.980 C 152.146 185.632,152.498 186.166,152.682 186.166 C 152.867 186.166,152.905 186.522,152.767 186.957 C 152.571 187.573,152.696 187.747,153.333 187.747 C 154.220 187.747,154.668 188.083,157.922 191.188 C 159.109 192.320,160.079 193.521,160.079 193.856 C 160.079 194.197,160.418 194.466,160.846 194.466 C 161.268 194.466,161.723 194.644,161.858 194.862 C 161.992 195.079,161.855 195.257,161.553 195.257 C 161.250 195.257,160.758 195.715,160.458 196.276 C 160.158 196.836,159.594 197.465,159.205 197.673 C 158.816 197.881,158.498 198.312,158.498 198.631 C 158.498 198.949,158.231 199.209,157.905 199.209 C 157.579 199.209,157.312 199.476,157.312 199.802 C 157.312 200.128,156.957 200.417,156.522 200.445 C 156.087 200.472,155.509 200.516,155.237 200.543 C 154.965 200.571,154.685 201.101,154.614 201.723 C 154.442 203.221,154.780 203.056,158.192 199.963 C 159.773 198.530,161.690 196.809,162.451 196.138 L 163.834 194.919 145.012 176.017 C 134.660 165.621,122.743 153.574,118.530 149.247 C 114.317 144.920,110.507 141.007,110.063 140.551 C 104.458 134.794,102.832 130.963,102.413 122.530 L 102.168 117.589 101.865 121.937 M111.538 151.413 C 111.616 151.647,111.849 151.838,112.055 151.838 C 112.262 151.838,112.495 151.647,112.572 151.413 C 112.650 151.179,112.418 150.988,112.055 150.988 C 111.693 150.988,111.460 151.179,111.538 151.413 M199.318 155.071 C 199.508 155.639,200.791 155.936,200.791 155.411 C 200.791 155.203,200.425 154.937,199.977 154.820 C 199.460 154.685,199.220 154.776,199.318 155.071 M278.452 158.903 C 278.291 159.164,278.405 159.529,278.704 159.715 C 279.362 160.124,279.716 159.400,279.140 158.824 C 278.877 158.561,278.648 158.587,278.452 158.903 M122.138 162.045 C 121.686 162.330,121.657 162.526,122.012 162.882 C 122.570 163.440,123.846 163.040,123.625 162.376 C 123.409 161.730,122.839 161.603,122.138 162.045 M152.388 192.068 C 152.263 192.270,152.326 192.537,152.527 192.662 C 152.994 192.951,154.150 192.517,154.150 192.053 C 154.150 191.585,152.679 191.597,152.388 192.068 M173.269 261.015 C 138.707 295.328,140.715 293.595,133.597 295.274 C 119.372 298.631,102.372 285.818,102.372 271.740 C 102.372 270.360,102.222 269.611,101.976 269.763 C 101.239 270.218,101.568 273.891,102.604 276.786 C 103.167 278.358,103.793 280.203,103.995 280.886 C 104.196 281.569,104.614 282.337,104.922 282.593 C 105.230 282.849,105.597 283.580,105.737 284.217 C 105.877 284.854,106.155 285.375,106.356 285.375 C 106.556 285.375,106.719 285.630,106.719 285.942 C 106.719 286.253,107.057 286.615,107.471 286.746 C 107.884 286.878,108.332 287.423,108.466 287.959 C 108.601 288.495,108.909 288.933,109.152 288.933 C 109.395 288.933,110.005 289.377,110.509 289.921 C 111.013 290.464,111.611 290.909,111.839 290.909 C 112.067 290.909,112.253 291.077,112.253 291.283 C 112.253 291.488,112.662 291.889,113.162 292.172 C 115.762 293.646,116.642 294.343,116.833 295.080 C 117.082 296.043,119.105 296.943,119.694 296.353 C 120.235 295.812,122.925 296.735,122.925 297.461 C 122.925 297.771,123.103 298.024,123.320 298.024 C 123.538 298.024,123.715 297.890,123.715 297.727 C 123.715 297.564,125.005 297.407,126.581 297.377 C 129.574 297.321,130.890 297.202,137.253 296.406 C 140.464 296.004,142.592 295.257,140.526 295.257 C 140.173 295.257,140.035 295.025,140.173 294.664 C 140.298 294.338,140.650 294.071,140.954 294.071 C 141.258 294.071,141.894 293.626,142.366 293.083 C 142.839 292.540,143.460 292.095,143.747 292.095 C 144.034 292.095,144.269 291.828,144.269 291.502 C 144.269 291.176,144.541 290.909,144.874 290.909 C 145.207 290.909,145.582 290.642,145.707 290.316 C 145.832 289.990,146.138 289.722,146.386 289.721 C 146.635 289.719,147.261 289.097,147.778 288.337 C 148.295 287.578,148.968 286.957,149.273 286.957 C 149.578 286.957,149.929 286.691,150.054 286.366 C 150.178 286.041,150.436 285.871,150.626 285.989 C 151.379 286.454,152.569 285.343,152.569 284.176 C 152.569 283.371,152.765 283.004,153.194 283.004 C 153.781 283.004,155.395 281.477,160.426 276.160 C 161.595 274.924,162.688 273.913,162.854 273.913 C 163.020 273.913,163.264 273.480,163.397 272.950 C 163.582 272.215,163.943 271.957,164.922 271.863 C 165.761 271.782,166.166 271.551,166.090 271.196 C 165.848 270.052,167.226 269.100,168.201 269.739 C 169.294 270.455,169.781 270.064,168.946 269.141 C 168.169 268.283,168.844 266.966,170.239 266.616 C 170.738 266.491,171.146 266.156,171.146 265.872 C 171.146 265.269,172.617 263.863,173.617 263.510 C 173.997 263.376,174.308 262.899,174.308 262.451 C 174.308 262.002,174.600 261.523,174.956 261.387 C 175.312 261.250,176.231 260.472,176.998 259.658 C 177.865 258.737,178.617 258.264,178.988 258.407 C 179.416 258.571,179.514 258.454,179.336 257.990 C 179.173 257.565,179.508 256.968,180.317 256.241 C 180.992 255.635,182.007 254.670,182.571 254.097 C 183.135 253.524,183.997 252.934,184.486 252.786 C 185.074 252.607,185.375 252.206,185.375 251.604 C 185.375 250.907,185.655 250.636,186.561 250.455 C 187.257 250.315,187.747 249.968,187.747 249.615 C 187.747 249.283,187.919 249.012,188.130 249.012 C 188.340 249.012,188.417 248.763,188.301 248.459 C 188.184 248.155,188.312 247.768,188.586 247.598 C 188.869 247.424,189.151 247.492,189.239 247.756 C 189.324 248.012,189.757 248.221,190.200 248.221 C 190.879 248.221,190.927 248.126,190.503 247.615 C 189.777 246.741,190.730 245.059,191.952 245.059 C 192.571 245.059,192.793 244.882,192.647 244.502 C 192.520 244.173,192.750 243.844,193.209 243.699 C 193.636 243.563,194.077 243.102,194.189 242.675 C 194.301 242.247,194.680 241.897,195.032 241.897 C 195.422 241.897,195.761 241.450,195.901 240.753 C 196.072 239.895,196.408 239.552,197.243 239.385 C 197.940 239.246,198.462 238.825,198.642 238.259 C 199.151 236.657,201.581 235.884,201.581 237.323 C 201.581 237.583,201.937 238.177,202.372 238.644 C 202.806 239.111,203.162 239.739,203.162 240.041 C 203.162 240.652,204.393 241.897,204.997 241.897 C 205.783 241.897,207.539 244.129,207.281 244.802 C 207.096 245.283,207.190 245.401,207.624 245.234 C 207.952 245.108,208.340 245.198,208.485 245.434 C 208.631 245.670,208.924 245.756,209.136 245.625 C 209.654 245.304,210.532 246.080,211.226 247.472 C 211.841 248.705,211.535 248.861,208.794 248.713 C 208.305 248.687,207.905 248.832,207.905 249.036 C 207.905 249.240,208.157 249.407,208.465 249.407 C 208.773 249.407,209.095 249.618,209.182 249.877 C 209.293 250.210,209.615 250.152,210.291 249.679 C 211.922 248.536,214.229 249.274,214.229 250.939 C 214.229 251.698,216.310 253.333,217.292 253.347 C 217.783 253.354,218.182 253.606,218.182 253.910 C 218.182 254.213,218.449 254.563,218.775 254.688 C 219.101 254.814,219.368 255.296,219.368 255.761 C 219.368 256.341,219.549 256.537,219.947 256.384 C 220.537 256.158,223.715 258.879,223.715 259.611 C 223.715 259.822,223.982 260.097,224.308 260.222 C 224.634 260.347,224.901 260.722,224.901 261.055 C 224.901 261.388,225.090 261.660,225.320 261.660 C 225.550 261.660,225.631 261.833,225.501 262.045 C 225.171 262.578,226.668 263.790,227.971 264.045 C 228.909 264.229,229.038 264.425,228.951 265.528 C 228.896 266.227,229.029 266.798,229.248 266.798 C 229.466 266.798,229.644 266.634,229.644 266.433 C 229.644 265.717,231.836 267.178,232.534 268.360 C 232.926 269.023,233.438 269.565,233.673 269.565 C 234.331 269.565,236.012 271.546,235.735 271.994 C 235.600 272.213,235.864 272.742,236.322 273.168 C 236.780 273.595,237.154 274.115,237.154 274.324 C 237.154 274.533,237.704 274.704,238.377 274.704 C 239.267 274.704,239.656 274.918,239.806 275.494 C 239.920 275.929,240.259 276.285,240.560 276.285 C 240.861 276.285,241.107 276.648,241.107 277.092 C 241.107 277.548,241.329 277.850,241.616 277.784 C 241.896 277.720,242.690 278.246,243.381 278.953 C 244.072 279.659,244.866 280.240,245.145 280.243 C 245.553 280.248,245.554 280.311,245.151 280.568 C 244.786 280.799,244.921 281.032,245.645 281.419 C 246.192 281.712,246.640 282.103,246.640 282.288 C 246.640 283.107,248.694 285.771,249.325 285.771 C 249.709 285.771,250.280 286.126,250.593 286.561 C 250.906 286.996,251.378 287.352,251.642 287.352 C 251.905 287.352,252.228 287.690,252.359 288.103 C 252.490 288.516,253.043 288.966,253.588 289.103 C 254.133 289.240,254.693 289.658,254.833 290.032 C 254.972 290.405,255.412 290.946,255.811 291.233 C 256.209 291.519,256.443 291.903,256.330 292.085 C 256.218 292.267,256.465 292.328,256.880 292.219 C 257.327 292.102,257.971 292.358,258.461 292.849 C 258.916 293.304,259.456 293.676,259.661 293.676 C 259.866 293.676,260.267 293.987,260.551 294.368 C 261.158 295.181,263.269 296.070,265.217 296.333 C 265.978 296.436,266.808 296.783,267.061 297.104 C 267.764 297.995,274.863 298.351,275.794 297.542 C 276.825 296.646,278.347 296.409,280.489 296.809 C 282.687 297.220,282.939 297.125,282.171 296.181 C 281.687 295.586,281.703 295.535,282.302 295.759 C 283.042 296.037,285.771 293.781,285.771 292.891 C 285.771 292.579,286.131 292.467,286.756 292.586 C 287.657 292.759,288.403 292.343,288.515 291.605 C 288.643 290.761,289.057 290.149,289.369 290.342 C 289.564 290.462,289.723 290.372,289.723 290.142 C 289.723 289.912,290.073 289.723,290.501 289.723 C 290.998 289.723,291.204 289.527,291.072 289.181 C 290.957 288.883,291.141 288.533,291.479 288.403 C 291.818 288.273,292.095 287.908,292.095 287.590 C 292.095 287.273,292.540 286.664,293.083 286.237 C 293.626 285.809,294.071 285.263,294.071 285.022 C 294.071 284.782,294.249 284.585,294.466 284.585 C 294.684 284.585,294.862 284.318,294.862 283.992 C 294.862 283.666,295.019 283.399,295.211 283.399 C 295.403 283.399,295.654 282.999,295.770 282.510 C 295.885 282.021,296.338 280.642,296.777 279.447 C 298.194 275.587,298.877 271.567,298.723 267.984 L 298.580 264.625 298.499 268.257 C 298.455 270.255,298.241 272.000,298.024 272.134 C 297.806 272.269,297.624 272.857,297.619 273.442 C 297.527 283.520,283.829 295.628,272.332 295.795 C 262.178 295.943,262.379 296.096,228.251 262.133 C 213.463 247.416,201.080 235.150,200.733 234.875 C 200.186 234.442,196.516 237.935,173.269 261.015 M111.202 245.742 C 110.258 246.770,109.486 247.775,109.486 247.975 C 109.486 248.311,110.079 247.735,112.618 244.931 C 113.145 244.350,113.428 243.874,113.247 243.874 C 113.066 243.874,112.146 244.715,111.202 245.742 M107.115 250.395 C 106.835 250.732,106.696 251.096,106.804 251.205 C 106.913 251.314,107.231 251.127,107.510 250.791 C 107.789 250.454,107.929 250.090,107.820 249.981 C 107.711 249.872,107.394 250.059,107.115 250.395 M102.805 257.766 C 102.269 259.307,102.233 260.380,102.736 259.862 C 103.143 259.442,103.761 256.522,103.442 256.522 C 103.331 256.522,103.044 257.082,102.805 257.766 M183.561 259.832 C 183.226 260.705,183.672 261.151,184.275 260.547 C 184.632 260.190,184.633 259.969,184.282 259.618 C 183.930 259.266,183.759 259.317,183.561 259.832 M101.835 262.904 C 101.470 266.393,101.522 268.379,101.976 268.379 C 102.213 268.379,102.372 266.798,102.372 264.427 C 102.372 259.901,102.200 259.413,101.835 262.904 M254.150 292.503 C 254.150 293.012,255.276 293.472,255.638 293.110 C 255.785 292.963,255.644 292.677,255.325 292.475 C 254.559 291.991,254.150 292.001,254.150 292.503 M288.834 292.394 C 288.454 292.479,288.142 292.713,288.142 292.914 C 288.142 293.419,289.222 293.377,289.542 292.859 C 289.875 292.320,289.697 292.202,288.834 292.394 M134.244 297.826 C 134.092 298.224,134.262 298.419,134.763 298.419 C 135.173 298.419,135.750 298.512,136.046 298.625 C 136.342 298.739,136.935 298.548,137.363 298.202 C 138.108 297.599,138.087 297.581,136.873 297.785 C 136.175 297.902,135.497 297.826,135.367 297.616 C 135.020 297.053,134.504 297.150,134.244 297.826 M274.131 299.176 C 273.854 299.625,275.459 300.146,276.472 299.936 C 276.827 299.863,277.152 299.625,277.195 299.407 C 277.299 298.876,274.449 298.662,274.131 299.176 M129.644 299.605 C 129.140 299.931,129.156 299.989,129.755 299.994 C 130.143 299.997,130.562 300.266,130.686 300.591 C 130.985 301.369,131.621 300.951,131.621 299.977 C 131.621 299.144,130.642 298.960,129.644 299.605 M281.034 301.592 C 281.270 302.033,281.624 302.294,281.821 302.172 C 282.337 301.853,281.836 300.791,281.169 300.791 C 280.724 300.791,280.696 300.961,281.034 301.592 M267.885 302.266 C 268.809 302.349,270.321 302.349,271.245 302.266 C 272.169 302.182,271.413 302.114,269.565 302.114 C 267.717 302.114,266.961 302.182,267.885 302.266 " stroke="none" fill="#a02844" fill-rule="evenodd"></path><path id="path4" d="M46.320 0.874 C 44.948 1.309,43.891 1.731,43.973 1.812 C 44.185 2.024,48.742 0.733,49.190 0.334 C 49.720 -0.138,49.212 -0.043,46.320 0.874 M350.988 0.395 C 351.314 0.606,351.937 0.769,352.372 0.757 L 353.162 0.735 352.372 0.395 C 351.190 -0.113,350.202 -0.113,350.988 0.395 M40.910 2.820 C 38.756 3.693,37.951 4.232,39.524 3.747 C 40.977 3.298,43.739 2.033,43.281 2.026 C 43.063 2.022,41.997 2.380,40.910 2.820 M359.289 2.899 C 359.289 3.001,359.863 3.285,360.564 3.529 C 361.266 3.774,361.666 3.811,361.453 3.612 C 361.003 3.191,359.289 2.626,359.289 2.899 M36.364 4.743 C 35.603 5.160,35.158 5.500,35.375 5.500 C 35.593 5.500,36.393 5.160,37.154 4.743 C 37.915 4.327,38.360 3.986,38.142 3.986 C 37.925 3.986,37.125 4.327,36.364 4.743 M365.415 5.857 C 370.209 8.403,374.474 11.328,378.592 14.893 L 382.016 17.857 379.051 15.061 C 374.397 10.671,364.246 3.968,362.253 3.968 C 362.036 3.968,363.458 4.818,365.415 5.857 M31.225 7.542 L 30.237 8.348 31.522 7.721 C 32.228 7.376,32.806 7.010,32.806 6.907 C 32.806 6.514,32.177 6.767,31.225 7.542 M27.352 10.084 C 26.004 11.064,24.901 11.969,24.901 12.094 C 24.901 12.325,28.577 9.785,29.630 8.827 C 30.801 7.761,29.736 8.349,27.352 10.084 M20.824 15.460 C 16.287 19.666,8.086 30.352,8.827 31.093 C 8.940 31.206,9.338 30.704,9.712 29.977 C 11.402 26.690,16.333 20.387,20.255 16.502 C 22.614 14.165,24.485 12.253,24.413 12.253 C 24.341 12.253,22.726 13.696,20.824 15.460 M382.213 18.396 C 382.213 18.514,382.588 19.003,383.046 19.483 C 383.503 19.963,384.839 21.645,386.013 23.221 C 387.187 24.797,388.257 26.087,388.391 26.087 C 388.525 26.087,388.467 25.865,388.263 25.593 C 383.924 19.813,382.213 17.778,382.213 18.396 M388.882 27.075 C 389.095 27.510,389.560 28.221,389.914 28.656 L 390.557 29.447 390.169 28.656 C 389.956 28.221,389.492 27.510,389.138 27.075 L 388.494 26.285 388.882 27.075 M391.304 31.225 C 391.748 32.095,392.200 32.806,392.309 32.806 C 392.417 32.806,392.143 32.095,391.700 31.225 C 391.256 30.356,390.804 29.644,390.695 29.644 C 390.587 29.644,390.861 30.356,391.304 31.225 M394.110 37.253 C 394.967 39.428,395.257 39.932,395.257 39.247 C 395.257 38.722,393.696 35.178,393.466 35.178 C 393.370 35.178,393.660 36.112,394.110 37.253 M5.784 36.892 C 5.064 38.615,4.589 40.171,4.859 39.921 C 5.186 39.618,6.733 35.573,6.521 35.573 C 6.419 35.573,6.087 36.167,5.784 36.892 M395.260 39.941 C 395.269 40.410,397.190 45.594,397.210 45.203 C 397.244 44.548,395.971 40.578,395.586 40.138 C 395.405 39.932,395.258 39.843,395.260 39.941 M4.150 41.107 C 4.002 41.574,3.969 42.046,4.078 42.154 C 4.187 42.263,4.397 41.970,4.545 41.502 C 4.694 41.034,4.726 40.563,4.618 40.454 C 4.509 40.346,4.299 40.639,4.150 41.107 M3.162 44.269 C 2.916 45.182,2.792 46.007,2.887 46.102 C 2.981 46.196,3.251 45.517,3.485 44.592 C 3.720 43.667,3.844 42.843,3.761 42.759 C 3.677 42.676,3.408 43.355,3.162 44.269 M397.300 46.443 C 397.307 46.877,397.454 47.678,397.628 48.221 L 397.945 49.209 397.957 48.221 C 397.963 47.678,397.815 46.877,397.628 46.443 L 397.289 45.652 397.300 46.443 M2.174 47.826 C 2.024 48.509,1.990 49.157,2.099 49.266 C 2.207 49.375,2.419 48.905,2.569 48.221 C 2.719 47.538,2.753 46.890,2.644 46.781 C 2.536 46.673,2.324 47.143,2.174 47.826 M398.302 51.581 C 398.428 52.668,398.594 53.631,398.672 53.722 C 398.968 54.065,398.743 51.150,398.416 50.395 C 398.196 49.887,398.155 50.310,398.302 51.581 M1.458 51.394 C 1.314 51.931,1.214 52.905,1.234 53.557 C 1.265 54.503,1.343 54.383,1.622 52.964 C 2.005 51.021,1.879 49.819,1.458 51.394 M399.304 197.628 C 399.248 275.128,399.120 339.516,399.019 340.711 L 398.836 342.885 399.221 341.059 C 399.468 339.889,399.570 288.496,399.506 197.976 L 399.406 56.719 399.304 197.628 M0.591 197.431 C 0.591 273.735,0.636 304.892,0.692 266.667 C 0.747 228.443,0.747 166.012,0.692 127.932 C 0.636 89.852,0.591 121.126,0.591 197.431 M15.937 62.055 C 15.937 63.468,16.009 64.046,16.096 63.340 C 16.184 62.633,16.184 61.477,16.096 60.771 C 16.009 60.064,15.937 60.642,15.937 62.055 M123.493 96.210 C 102.395 101.034,95.085 125.167,110.063 140.551 C 110.507 141.007,114.317 144.920,118.530 149.247 C 122.743 153.574,134.652 165.610,144.993 175.994 L 163.797 194.873 160.258 198.114 C 146.169 211.022,107.729 249.993,105.567 253.561 C 102.505 258.613,101.237 269.394,102.968 275.654 C 107.290 291.281,124.257 300.065,137.945 293.760 C 142.560 291.634,141.274 292.813,168.972 265.305 C 181.364 252.999,193.483 240.986,195.905 238.610 L 200.308 234.290 227.746 261.606 C 256.049 289.783,258.232 291.811,262.249 293.652 C 275.882 299.903,292.233 291.657,297.079 276.087 C 297.993 273.149,298.139 262.844,297.302 260.277 C 294.877 252.838,295.369 253.373,245.737 204.057 C 241.000 199.351,237.176 195.273,237.239 194.996 C 237.362 194.447,255.178 176.133,277.612 153.495 C 294.956 135.993,295.148 135.753,296.810 129.553 C 302.588 107.987,282.477 89.547,261.858 97.505 C 256.710 99.492,256.150 100.002,224.310 131.719 C 211.053 144.926,200.154 155.731,200.092 155.731 C 199.968 155.731,196.168 151.967,166.206 122.163 C 155.336 111.351,145.464 101.781,144.269 100.896 C 138.439 96.583,130.095 94.701,123.493 96.210 M135.333 97.278 C 138.475 98.212,141.224 99.513,143.874 101.318 C 145.421 102.373,154.426 111.221,191.910 148.518 C 196.334 152.920,200.035 156.522,200.133 156.522 C 200.232 156.522,212.026 144.857,226.342 130.599 C 240.658 116.342,253.533 103.737,254.953 102.588 C 274.632 86.668,301.678 103.154,296.611 127.981 C 295.248 134.660,294.682 135.415,279.693 150.511 C 272.286 157.971,266.129 164.232,266.010 164.424 C 265.891 164.617,259.216 171.471,251.177 179.656 C 243.138 187.840,236.561 194.783,236.561 195.083 C 236.561 195.384,249.121 208.219,264.471 223.605 C 283.120 242.298,292.863 252.345,293.832 253.882 C 298.947 261.992,298.613 275.989,293.131 283.347 C 284.178 295.364,270.717 298.666,259.711 291.547 C 256.093 289.206,255.455 288.595,226.355 259.585 C 212.234 245.509,200.498 233.992,200.274 233.992 C 199.787 233.992,196.253 237.442,167.416 266.069 C 140.942 292.351,141.018 292.285,134.864 294.294 C 131.571 295.369,125.549 295.631,122.953 294.812 C 118.919 293.539,117.767 293.028,115.350 291.439 C 105.393 284.894,100.864 273.506,103.339 261.236 C 104.689 254.539,106.750 251.738,119.808 238.861 C 124.838 233.901,134.229 224.595,140.676 218.182 C 147.124 211.769,155.016 203.973,158.215 200.858 C 161.414 197.743,164.032 195.030,164.032 194.829 C 164.032 194.628,159.807 190.222,154.644 185.037 C 138.955 169.282,110.057 139.823,108.643 138.143 C 107.911 137.273,107.096 136.332,106.831 136.052 C 102.793 131.775,101.894 118.403,105.161 111.210 C 110.202 100.111,123.778 93.842,135.333 97.278 M1.049 341.038 C 1.171 342.414,1.423 344.015,1.609 344.596 C 2.005 345.831,1.684 342.663,1.155 340.119 C 0.906 338.919,0.881 339.141,1.049 341.038 M398.275 345.311 C 398.135 346.330,398.097 347.241,398.190 347.334 C 398.283 347.427,398.483 346.678,398.635 345.670 C 398.786 344.662,398.824 343.751,398.719 343.647 C 398.615 343.542,398.415 344.291,398.275 345.311 M2.017 346.839 C 1.975 347.663,4.164 355.679,4.533 356.048 C 4.907 356.423,4.760 355.707,3.790 352.429 C 3.266 350.658,2.661 348.498,2.447 347.628 C 2.233 346.759,2.040 346.404,2.017 346.839 M397.431 349.012 C 397.281 349.695,397.247 350.343,397.356 350.452 C 397.464 350.560,397.676 350.090,397.826 349.407 C 397.976 348.724,398.010 348.076,397.901 347.967 C 397.793 347.858,397.581 348.329,397.431 349.012 M396.869 351.352 C 396.815 352.320,392.448 362.928,391.458 364.497 C 390.939 365.319,390.514 366.088,390.514 366.206 C 390.514 367.351,383.824 375.740,379.771 379.678 C 374.177 385.112,370.405 387.801,363.636 391.178 C 361.354 392.317,359.637 393.256,359.822 393.265 C 360.408 393.292,364.240 391.482,368.379 389.223 C 372.437 387.008,383.620 377.062,386.039 373.518 C 386.410 372.974,386.818 372.441,386.947 372.332 C 387.219 372.101,389.702 368.546,390.397 367.391 C 392.939 363.165,397.477 352.187,397.080 351.225 C 396.980 350.984,396.886 351.040,396.869 351.352 M4.743 356.681 C 4.743 357.185,7.198 362.894,7.350 362.742 C 7.430 362.663,6.943 361.275,6.269 359.658 C 5.043 356.719,4.743 356.135,4.743 356.681 M7.510 363.460 C 7.510 363.856,9.969 368.134,11.588 370.553 C 16.267 377.549,24.674 385.516,31.423 389.350 C 34.273 390.969,39.055 393.281,39.554 393.281 C 39.823 393.281,38.005 392.258,35.515 391.008 C 24.768 385.614,14.191 375.481,9.110 365.711 C 7.940 363.462,7.510 362.857,7.510 363.460 M40.436 393.551 C 40.728 394.022,45.012 395.436,45.294 395.154 C 45.399 395.049,44.624 394.681,43.571 394.337 C 42.518 393.992,41.326 393.583,40.921 393.428 C 40.460 393.251,40.280 393.297,40.436 393.551 M356.823 394.035 C 355.793 394.412,354.815 394.856,354.650 395.021 C 354.235 395.435,356.629 394.843,357.095 394.415 C 357.301 394.226,357.780 394.071,358.158 394.071 C 358.537 394.071,358.957 393.893,359.091 393.676 C 359.411 393.158,359.071 393.212,356.823 394.035 " stroke="none" fill="#d77f8b" fill-rule="evenodd"></path></g></svg>