<svg id="svg" version="1.1" xmlns="http://www.w3.org/2000/svg" xmlns:xlink="http://www.w3.org/1999/xlink" width="400" height="402.6143790849673" viewBox="0, 0, 400,402.6143790849673"><g id="svgg"><path id="path0" d="M0.000 42.800 C 0.000 66.340,0.103 85.600,0.229 85.600 C 1.331 85.600,1.601 84.226,1.613 78.529 C 1.640 66.119,3.258 54.841,5.964 48.200 C 15.334 25.200,34.049 8.914,57.000 3.789 C 58.540 3.445,60.586 2.984,61.547 2.764 C 66.259 1.687,80.789 1.581,204.800 1.723 C 321.099 1.856,333.316 1.930,336.400 2.520 C 340.449 3.294,347.423 5.077,348.357 5.577 C 348.722 5.772,350.331 6.390,351.933 6.950 C 370.253 13.350,388.392 32.757,394.041 52.000 C 394.461 53.430,394.966 55.140,395.163 55.800 C 396.608 60.626,396.600 59.812,396.600 203.400 C 396.600 317.557,396.503 343.547,396.070 346.000 C 395.471 349.384,394.521 353.403,394.035 354.600 C 393.857 355.040,393.484 356.120,393.206 357.000 C 392.594 358.941,390.438 363.996,389.156 366.495 C 388.960 366.877,388.800 367.418,388.800 367.698 C 388.800 367.978,388.456 368.422,388.036 368.685 C 387.616 368.947,387.154 369.698,387.010 370.353 C 386.866 371.009,386.490 371.759,386.174 372.021 C 385.858 372.283,385.600 372.825,385.600 373.225 C 385.600 373.625,385.428 374.059,385.217 374.189 C 385.007 374.319,384.936 374.690,385.060 375.013 C 385.201 375.379,385.044 375.600,384.643 375.600 C 384.289 375.600,384.000 375.735,384.000 375.901 C 384.000 376.066,383.190 377.071,382.200 378.135 C 379.792 380.721,380.272 382.482,383.178 381.722 C 383.937 381.523,384.023 381.636,383.889 382.648 C 383.684 384.199,382.000 384.579,382.000 383.074 C 382.000 382.501,381.709 381.991,381.300 381.846 C 380.915 381.711,380.375 381.495,380.100 381.366 C 379.810 381.231,379.600 381.405,379.600 381.779 C 379.600 382.134,379.860 382.525,380.177 382.647 C 380.619 382.816,380.699 383.333,380.519 384.856 C 380.305 386.658,380.365 386.866,381.150 387.071 C 381.725 387.221,381.896 387.450,381.659 387.749 C 381.231 388.288,380.834 390.283,380.626 392.938 C 380.508 394.441,380.209 395.136,379.292 396.032 C 378.364 396.939,378.109 397.540,378.109 398.820 C 378.109 399.717,377.905 400.655,377.655 400.905 C 376.253 402.307,376.930 402.400,388.600 402.400 L 400.000 402.400 400.000 201.200 L 400.000 0.000 200.000 0.000 L 0.000 0.000 0.000 42.800 M167.287 64.040 C 156.197 65.917,154.354 79.737,164.701 83.430 C 167.167 84.310,230.863 84.241,233.472 83.355 C 242.868 80.165,242.825 68.751,233.400 64.519 C 231.609 63.714,171.769 63.281,167.287 64.040 M91.309 99.568 C 79.464 103.611,78.237 118.415,89.353 123.180 L 91.280 124.006 199.940 123.903 L 308.600 123.800 310.717 122.843 C 320.096 118.606,319.723 105.268,310.093 100.508 L 307.042 99.000 200.221 98.927 C 98.644 98.857,93.297 98.889,91.309 99.568 M107.631 139.542 C 107.191 140.365,107.351 169.437,107.998 206.000 C 108.214 218.210,108.668 246.110,109.006 268.000 C 109.345 289.890,109.779 309.102,109.972 310.693 C 110.920 318.504,117.005 325.269,125.421 327.866 C 128.885 328.935,269.710 328.988,273.000 327.922 C 280.992 325.332,285.862 320.908,288.715 313.649 L 289.757 311.000 290.039 280.200 C 290.341 247.361,291.031 203.391,291.438 191.200 C 291.734 182.287,292.263 139.524,292.081 139.100 C 291.749 138.324,108.048 138.764,107.631 139.542 M145.200 154.616 C 146.451 155.246,148.814 157.813,149.603 159.400 C 150.574 161.353,150.718 298.207,149.752 300.800 C 146.726 308.923,134.399 308.853,131.854 300.699 C 130.945 297.786,131.065 161.913,131.979 159.630 C 133.882 154.876,140.630 152.317,145.200 154.616 M184.632 154.624 C 186.238 155.339,187.868 156.993,188.940 158.995 L 189.800 160.600 189.800 230.866 L 189.800 301.131 188.596 302.844 C 184.700 308.388,175.019 307.919,172.021 302.041 C 171.289 300.607,171.261 298.299,171.158 230.735 L 171.052 160.911 172.131 158.705 C 174.270 154.333,179.870 152.505,184.632 154.624 M263.250 154.838 C 265.071 155.751,266.534 157.472,267.371 159.684 C 267.962 161.247,268.010 167.603,267.910 231.031 L 267.800 300.663 266.598 302.631 C 262.956 308.596,253.054 308.109,250.007 301.815 L 249.143 300.029 249.177 230.742 C 249.203 178.690,249.329 161.062,249.684 159.876 C 251.204 154.804,258.084 152.249,263.250 154.838 M223.830 154.641 C 225.682 155.520,227.860 158.029,228.370 159.872 C 229.259 163.080,228.944 300.550,228.044 302.307 C 224.715 308.809,214.790 308.279,211.066 301.400 L 210.200 299.800 210.344 230.200 C 210.504 152.984,210.289 158.868,213.048 156.348 C 215.674 153.948,220.696 153.154,223.830 154.641 M379.062 383.383 C 378.896 383.815,379.071 384.000,379.646 384.000 C 380.102 384.000,380.396 383.789,380.308 383.525 C 380.061 382.784,379.324 382.700,379.062 383.383 M0.000 396.600 L 0.000 402.400 2.650 402.400 L 5.299 402.400 5.122 400.262 C 4.999 398.780,4.553 397.488,3.672 396.056 C 2.972 394.918,2.400 393.633,2.400 393.199 C 2.400 392.269,1.243 390.800,0.511 390.800 C 0.120 390.800,0.000 392.159,0.000 396.600 " stroke="none" fill="#efeef2" fill-rule="evenodd"></path><path id="path1" d="M68.600 8.848 C 60.207 9.599,51.504 12.098,45.000 15.623 C 44.340 15.981,42.551 16.948,41.025 17.772 C 37.386 19.736,30.855 24.384,28.276 26.844 C 27.148 27.920,26.078 28.800,25.899 28.800 C 25.719 28.800,24.422 29.956,23.016 31.369 C 21.610 32.782,20.221 33.902,19.930 33.858 C 18.966 33.712,18.400 33.163,18.400 32.376 C 18.400 31.220,17.242 31.437,16.769 32.682 C 16.542 33.278,15.669 34.420,14.827 35.220 C 13.985 36.021,13.059 37.334,12.768 38.138 C 12.477 38.942,12.033 39.600,11.780 39.600 C 10.860 39.600,5.200 52.342,5.200 54.414 C 5.200 54.852,5.035 55.523,4.833 55.905 C 3.166 59.057,3.200 55.979,3.200 202.148 C 3.200 285.041,3.346 340.843,3.564 340.978 C 3.765 341.102,4.055 342.777,4.211 344.701 C 4.366 346.626,4.904 349.460,5.407 351.000 C 5.910 352.540,6.445 354.390,6.595 355.111 C 6.869 356.423,9.709 362.264,10.422 362.980 C 10.630 363.189,10.800 363.780,10.800 364.293 C 10.800 364.805,11.088 365.335,11.439 365.470 C 11.790 365.605,12.414 366.500,12.825 367.458 C 13.236 368.416,13.738 369.200,13.942 369.200 C 14.146 369.200,14.421 369.605,14.552 370.100 C 14.684 370.595,15.603 371.899,16.596 372.997 C 17.588 374.096,18.400 375.128,18.400 375.290 C 18.400 375.453,19.030 376.234,19.800 377.027 C 20.570 377.820,21.200 378.704,21.200 378.991 C 21.200 379.278,21.650 379.626,22.200 379.764 C 22.750 379.902,23.200 380.171,23.200 380.362 C 23.200 381.026,26.610 384.019,27.900 384.488 C 28.615 384.748,29.200 385.177,29.200 385.441 C 29.200 385.705,29.785 386.289,30.500 386.738 C 31.215 387.188,32.520 388.099,33.400 388.764 C 34.280 389.428,35.642 390.325,36.427 390.756 C 37.211 391.188,38.089 391.825,38.376 392.171 C 38.663 392.517,39.212 392.800,39.595 392.800 C 39.978 392.800,40.721 393.133,41.246 393.539 C 41.771 393.945,42.681 394.395,43.269 394.539 C 43.857 394.682,44.873 395.250,45.527 395.800 C 46.181 396.350,47.140 396.806,47.658 396.814 C 48.176 396.822,49.050 397.086,49.600 397.400 C 50.150 397.714,51.235 397.978,52.011 397.986 C 52.787 397.994,53.785 398.254,54.228 398.564 C 54.671 398.875,56.016 399.312,57.217 399.536 C 58.418 399.760,59.848 400.111,60.396 400.316 C 60.944 400.521,62.969 400.599,64.896 400.489 C 66.823 400.379,68.400 400.449,68.400 400.645 C 68.400 400.840,69.416 400.998,70.657 400.996 C 72.380 400.993,73.017 401.159,73.353 401.696 C 73.935 402.629,77.794 402.713,78.145 401.800 C 78.473 400.944,82.902 400.959,83.616 401.819 C 84.181 402.501,152.800 402.678,152.800 401.997 C 152.800 401.821,153.655 401.576,154.700 401.453 C 163.178 400.455,164.000 400.287,164.000 399.557 C 164.000 399.361,164.731 399.200,165.624 399.200 C 166.604 399.200,167.149 399.358,167.000 399.600 C 166.602 400.244,173.152 400.555,196.600 401.005 C 206.740 401.200,209.081 401.349,209.444 401.822 C 210.235 402.852,219.600 402.648,219.600 401.600 C 219.600 400.883,219.867 400.800,222.173 400.800 C 224.395 400.800,224.781 400.909,225.000 401.600 C 225.397 402.850,229.248 402.770,229.805 401.500 C 230.271 400.438,234.244 400.196,248.400 400.371 C 249.610 400.385,251.950 400.384,253.600 400.368 C 255.250 400.352,257.587 400.340,258.793 400.341 C 259.999 400.343,261.217 400.152,261.500 399.917 C 261.835 399.639,262.817 399.599,264.307 399.803 C 267.535 400.243,269.136 400.225,274.600 399.684 C 280.277 399.121,286.884 399.055,287.420 399.554 C 288.521 400.581,292.230 400.465,292.807 399.386 C 293.285 398.493,293.554 398.372,294.585 398.586 C 300.195 399.746,303.600 399.673,303.600 398.392 C 303.600 397.357,308.153 397.180,308.545 398.200 C 308.933 399.212,313.444 399.038,313.716 398.000 C 313.950 397.106,316.603 396.852,317.984 397.592 C 318.387 397.807,319.770 398.091,321.058 398.223 C 322.346 398.355,323.780 398.646,324.246 398.870 C 324.873 399.172,325.409 399.112,326.326 398.638 C 327.829 397.861,331.248 397.762,331.100 398.500 C 331.038 398.811,331.555 399.046,332.470 399.122 C 333.278 399.190,334.155 399.505,334.419 399.822 C 335.086 400.626,336.800 400.543,339.000 399.600 C 340.532 398.943,342.419 398.591,345.324 398.419 C 345.502 398.409,345.537 398.222,345.403 398.005 C 345.248 397.753,345.822 397.701,346.981 397.859 C 348.847 398.115,352.141 396.917,352.920 395.700 C 353.096 395.425,353.591 395.200,354.020 395.200 C 354.449 395.200,354.800 394.960,354.800 394.666 C 354.800 394.326,355.347 394.108,356.300 394.068 C 358.332 393.982,363.200 391.499,363.200 390.549 C 363.200 390.091,365.532 388.800,366.360 388.800 C 366.602 388.800,366.800 388.530,366.800 388.200 C 366.800 387.870,366.993 387.600,367.229 387.600 C 367.464 387.600,367.927 387.330,368.257 387.000 C 368.587 386.670,369.208 386.400,369.637 386.400 C 370.079 386.400,370.613 385.970,370.869 385.408 C 371.118 384.862,371.646 384.312,372.043 384.186 C 372.440 384.060,373.211 383.427,373.757 382.779 C 374.302 382.130,374.879 381.600,375.039 381.600 C 375.883 381.600,384.400 371.807,384.400 370.837 C 384.400 370.597,384.568 370.400,384.773 370.400 C 384.978 370.400,385.261 370.037,385.402 369.594 C 385.543 369.151,385.816 368.886,386.009 369.005 C 386.202 369.125,386.478 368.594,386.622 367.825 C 386.766 367.057,387.126 366.228,387.422 365.982 C 387.718 365.736,388.345 364.740,388.816 363.768 C 389.286 362.795,389.835 362.000,390.036 362.000 C 390.236 362.000,390.406 361.685,390.414 361.300 C 390.421 360.915,390.775 359.880,391.200 359.000 C 391.625 358.120,391.985 357.130,391.999 356.800 C 392.014 356.470,392.290 355.851,392.613 355.424 C 392.936 354.996,393.200 354.034,393.200 353.285 C 393.200 352.536,393.457 351.446,393.771 350.862 C 394.754 349.037,395.610 341.426,395.533 335.200 C 395.478 330.673,395.404 329.970,395.200 332.000 C 395.003 333.955,394.920 334.203,394.864 333.000 C 394.772 331.027,394.397 329.554,394.043 329.773 C 393.897 329.864,393.800 328.737,393.829 327.269 C 393.876 324.817,393.867 324.787,393.721 326.900 C 393.367 332.024,392.006 329.150,391.992 323.250 C 391.988 321.353,391.799 318.540,391.573 317.000 C 391.107 313.834,390.936 284.372,390.619 153.000 C 390.388 57.200,390.516 62.227,388.110 54.600 C 380.543 30.612,356.740 11.452,331.439 8.982 C 324.773 8.332,75.786 8.204,68.600 8.848 M234.000 63.857 C 235.044 64.116,238.556 66.626,239.803 68.004 C 241.647 70.041,241.762 77.923,239.975 79.826 C 239.549 80.280,239.195 80.820,239.188 81.026 C 239.172 81.537,237.126 83.686,236.070 84.300 C 233.504 85.792,233.127 85.805,198.400 85.600 C 161.294 85.380,163.234 85.516,160.572 82.957 C 159.911 82.321,159.034 81.611,158.624 81.381 C 158.214 81.151,157.848 80.551,157.811 80.049 C 157.774 79.547,157.513 78.994,157.231 78.819 C 156.855 78.587,156.761 77.510,156.878 74.751 C 157.123 68.951,160.035 65.065,165.371 63.421 C 167.418 62.791,229.022 62.494,231.200 63.104 C 232.190 63.382,233.450 63.720,234.000 63.857 M265.115 97.554 C 299.611 97.755,307.289 97.897,307.560 98.334 C 307.741 98.628,308.004 98.853,308.145 98.834 C 309.035 98.715,309.611 98.868,310.097 99.354 C 310.401 99.658,311.395 100.287,312.305 100.751 C 318.830 104.080,320.549 115.349,315.404 121.062 C 314.642 121.908,314.014 122.735,314.009 122.900 C 314.004 123.065,313.730 123.200,313.400 123.200 C 313.070 123.200,312.800 123.353,312.800 123.539 C 312.800 123.955,310.237 125.077,308.600 125.378 C 307.940 125.500,258.530 125.644,198.800 125.699 C 80.546 125.809,88.580 125.945,86.806 123.807 C 86.529 123.473,86.099 123.199,85.851 123.198 C 84.278 123.189,81.000 118.652,80.964 116.434 C 80.945 115.205,80.800 113.472,80.643 112.583 C 80.357 110.963,81.781 105.956,82.940 104.505 C 84.377 102.707,87.399 100.000,87.970 100.000 C 88.170 100.000,88.393 99.839,88.467 99.642 C 88.540 99.445,89.278 99.194,90.107 99.085 C 90.936 98.975,91.909 98.642,92.268 98.343 C 93.355 97.441,178.941 97.050,265.115 97.554 M139.800 136.572 C 140.460 136.684,174.892 136.788,216.315 136.803 C 291.340 136.831,293.600 136.872,293.600 138.204 C 293.600 138.547,293.893 139.275,294.251 139.821 C 294.848 140.733,294.850 141.002,294.268 143.107 C 293.749 144.983,293.621 148.090,293.562 160.200 C 293.523 168.340,293.261 178.510,292.979 182.800 C 292.698 187.090,292.354 199.060,292.214 209.400 C 292.074 219.740,291.883 230.180,291.790 232.600 C 291.530 239.329,290.794 281.154,290.641 297.911 C 290.521 311.008,290.425 312.910,289.852 313.543 C 289.493 313.939,289.200 314.703,289.200 315.240 C 289.200 316.373,285.642 321.960,283.619 324.004 C 282.219 325.418,281.562 325.884,279.400 326.995 C 277.645 327.897,276.636 328.549,276.325 328.983 C 275.217 330.527,274.136 330.551,201.000 330.616 C 125.232 330.684,126.186 330.708,122.200 328.683 C 121.540 328.348,120.465 327.832,119.812 327.537 C 119.159 327.242,118.315 326.730,117.937 326.400 C 117.559 326.070,116.582 325.260,115.765 324.600 C 114.105 323.258,114.056 323.207,112.411 321.065 C 111.762 320.221,111.110 319.141,110.961 318.665 C 110.812 318.189,110.355 317.371,109.945 316.846 C 109.535 316.321,109.200 315.455,109.200 314.920 C 109.200 314.385,108.980 313.554,108.712 313.074 C 108.363 312.450,108.136 307.339,107.919 295.200 C 107.752 285.850,107.530 277.390,107.427 276.400 C 107.324 275.410,107.135 262.360,107.008 247.400 C 106.880 232.440,106.613 213.360,106.416 205.000 C 106.098 191.583,105.837 175.035,105.501 147.034 C 105.424 140.623,105.517 138.628,105.900 138.500 C 106.214 138.395,106.422 138.756,106.460 139.467 L 106.520 140.600 106.687 139.500 C 106.778 138.895,107.057 138.400,107.307 138.400 C 107.630 138.400,107.622 138.262,107.280 137.920 C 106.357 136.997,106.821 136.758,109.500 136.776 C 118.046 136.835,122.917 136.724,125.400 136.412 C 128.143 136.068,137.429 136.171,139.800 136.572 M139.400 155.814 C 138.740 156.117,137.886 156.372,137.503 156.382 C 136.636 156.404,134.800 157.960,134.800 158.672 C 134.800 158.962,134.622 159.200,134.405 159.200 C 133.660 159.200,132.889 161.888,132.614 165.442 C 132.171 171.181,132.355 299.715,132.808 300.168 C 133.023 300.383,133.200 300.877,133.200 301.266 C 133.200 302.781,136.415 305.122,138.893 305.410 C 141.555 305.720,145.200 305.314,145.200 304.708 C 145.200 304.479,145.650 303.875,146.200 303.365 C 146.750 302.855,147.200 302.262,147.200 302.048 C 147.200 301.833,147.515 301.342,147.900 300.957 C 148.912 299.946,149.216 163.084,148.211 160.967 C 147.875 160.258,147.600 159.506,147.600 159.293 C 147.600 158.331,145.867 156.812,144.483 156.561 C 143.667 156.414,142.514 156.047,141.920 155.747 C 141.326 155.446,140.786 155.215,140.720 155.232 C 140.654 155.250,140.060 155.512,139.400 155.814 M177.401 155.881 C 176.605 156.096,174.800 157.789,174.800 158.321 C 174.799 158.474,174.349 159.123,173.800 159.762 C 172.723 161.014,172.569 162.201,173.200 164.401 C 173.541 165.588,173.487 165.886,172.838 166.398 C 172.099 166.982,172.075 168.115,172.033 204.000 C 172.009 224.350,171.881 253.822,171.748 269.493 C 171.506 297.932,171.507 297.990,172.353 299.789 C 172.819 300.780,173.200 301.863,173.200 302.196 C 173.200 302.528,173.391 302.800,173.623 302.800 C 173.856 302.800,174.761 303.374,175.634 304.076 C 178.112 306.067,186.000 305.628,186.000 303.499 C 186.000 303.324,186.429 303.017,186.953 302.818 C 187.632 302.560,187.991 302.016,188.202 300.928 C 188.643 298.657,188.625 186.120,188.182 172.271 L 187.800 160.342 186.515 159.271 C 185.809 158.682,185.048 157.705,184.825 157.100 C 184.458 156.105,184.233 156.000,182.460 156.000 C 181.382 156.000,179.983 155.925,179.350 155.832 C 178.718 155.740,177.840 155.762,177.401 155.881 M215.668 156.504 C 214.755 156.969,213.889 157.719,213.745 158.173 C 213.601 158.626,213.195 159.208,212.842 159.465 C 211.100 160.736,210.194 294.748,211.892 299.981 C 214.301 307.404,224.684 307.553,227.134 300.200 C 228.201 296.996,227.530 161.504,226.439 159.992 C 226.040 159.438,225.588 158.592,225.436 158.112 C 224.673 155.708,219.056 154.784,215.668 156.504 M255.053 156.075 C 254.707 156.268,254.239 157.111,254.014 157.948 C 253.749 158.932,253.260 159.627,252.630 159.914 C 251.695 160.340,251.163 162.017,251.017 165.000 C 250.996 165.440,250.758 166.193,250.489 166.674 C 249.833 167.846,249.770 298.423,250.426 299.648 C 250.660 300.085,250.909 300.928,250.980 301.522 C 251.051 302.115,251.129 302.735,251.154 302.900 C 251.179 303.065,251.538 303.200,251.951 303.200 C 252.364 303.200,252.949 303.498,253.251 303.862 C 255.713 306.831,262.570 305.907,265.092 302.267 L 266.200 300.668 266.186 256.434 C 266.178 232.105,266.103 202.120,266.019 189.800 C 265.935 177.480,265.923 165.982,265.992 164.249 C 266.093 161.740,265.994 161.028,265.505 160.755 C 265.167 160.566,264.771 159.771,264.624 158.988 C 264.440 158.004,264.067 157.454,263.420 157.208 C 262.905 157.012,262.412 156.635,262.324 156.371 C 262.131 155.792,256.004 155.542,255.053 156.075 M265.200 164.800 C 265.200 165.434,265.020 166.064,264.800 166.200 C 264.558 166.350,264.400 165.796,264.400 164.800 C 264.400 163.804,264.558 163.250,264.800 163.400 C 265.020 163.536,265.200 164.166,265.200 164.800 M228.166 219.200 C 228.166 223.270,228.225 224.935,228.298 222.900 C 228.371 220.865,228.371 217.535,228.298 215.500 C 228.225 213.465,228.166 215.130,228.166 219.200 M3.293 343.600 C 3.293 344.370,3.375 344.685,3.476 344.300 C 3.576 343.915,3.576 343.285,3.476 342.900 C 3.375 342.515,3.293 342.830,3.293 343.600 M39.400 390.000 C 39.264 390.220,38.893 390.400,38.576 390.400 C 38.259 390.400,38.000 390.220,38.000 390.000 C 38.000 389.780,38.371 389.600,38.824 389.600 C 39.277 389.600,39.536 389.780,39.400 390.000 M337.200 397.600 C 337.200 397.820,336.739 398.000,336.176 398.000 C 335.596 398.000,335.260 397.827,335.400 397.600 C 335.536 397.380,335.997 397.200,336.424 397.200 C 336.851 397.200,337.200 397.380,337.200 397.600 M114.800 401.600 C 115.220 401.872,114.591 401.990,112.700 401.994 C 111.163 401.997,110.000 401.828,110.000 401.600 C 110.000 401.087,114.007 401.087,114.800 401.600 " stroke="none" fill="#f5272f" fill-rule="evenodd"></path><path id="path2" d="M68.200 2.819 C 45.553 4.180,23.731 17.437,11.936 37.000 C 8.666 42.423,3.943 53.920,4.027 56.251 C 4.064 57.264,4.477 56.285,5.400 53.000 C 5.771 51.680,6.300 50.060,6.577 49.400 C 6.854 48.740,7.318 47.570,7.610 46.800 C 7.901 46.030,8.475 44.913,8.885 44.318 C 9.294 43.722,9.991 42.417,10.433 41.418 C 10.876 40.418,11.463 39.600,11.738 39.600 C 12.014 39.600,12.477 38.942,12.768 38.138 C 13.059 37.334,13.985 36.021,14.827 35.220 C 15.669 34.420,16.542 33.278,16.769 32.682 C 17.242 31.437,18.400 31.220,18.400 32.376 C 18.400 33.163,18.966 33.712,19.930 33.858 C 20.221 33.902,21.610 32.782,23.016 31.369 C 24.422 29.956,25.719 28.800,25.899 28.800 C 26.078 28.800,27.148 27.920,28.276 26.844 C 30.855 24.384,37.386 19.736,41.025 17.772 C 42.551 16.948,44.340 15.981,45.000 15.623 C 51.754 11.963,59.959 9.660,69.200 8.833 C 77.198 8.117,324.012 8.258,331.437 8.982 C 356.740 11.452,380.543 30.611,388.110 54.600 C 390.516 62.227,390.388 57.200,390.619 153.000 C 390.936 284.372,391.107 313.834,391.573 317.000 C 391.799 318.540,391.988 321.353,391.992 323.250 C 392.006 329.150,393.367 332.024,393.721 326.900 C 393.867 324.787,393.876 324.817,393.829 327.269 C 393.800 328.737,393.897 329.864,394.043 329.773 C 394.397 329.554,394.772 331.027,394.864 333.000 C 394.922 334.252,395.002 334.035,395.231 332.000 C 395.403 330.470,395.473 332.857,395.399 337.800 C 395.331 342.420,395.101 346.650,394.887 347.200 C 394.419 348.408,393.810 352.695,394.153 352.368 C 394.287 352.241,394.798 350.441,395.288 348.368 L 396.179 344.600 396.296 215.314 C 396.421 75.419,396.297 63.164,394.678 56.600 C 393.352 51.226,391.137 45.051,389.512 42.200 C 389.262 41.760,388.411 40.199,387.622 38.731 C 386.833 37.263,385.713 35.530,385.134 34.879 C 384.554 34.229,383.883 33.329,383.643 32.879 C 383.402 32.430,382.979 31.823,382.703 31.531 C 382.426 31.238,381.545 30.189,380.745 29.199 C 376.790 24.307,368.252 16.710,363.400 13.766 C 357.320 10.077,346.830 5.491,342.800 4.759 C 341.810 4.579,339.290 4.030,337.200 3.540 L 333.400 2.648 203.200 2.589 C 131.590 2.557,70.840 2.661,68.200 2.819 M3.593 57.433 C 3.589 57.635,3.316 59.420,2.986 61.400 C 2.460 64.553,2.386 82.289,2.391 204.085 L 2.397 343.171 3.422 348.027 C 7.770 368.623,22.529 386.707,43.200 396.767 C 45.070 397.677,47.227 398.777,47.994 399.211 C 48.760 399.645,49.802 400.000,50.308 400.000 C 50.814 400.000,51.627 400.253,52.114 400.562 C 52.601 400.870,53.765 401.246,54.700 401.397 C 55.635 401.547,56.400 401.834,56.400 402.035 C 56.400 402.236,57.525 402.384,58.900 402.364 L 61.400 402.327 58.400 401.594 C 46.658 398.723,36.433 393.554,26.619 385.528 C 17.149 377.784,7.807 363.444,4.776 352.000 C 2.936 345.053,3.062 354.917,2.913 206.000 C 2.785 79.252,2.831 66.189,3.420 62.067 C 3.775 59.573,3.962 57.428,3.833 57.300 C 3.705 57.172,3.597 57.232,3.593 57.433 M196.900 63.100 C 201.905 63.163,210.095 63.163,215.100 63.100 C 220.105 63.036,216.010 62.984,206.000 62.984 C 195.990 62.984,191.895 63.036,196.900 63.100 M164.756 63.788 C 158.030 66.263,154.847 73.318,158.011 78.737 C 158.697 79.913,159.355 80.778,159.473 80.660 C 159.591 80.542,159.344 79.941,158.924 79.323 C 155.460 74.225,157.769 67.926,164.400 64.384 C 164.992 64.068,167.520 63.744,170.600 63.590 L 175.800 63.330 171.000 63.293 C 167.911 63.270,165.685 63.446,164.756 63.788 M231.600 63.745 C 238.887 65.932,241.923 70.476,240.422 76.949 C 240.224 77.801,240.203 78.341,240.376 78.149 C 241.533 76.862,241.517 69.600,240.357 69.600 C 240.161 69.600,240.000 69.366,240.000 69.079 C 240.000 67.317,234.470 63.635,231.400 63.352 L 229.800 63.205 231.600 63.745 M238.200 80.719 C 236.551 82.736,236.559 82.731,239.882 79.726 C 240.170 79.465,240.256 79.158,240.072 79.044 C 239.888 78.931,239.046 79.684,238.200 80.719 M161.400 82.400 C 162.231 83.060,163.110 83.599,163.355 83.599 C 163.600 83.598,163.235 83.252,162.544 82.831 C 161.853 82.410,161.167 81.870,161.020 81.632 C 160.873 81.395,160.559 81.200,160.321 81.200 C 160.084 81.200,160.569 81.740,161.400 82.400 M232.400 84.000 C 231.596 84.257,231.557 84.323,232.200 84.332 C 232.640 84.338,233.360 84.189,233.800 84.000 C 234.819 83.562,233.768 83.562,232.400 84.000 M115.331 98.300 C 126.952 98.359,145.852 98.359,157.331 98.300 C 168.809 98.241,159.300 98.193,136.200 98.193 C 113.100 98.193,103.709 98.241,115.331 98.300 M250.730 98.300 C 260.702 98.359,276.902 98.359,286.730 98.300 C 296.559 98.240,288.400 98.192,268.600 98.192 C 248.800 98.192,240.759 98.240,250.730 98.300 M91.600 98.800 C 90.836 99.294,91.658 99.294,93.200 98.800 L 94.200 98.480 93.200 98.446 C 92.650 98.427,91.930 98.587,91.600 98.800 M305.233 98.547 C 305.325 98.628,306.120 98.814,307.000 98.962 C 308.146 99.154,308.430 99.114,308.000 98.821 C 307.460 98.453,304.832 98.193,305.233 98.547 M88.000 100.235 C 81.182 104.117,78.597 113.259,82.865 118.400 L 83.695 119.400 83.083 118.369 C 79.136 111.713,81.889 103.780,89.457 100.002 C 90.306 99.578,90.730 99.227,90.400 99.221 C 90.070 99.215,88.990 99.671,88.000 100.235 M311.024 100.609 C 319.616 105.705,320.171 117.304,312.069 122.442 C 311.065 123.079,310.419 123.600,310.633 123.600 C 312.117 123.600,315.857 119.818,317.284 116.873 C 319.509 112.285,318.352 106.063,314.642 102.661 C 313.342 101.469,309.671 99.210,309.024 99.204 C 308.816 99.202,309.716 99.834,311.024 100.609 M84.601 120.734 C 85.260 121.468,86.160 122.255,86.600 122.483 C 87.040 122.711,87.220 122.740,87.000 122.548 C 86.780 122.355,85.880 121.568,85.001 120.799 L 83.402 119.400 84.601 120.734 M89.738 124.094 C 89.992 124.256,100.640 124.350,113.400 124.305 C 126.160 124.259,133.720 124.172,130.200 124.112 C 114.191 123.839,89.319 123.828,89.738 124.094 M186.500 124.300 C 208.885 124.357,245.515 124.357,267.900 124.300 C 290.285 124.243,271.970 124.196,227.200 124.196 C 182.430 124.196,164.115 124.243,186.500 124.300 M145.700 138.300 C 157.085 138.359,175.715 138.359,187.100 138.300 C 198.485 138.241,189.170 138.193,166.400 138.193 C 143.630 138.193,134.315 138.241,145.700 138.300 M106.896 157.300 L 106.992 176.200 107.100 157.621 C 107.183 143.372,107.324 138.969,107.704 138.727 C 108.055 138.505,107.995 138.410,107.500 138.406 C 106.842 138.400,106.806 139.528,106.896 157.300 M292.540 144.800 C 292.540 146.670,292.609 147.435,292.693 146.500 C 292.777 145.565,292.777 144.035,292.693 143.100 C 292.609 142.165,292.540 142.930,292.540 144.800 M292.109 154.800 C 292.109 155.790,292.187 156.195,292.282 155.700 C 292.378 155.205,292.378 154.395,292.282 153.900 C 292.187 153.405,292.109 153.810,292.109 154.800 M140.300 154.282 C 140.795 154.378,141.605 154.378,142.100 154.282 C 142.595 154.187,142.190 154.109,141.200 154.109 C 140.210 154.109,139.805 154.187,140.300 154.282 M179.300 154.287 C 179.905 154.378,180.895 154.378,181.500 154.287 C 182.105 154.195,181.610 154.120,180.400 154.120 C 179.190 154.120,178.695 154.195,179.300 154.287 M218.700 154.282 C 219.195 154.378,220.005 154.378,220.500 154.282 C 220.995 154.187,220.590 154.109,219.600 154.109 C 218.610 154.109,218.205 154.187,218.700 154.282 M257.700 154.287 C 258.305 154.378,259.295 154.378,259.900 154.287 C 260.505 154.195,260.010 154.120,258.800 154.120 C 257.590 154.120,257.095 154.195,257.700 154.287 M135.944 155.624 L 135.000 156.447 136.200 155.745 C 137.779 154.820,137.803 154.800,137.311 154.800 C 137.079 154.800,136.464 155.171,135.944 155.624 M145.000 155.052 C 145.220 155.245,146.120 156.032,146.999 156.801 L 148.598 158.200 147.399 156.866 C 146.740 156.132,145.840 155.345,145.400 155.117 C 144.960 154.889,144.780 154.860,145.000 155.052 M252.771 156.100 C 251.348 157.194,249.958 159.200,250.623 159.200 C 250.731 159.200,250.991 158.748,251.201 158.197 C 251.411 157.645,252.432 156.655,253.470 155.997 C 254.507 155.338,255.155 154.800,254.909 154.800 C 254.663 154.800,253.701 155.385,252.771 156.100 M263.000 155.445 C 263.440 155.786,264.106 156.286,264.480 156.556 C 264.854 156.826,265.616 157.846,266.175 158.823 C 266.733 159.801,267.192 160.420,267.193 160.200 C 267.199 159.358,265.340 156.789,264.022 155.816 C 262.550 154.730,261.660 154.407,263.000 155.445 M173.775 156.900 L 172.600 158.200 173.900 157.025 C 175.112 155.930,175.384 155.600,175.075 155.600 C 175.006 155.600,174.421 156.185,173.775 156.900 M185.600 155.706 C 185.600 155.786,186.152 156.379,186.826 157.024 C 187.500 157.670,187.942 157.929,187.809 157.599 C 187.591 157.062,185.600 155.355,185.600 155.706 M224.800 155.725 C 224.800 155.794,225.385 156.379,226.100 157.025 L 227.400 158.200 226.225 156.900 C 225.130 155.688,224.800 155.416,224.800 155.725 M212.929 156.900 C 212.484 157.395,211.976 158.070,211.801 158.400 C 211.463 159.037,211.555 158.950,213.176 157.100 C 213.706 156.495,214.049 156.000,213.939 156.000 C 213.829 156.000,213.375 156.405,212.929 156.900 M292.542 162.200 C 292.541 164.180,292.608 165.040,292.692 164.112 C 292.776 163.184,292.777 161.564,292.695 160.512 C 292.612 159.460,292.543 160.220,292.542 162.200 M249.849 160.215 C 249.712 160.573,249.625 161.616,249.656 162.533 C 249.709 164.101,249.729 164.070,249.992 162.000 C 250.290 159.655,250.251 159.168,249.849 160.215 M171.450 161.250 C 171.313 161.938,171.202 193.303,171.204 230.950 L 171.208 299.400 172.141 301.405 C 172.977 303.198,175.756 305.977,176.235 305.498 C 176.336 305.398,175.793 304.888,175.030 304.365 C 174.267 303.842,173.228 302.691,172.721 301.807 L 171.800 300.200 171.830 279.000 C 171.847 267.340,171.907 237.550,171.965 212.800 C 172.022 188.050,171.938 167.469,171.778 167.064 C 171.618 166.660,171.597 164.905,171.731 163.164 C 171.986 159.863,171.876 159.119,171.450 161.250 M189.104 173.112 C 189.161 180.311,189.258 187.820,189.321 189.800 C 189.383 191.780,189.459 186.200,189.489 177.400 C 189.519 168.600,189.421 161.091,189.272 160.712 C 189.122 160.334,189.047 165.914,189.104 173.112 M210.652 160.900 C 210.317 162.149,210.392 298.839,210.728 299.685 C 210.878 300.062,211.000 268.787,211.000 230.185 C 211.000 191.583,210.976 160.000,210.947 160.000 C 210.917 160.000,210.785 160.405,210.652 160.900 M228.326 230.000 C 228.427 268.390,228.575 299.875,228.655 299.967 C 228.890 300.237,228.711 216.141,228.415 187.000 C 228.265 172.260,228.225 191.610,228.326 230.000 M267.396 230.200 C 267.396 268.480,267.443 284.081,267.500 264.868 C 267.557 245.656,267.557 214.336,267.500 195.268 C 267.443 176.201,267.396 191.920,267.396 230.200 M149.796 230.400 C 149.796 268.570,149.843 284.185,149.900 265.100 C 149.957 246.015,149.957 214.785,149.900 195.700 C 149.843 176.615,149.796 192.230,149.796 230.400 M131.694 231.828 C 131.792 295.114,131.853 300.696,132.466 301.800 C 133.214 303.148,136.000 305.966,136.000 305.375 C 136.000 305.164,135.651 304.774,135.223 304.507 C 134.796 304.241,133.941 303.162,133.323 302.111 L 132.200 300.200 132.152 231.885 C 132.125 194.312,131.987 163.454,131.846 163.313 C 131.705 163.171,131.636 194.003,131.694 231.828 M249.597 217.400 C 249.246 307.868,249.034 302.082,252.800 304.732 L 254.200 305.717 252.734 304.359 C 251.928 303.611,251.028 302.550,250.734 302.000 C 250.297 301.182,250.163 288.776,249.997 233.800 L 249.794 166.600 249.597 217.400 M292.056 177.600 C 291.797 185.692,290.737 248.967,290.408 276.000 C 290.189 293.930,289.917 309.500,289.804 310.600 C 289.665 311.939,289.714 312.335,289.950 311.797 C 290.144 311.355,290.503 298.575,290.748 283.397 C 291.199 255.502,291.487 241.523,291.798 232.400 C 291.892 229.650,292.087 219.390,292.231 209.600 C 292.375 199.810,292.527 189.730,292.570 187.200 C 292.612 184.670,292.530 180.980,292.387 179.000 C 292.185 176.212,292.111 175.896,292.056 177.600 M107.367 199.400 C 107.367 203.580,107.426 205.236,107.498 203.079 C 107.571 200.923,107.570 197.503,107.498 195.479 C 107.425 193.456,107.366 195.220,107.367 199.400 M107.775 220.000 C 107.775 225.830,107.831 228.215,107.899 225.300 C 107.967 222.385,107.967 217.615,107.899 214.700 C 107.831 211.785,107.775 214.170,107.775 220.000 M108.159 242.400 C 108.159 245.590,108.221 246.895,108.297 245.300 C 108.373 243.705,108.373 241.095,108.297 239.500 C 108.221 237.905,108.159 239.210,108.159 242.400 M108.575 271.600 C 108.575 277.650,108.631 280.125,108.699 277.100 C 108.767 274.075,108.767 269.125,108.699 266.100 C 108.631 263.075,108.575 265.550,108.575 271.600 M108.965 291.200 C 108.965 295.050,109.025 296.625,109.098 294.700 C 109.171 292.775,109.171 289.625,109.098 287.700 C 109.025 285.775,108.965 287.350,108.965 291.200 M148.731 301.802 C 148.387 302.561,148.273 303.078,148.478 302.952 C 148.886 302.699,149.702 300.768,149.489 300.556 C 149.416 300.483,149.075 301.044,148.731 301.802 M211.474 301.485 C 211.715 302.492,215.298 306.001,216.083 305.999 C 216.367 305.998,216.052 305.663,215.383 305.255 C 214.216 304.543,212.725 302.951,211.731 301.354 C 211.296 300.655,211.277 300.664,211.474 301.485 M187.843 302.944 C 186.919 304.266,186.866 304.440,187.580 303.804 C 188.488 302.996,189.373 301.631,189.132 301.410 C 189.060 301.343,188.479 302.033,187.843 302.944 M226.889 303.117 L 225.979 304.600 226.989 303.478 C 227.545 302.860,228.000 302.185,228.000 301.978 C 228.000 301.390,227.865 301.528,226.889 303.117 M266.400 301.995 C 266.400 302.285,265.635 303.246,264.700 304.130 C 263.291 305.462,263.225 305.581,264.316 304.829 C 265.765 303.831,267.053 302.119,266.654 301.721 C 266.514 301.581,266.400 301.704,266.400 301.995 M137.200 305.980 C 138.199 306.320,140.682 306.532,140.367 306.251 C 140.275 306.169,139.300 305.999,138.200 305.872 C 136.851 305.716,136.526 305.751,137.200 305.980 M142.200 306.000 L 140.600 306.286 142.000 306.315 C 142.770 306.331,143.760 306.189,144.200 306.000 C 145.143 305.595,144.462 305.595,142.200 306.000 M177.200 305.994 C 177.530 306.211,178.235 306.391,178.767 306.394 C 180.051 306.402,179.725 306.175,178.000 305.858 C 177.015 305.677,176.778 305.718,177.200 305.994 M182.000 306.000 C 180.633 306.288,180.628 306.295,181.800 306.319 C 182.460 306.333,183.360 306.189,183.800 306.000 C 184.762 305.587,183.964 305.587,182.000 306.000 M221.800 306.000 C 221.296 306.217,221.222 306.344,221.600 306.344 C 221.930 306.344,222.560 306.189,223.000 306.000 C 223.504 305.783,223.578 305.656,223.200 305.656 C 222.870 305.656,222.240 305.811,221.800 306.000 M255.000 306.010 C 255.770 306.331,259.507 306.551,259.167 306.255 C 259.075 306.176,257.920 306.013,256.600 305.893 C 255.151 305.762,254.517 305.808,255.000 306.010 M260.600 306.000 C 259.493 306.282,259.477 306.309,260.400 306.347 C 260.950 306.369,261.670 306.213,262.000 306.000 C 262.681 305.560,262.329 305.560,260.600 306.000 M109.309 309.600 C 109.309 310.590,109.387 310.995,109.482 310.500 C 109.578 310.005,109.578 309.195,109.482 308.700 C 109.387 308.205,109.309 308.610,109.309 309.600 M109.606 312.433 C 109.609 312.965,109.789 313.670,110.006 314.000 C 110.282 314.422,110.323 314.185,110.142 313.200 C 109.825 311.475,109.598 311.149,109.606 312.433 M288.046 315.815 C 287.202 317.691,285.818 319.776,284.281 321.491 C 282.141 323.876,282.080 323.985,283.773 322.400 C 285.924 320.386,287.918 317.477,288.948 314.850 C 290.067 311.993,289.486 312.616,288.046 315.815 M112.764 319.533 C 112.980 319.936,113.471 320.521,113.855 320.833 C 114.287 321.184,114.190 320.904,113.601 320.100 C 112.551 318.665,112.157 318.398,112.764 319.533 M125.200 328.382 C 125.530 328.605,126.145 328.791,126.567 328.794 C 127.590 328.802,127.271 328.573,125.800 328.244 C 124.924 328.048,124.762 328.085,125.200 328.382 M272.200 328.400 C 271.696 328.617,271.622 328.744,272.000 328.744 C 272.330 328.744,272.960 328.589,273.400 328.400 C 273.904 328.183,273.978 328.056,273.600 328.056 C 273.270 328.056,272.640 328.211,272.200 328.400 M128.900 329.076 C 129.285 329.176,129.915 329.176,130.300 329.076 C 130.685 328.975,130.370 328.893,129.600 328.893 C 128.830 328.893,128.515 328.975,128.900 329.076 M259.321 329.098 C 261.477 329.171,264.897 329.170,266.921 329.098 C 268.944 329.025,267.180 328.966,263.000 328.967 C 258.820 328.967,257.164 329.026,259.321 329.098 M393.473 353.243 C 393.392 353.549,393.014 354.762,392.634 355.937 C 392.253 357.112,392.026 358.159,392.129 358.263 C 392.233 358.366,392.715 357.258,393.200 355.800 C 393.685 354.342,393.978 353.045,393.851 352.917 C 393.723 352.790,393.553 352.936,393.473 353.243 M391.223 359.739 C 389.967 363.043,386.160 369.643,382.882 374.200 C 375.852 383.971,364.324 392.906,352.103 398.056 C 350.950 398.542,350.095 399.029,350.204 399.138 C 350.898 399.832,362.770 393.440,367.400 389.880 C 368.500 389.035,370.300 387.656,371.400 386.817 C 374.551 384.413,381.230 377.320,383.762 373.689 C 387.465 368.378,392.344 359.410,391.816 358.883 C 391.710 358.776,391.443 359.162,391.223 359.739 M345.400 400.184 C 343.640 400.680,340.760 401.359,339.000 401.694 L 335.800 402.302 338.276 402.351 C 339.638 402.378,340.849 402.244,340.968 402.053 C 341.086 401.861,341.929 401.586,342.842 401.440 C 344.426 401.186,349.217 399.708,349.567 399.364 C 349.903 399.033,348.522 399.305,345.400 400.184 " stroke="none" fill="#f27b74" fill-rule="evenodd"></path><path id="path3" d="M228.200 62.838 C 227.229 63.054,227.400 63.114,229.100 63.153 C 230.255 63.179,231.200 63.131,231.200 63.047 C 231.200 62.715,229.336 62.585,228.200 62.838 M172.300 63.099 C 175.215 63.167,179.985 63.167,182.900 63.099 C 185.815 63.031,183.430 62.975,177.600 62.975 C 171.770 62.975,169.385 63.031,172.300 63.099 M2.899 203.500 C 2.827 305.025,2.919 342.400,3.244 342.400 C 3.524 342.400,3.616 342.951,3.494 343.900 C 3.319 345.250,3.744 348.432,4.307 350.000 C 4.426 350.330,4.595 351.029,4.682 351.554 C 5.382 355.741,9.667 364.781,14.090 371.400 C 24.069 386.337,40.188 397.285,58.547 401.595 C 61.940 402.392,73.600 402.752,73.600 402.060 C 73.600 401.337,72.556 400.976,70.500 400.988 C 69.346 400.994,68.401 400.840,68.400 400.645 C 68.400 400.449,66.823 400.379,64.896 400.489 C 62.969 400.599,60.944 400.521,60.396 400.316 C 59.848 400.111,58.418 399.760,57.217 399.536 C 56.016 399.312,54.671 398.875,54.228 398.564 C 53.785 398.254,52.787 397.994,52.011 397.986 C 51.235 397.978,50.150 397.714,49.600 397.400 C 49.050 397.086,48.176 396.822,47.658 396.814 C 47.140 396.806,46.181 396.350,45.527 395.800 C 44.873 395.250,43.857 394.682,43.269 394.539 C 42.681 394.395,41.771 393.945,41.246 393.539 C 40.721 393.133,39.978 392.800,39.595 392.800 C 39.212 392.800,38.663 392.517,38.376 392.171 C 38.089 391.825,37.211 391.188,36.427 390.756 C 35.642 390.325,34.280 389.428,33.400 388.764 C 32.520 388.099,31.215 387.188,30.500 386.738 C 29.785 386.289,29.200 385.705,29.200 385.441 C 29.200 385.177,28.615 384.748,27.900 384.488 C 26.610 384.019,23.200 381.026,23.200 380.362 C 23.200 380.171,22.750 379.902,22.200 379.764 C 21.650 379.626,21.200 379.278,21.200 378.991 C 21.200 378.704,20.570 377.820,19.800 377.027 C 19.030 376.234,18.400 375.453,18.400 375.290 C 18.400 375.128,17.588 374.096,16.596 372.997 C 15.603 371.899,14.684 370.595,14.552 370.100 C 14.421 369.605,14.146 369.200,13.942 369.200 C 13.738 369.200,13.236 368.416,12.825 367.458 C 12.414 366.500,11.790 365.605,11.439 365.470 C 11.088 365.335,10.800 364.805,10.800 364.293 C 10.800 363.780,10.630 363.189,10.422 362.980 C 9.709 362.264,6.869 356.423,6.595 355.111 C 6.445 354.390,5.911 352.540,5.410 351.000 C 4.908 349.460,4.370 346.670,4.214 344.800 C 4.057 342.930,3.765 341.202,3.565 340.960 C 3.348 340.698,3.160 284.692,3.100 202.560 L 2.999 64.600 2.899 203.500 M239.100 67.629 C 239.595 68.191,240.000 68.865,240.000 69.126 C 240.000 69.387,240.186 69.600,240.414 69.600 C 241.001 69.600,240.289 68.373,239.137 67.398 L 238.200 66.606 239.100 67.629 M156.805 77.657 C 156.802 78.239,157.067 78.817,157.393 78.942 C 157.720 79.067,157.886 79.433,157.762 79.754 C 157.639 80.075,157.893 80.641,158.327 81.011 C 158.761 81.382,159.714 82.231,160.446 82.899 C 163.326 85.530,161.213 85.380,198.400 85.600 C 236.522 85.826,234.921 85.947,238.053 82.600 C 239.709 80.831,239.463 80.086,237.726 81.611 C 234.364 84.563,236.869 84.381,199.371 84.391 C 159.748 84.402,161.396 84.639,157.836 78.400 C 156.911 76.778,156.809 76.705,156.805 77.657 M119.733 97.565 C 104.956 97.694,92.776 97.890,92.666 98.000 C 92.557 98.110,140.868 98.200,200.026 98.200 C 259.183 98.200,307.148 98.083,306.613 97.940 C 305.272 97.582,152.790 97.275,119.733 97.565 M308.000 98.631 C 308.000 98.901,310.078 99.656,310.276 99.457 C 310.367 99.367,309.892 99.101,309.220 98.867 C 308.549 98.633,308.000 98.527,308.000 98.631 M81.002 115.712 C 80.289 117.422,84.025 123.187,85.851 123.198 C 86.099 123.199,86.529 123.473,86.806 123.807 C 88.580 125.945,80.546 125.809,198.800 125.699 C 258.530 125.644,307.940 125.500,308.600 125.378 C 310.237 125.077,312.800 123.955,312.800 123.539 C 312.800 123.353,313.070 123.200,313.400 123.200 C 313.730 123.200,314.001 123.065,314.002 122.900 C 314.003 122.735,314.552 122.015,315.222 121.300 C 316.402 120.041,317.824 117.291,317.476 116.942 C 317.382 116.848,317.010 117.392,316.650 118.150 C 316.290 118.909,315.089 120.345,313.981 121.341 C 310.259 124.688,321.069 124.400,198.997 124.400 L 90.316 124.400 88.258 123.370 C 85.174 121.827,82.382 118.760,81.605 116.063 C 81.342 115.152,81.256 115.102,81.002 115.712 M125.400 136.412 C 122.917 136.724,118.046 136.835,109.500 136.776 C 106.793 136.758,106.273 137.064,107.409 138.008 C 107.891 138.407,111.290 138.452,123.632 138.220 C 132.219 138.058,173.781 138.059,215.992 138.222 L 292.740 138.517 292.554 159.866 C 292.447 172.117,292.521 181.487,292.727 181.855 C 293.253 182.795,293.464 177.285,293.555 160.200 C 293.620 148.107,293.750 144.981,294.268 143.107 C 294.850 141.002,294.848 140.733,294.251 139.821 C 293.893 139.275,293.600 138.547,293.600 138.204 C 293.600 136.872,291.340 136.831,216.315 136.803 C 174.892 136.788,140.460 136.684,139.800 136.572 C 137.429 136.171,128.143 136.068,125.400 136.412 M105.532 138.602 C 105.421 138.712,105.380 141.187,105.442 144.102 C 105.503 147.016,105.665 158.490,105.800 169.600 C 105.936 180.710,106.211 196.640,106.411 205.000 C 106.611 213.360,106.880 232.440,107.008 247.400 C 107.135 262.360,107.324 275.410,107.427 276.400 C 107.530 277.390,107.752 285.850,107.919 295.200 C 108.136 307.339,108.363 312.450,108.712 313.074 C 108.980 313.554,109.200 314.385,109.200 314.920 C 109.200 315.455,109.535 316.321,109.945 316.846 C 110.355 317.371,110.812 318.189,110.961 318.665 C 111.110 319.141,111.762 320.221,112.411 321.065 C 114.056 323.207,114.105 323.258,115.765 324.600 C 116.582 325.260,117.559 326.070,117.937 326.400 C 118.315 326.730,119.159 327.242,119.812 327.537 C 120.465 327.832,121.540 328.348,122.200 328.683 C 126.186 330.708,125.232 330.684,201.000 330.616 C 274.136 330.551,275.217 330.527,276.325 328.983 C 276.636 328.549,277.645 327.897,279.400 326.995 C 281.562 325.884,282.219 325.418,283.619 324.004 C 285.520 322.083,289.203 316.395,289.185 315.409 C 289.176 314.916,288.746 315.452,288.085 316.780 C 285.853 321.265,280.743 325.572,274.854 327.935 L 272.200 329.000 199.400 329.000 L 126.600 329.000 123.600 327.837 C 117.847 325.607,113.863 321.975,111.140 316.480 L 109.472 313.111 109.132 303.256 C 108.946 297.835,108.629 282.060,108.428 268.200 C 108.227 254.340,107.961 237.960,107.837 231.800 C 107.477 213.969,106.815 164.415,106.780 152.600 C 106.741 139.780,106.546 137.588,105.532 138.602 M137.618 155.031 C 132.587 157.213,132.000 158.679,132.000 169.051 C 132.000 173.606,132.067 177.258,132.148 177.167 C 132.229 177.075,132.396 173.670,132.518 169.600 C 132.738 162.306,133.301 159.200,134.405 159.200 C 134.622 159.200,134.800 158.962,134.800 158.672 C 134.800 157.987,136.628 156.400,137.416 156.400 C 137.751 156.400,138.665 156.133,139.446 155.807 C 140.652 155.303,141.026 155.295,141.933 155.753 C 142.520 156.050,143.667 156.414,144.483 156.561 C 145.867 156.812,147.600 158.331,147.600 159.293 C 147.600 159.506,147.875 160.258,148.211 160.967 C 149.216 163.084,148.912 299.946,147.900 300.957 C 147.515 301.342,147.200 301.833,147.200 302.048 C 147.200 302.262,146.750 302.855,146.200 303.365 C 145.650 303.875,145.200 304.483,145.200 304.717 C 145.200 306.452,137.119 305.611,135.051 303.661 C 134.151 302.812,133.675 302.535,133.914 303.000 C 136.349 307.725,146.363 306.896,148.772 301.770 C 150.036 299.080,150.086 161.721,148.824 159.246 C 146.702 155.088,141.766 153.231,137.618 155.031 M176.600 155.064 C 173.237 156.834,172.028 158.981,171.711 163.750 L 171.475 167.300 172.558 166.591 C 173.276 166.120,173.557 165.666,173.392 165.241 C 172.579 163.146,172.725 160.995,173.760 159.800 C 174.331 159.140,174.799 158.474,174.800 158.321 C 174.801 157.483,176.831 155.980,178.052 155.913 C 182.675 155.658,184.405 155.961,184.825 157.100 C 185.048 157.705,185.809 158.682,186.515 159.271 L 187.800 160.342 188.182 172.271 C 188.625 186.120,188.643 298.657,188.202 300.928 C 187.991 302.016,187.632 302.560,186.953 302.818 C 186.429 303.017,186.000 303.324,186.000 303.499 C 186.000 305.657,178.108 306.064,175.584 304.035 C 174.684 303.312,173.839 302.828,173.707 302.960 C 173.575 303.092,173.542 303.259,173.633 303.331 C 178.907 307.487,185.180 307.037,188.327 302.279 L 189.400 300.656 189.350 231.428 C 189.295 156.668,189.396 159.962,187.087 157.332 C 184.681 154.592,179.589 153.490,176.600 155.064 M217.200 154.667 C 210.749 156.864,210.792 156.649,210.861 185.800 C 210.896 200.462,211.039 208.399,211.229 206.200 C 211.400 204.220,211.557 194.860,211.578 185.400 C 211.621 165.599,211.886 160.162,212.842 159.465 C 213.195 159.208,213.602 158.623,213.747 158.167 C 214.785 154.898,224.401 154.853,225.436 158.112 C 225.588 158.592,226.040 159.438,226.439 159.992 C 227.530 161.504,228.201 296.996,227.134 300.200 C 225.369 305.496,218.478 307.437,214.428 303.777 C 212.532 302.064,211.839 301.967,213.425 303.637 C 217.533 307.961,225.398 306.870,227.705 301.657 C 228.721 299.359,228.415 161.484,227.389 159.044 C 225.964 155.658,220.803 153.441,217.200 154.667 M254.981 155.132 C 252.917 156.096,251.523 157.428,250.721 159.200 C 249.954 160.895,249.370 166.610,249.928 166.955 C 250.360 167.223,250.906 166.226,250.997 165.000 C 251.238 161.764,251.695 160.339,252.630 159.914 C 253.261 159.626,253.749 158.932,254.016 157.942 C 254.242 157.101,254.736 156.257,255.114 156.066 C 256.163 155.534,262.127 155.781,262.321 156.364 C 262.411 156.632,262.905 157.012,263.420 157.208 C 264.067 157.454,264.440 158.004,264.624 158.988 C 264.771 159.771,265.167 160.566,265.505 160.755 C 265.994 161.028,266.093 161.740,265.992 164.249 C 265.923 165.982,265.935 177.480,266.019 189.800 C 266.103 202.120,266.178 232.105,266.186 256.434 L 266.200 300.668 265.092 302.267 C 262.555 305.928,256.392 306.800,253.329 303.930 C 252.849 303.482,252.243 303.186,251.981 303.273 C 250.794 303.669,254.466 305.656,256.906 305.939 C 261.536 306.475,264.819 305.099,266.426 301.948 C 267.182 300.466,267.200 298.850,267.200 230.570 L 267.200 160.708 266.183 158.854 C 264.026 154.919,259.005 153.250,254.981 155.132 M264.400 164.800 C 264.400 165.796,264.558 166.350,264.800 166.200 C 265.020 166.064,265.200 165.434,265.200 164.800 C 265.200 164.166,265.020 163.536,264.800 163.400 C 264.558 163.250,264.400 163.804,264.400 164.800 M132.175 188.200 C 132.175 194.140,132.231 196.626,132.299 193.724 C 132.367 190.822,132.367 185.962,132.299 182.924 C 132.231 179.886,132.175 182.260,132.175 188.200 M210.920 228.400 C 210.920 229.610,210.995 230.105,211.087 229.500 C 211.178 228.895,211.178 227.905,211.087 227.300 C 210.995 226.695,210.920 227.190,210.920 228.400 M132.165 244.200 C 132.166 248.160,132.226 249.726,132.298 247.680 C 132.371 245.634,132.371 242.394,132.298 240.480 C 132.224 238.566,132.165 240.240,132.165 244.200 M210.986 261.200 C 210.986 272.970,211.037 277.785,211.100 271.900 C 211.162 266.015,211.162 256.385,211.100 250.500 C 211.037 244.615,210.986 249.430,210.986 261.200 M132.188 275.200 C 132.188 288.290,132.238 293.645,132.300 287.100 C 132.361 280.555,132.361 269.845,132.300 263.300 C 132.238 256.755,132.188 262.110,132.188 275.200 M210.953 291.800 C 210.953 294.440,211.018 295.468,211.097 294.084 C 211.175 292.701,211.174 290.541,211.095 289.284 C 211.016 288.028,210.952 289.160,210.953 291.800 M211.009 298.527 C 211.109 299.586,211.464 300.841,211.796 301.316 C 212.559 302.405,212.572 301.666,211.824 299.708 C 211.507 298.879,211.153 297.840,211.037 297.400 C 210.920 296.960,210.908 297.467,211.009 298.527 M171.992 299.971 C 172.392 301.368,173.171 302.785,173.188 302.149 C 173.202 301.606,172.059 298.800,171.823 298.800 C 171.731 298.800,171.807 299.327,171.992 299.971 M250.230 300.199 C 250.475 301.451,250.688 301.848,250.963 301.567 C 251.053 301.475,250.872 300.860,250.561 300.200 L 249.995 299.000 250.230 300.199 M290.540 306.400 C 290.540 308.270,290.609 309.035,290.693 308.100 C 290.777 307.165,290.777 305.635,290.693 304.700 C 290.609 303.765,290.540 304.530,290.540 306.400 M289.716 312.570 C 289.279 313.986,289.293 314.079,289.851 313.521 C 290.191 313.181,290.409 312.474,290.335 311.951 C 290.221 311.150,290.124 311.248,289.716 312.570 M393.496 351.333 C 393.033 352.479,393.116 353.444,393.634 352.926 C 393.872 352.688,394.006 352.067,393.930 351.546 C 393.809 350.713,393.757 350.688,393.496 351.333 M391.098 359.195 C 390.157 361.367,390.240 361.785,391.222 359.817 C 391.656 358.946,391.963 358.088,391.903 357.910 C 391.844 357.731,391.481 358.310,391.098 359.195 M388.990 363.458 C 388.560 364.306,387.915 365.360,387.557 365.800 C 387.198 366.240,386.782 367.140,386.632 367.800 C 386.462 368.546,387.050 367.797,388.186 365.820 C 389.191 364.071,389.959 362.477,389.893 362.278 C 389.826 362.078,389.420 362.609,388.990 363.458 M385.400 369.600 C 385.260 370.040,384.978 370.400,384.773 370.400 C 384.568 370.400,384.400 370.597,384.400 370.837 C 384.400 371.807,375.883 381.600,375.039 381.600 C 374.879 381.600,374.302 382.130,373.757 382.779 C 373.211 383.427,372.440 384.060,372.043 384.186 C 371.646 384.312,371.118 384.862,370.869 385.408 C 370.613 385.970,370.079 386.400,369.637 386.400 C 369.208 386.400,368.587 386.670,368.257 387.000 C 367.927 387.330,367.464 387.600,367.229 387.600 C 366.993 387.600,366.800 387.870,366.800 388.200 C 366.800 388.530,366.602 388.800,366.360 388.800 C 365.532 388.800,363.200 390.091,363.200 390.549 C 363.200 391.499,358.332 393.982,356.300 394.068 C 355.347 394.108,354.800 394.326,354.800 394.666 C 354.800 394.960,354.449 395.200,354.020 395.200 C 353.591 395.200,353.096 395.425,352.920 395.700 C 352.141 396.917,348.847 398.115,346.981 397.859 C 345.822 397.701,345.248 397.753,345.403 398.005 C 345.537 398.222,345.502 398.409,345.324 398.419 C 342.419 398.591,340.532 398.943,339.000 399.600 C 336.800 400.543,335.086 400.626,334.419 399.822 C 334.155 399.505,333.278 399.190,332.470 399.122 C 331.555 399.046,331.038 398.811,331.100 398.500 C 331.248 397.762,327.829 397.861,326.326 398.638 C 325.409 399.112,324.873 399.172,324.246 398.870 C 323.780 398.646,322.346 398.355,321.058 398.223 C 319.770 398.091,318.387 397.807,317.984 397.592 C 316.603 396.852,313.950 397.106,313.716 398.000 C 313.444 399.038,308.933 399.212,308.545 398.200 C 308.153 397.180,303.600 397.357,303.600 398.392 C 303.600 399.673,300.195 399.746,294.585 398.586 C 293.554 398.372,293.285 398.493,292.807 399.386 C 292.230 400.465,288.521 400.581,287.420 399.554 C 286.884 399.055,280.277 399.121,274.600 399.684 C 269.136 400.225,267.535 400.243,264.307 399.803 C 262.817 399.599,261.835 399.639,261.500 399.917 C 261.217 400.152,259.999 400.343,258.793 400.341 C 257.587 400.340,255.250 400.352,253.600 400.368 C 251.950 400.384,249.610 400.385,248.400 400.371 C 232.278 400.172,229.600 400.383,229.600 401.849 C 229.600 402.735,333.584 402.662,338.400 401.773 C 351.198 399.409,360.182 395.254,370.800 386.785 C 376.674 382.100,386.000 371.383,386.000 369.318 C 386.000 368.545,385.688 368.692,385.400 369.600 M38.000 390.000 C 38.000 390.220,38.259 390.400,38.576 390.400 C 38.893 390.400,39.264 390.220,39.400 390.000 C 39.536 389.780,39.277 389.600,38.824 389.600 C 38.371 389.600,38.000 389.780,38.000 390.000 M335.400 397.600 C 335.260 397.827,335.596 398.000,336.176 398.000 C 336.739 398.000,337.200 397.820,337.200 397.600 C 337.200 397.380,336.851 397.200,336.424 397.200 C 335.997 397.200,335.536 397.380,335.400 397.600 M164.000 399.557 C 164.000 400.287,163.178 400.455,154.700 401.453 C 148.689 402.162,155.365 402.400,181.200 402.400 C 200.443 402.400,209.600 402.267,209.600 401.987 C 209.600 401.286,208.948 401.237,196.400 400.998 C 173.208 400.557,166.603 400.243,167.000 399.600 C 167.149 399.358,166.604 399.200,165.624 399.200 C 164.731 399.200,164.000 399.361,164.000 399.557 M219.600 401.600 C 219.600 402.325,219.867 402.400,222.443 402.400 C 224.871 402.400,225.250 402.308,225.043 401.767 C 224.909 401.419,224.800 401.059,224.800 400.967 C 224.800 400.875,223.630 400.800,222.200 400.800 C 219.867 400.800,219.600 400.882,219.600 401.600 M78.267 401.467 C 77.563 402.171,78.246 402.400,81.049 402.400 C 83.714 402.400,84.035 402.324,83.600 401.800 C 83.090 401.186,78.815 400.919,78.267 401.467 M110.000 401.600 C 110.000 401.828,111.163 401.997,112.700 401.994 C 114.591 401.990,115.220 401.872,114.800 401.600 C 114.007 401.087,110.000 401.087,110.000 401.600 M148.905 402.287 C 149.514 402.379,150.414 402.377,150.905 402.282 C 151.397 402.187,150.900 402.111,149.800 402.114 C 148.700 402.117,148.297 402.195,148.905 402.287 " stroke="none" fill="#bc2435" fill-rule="evenodd"></path><path id="path4" d="M68.600 2.010 C 63.677 2.317,59.076 3.158,51.600 5.115 C 44.721 6.917,34.384 12.714,26.752 19.052 C 16.983 27.163,8.816 39.165,5.032 50.971 C 3.893 54.524,4.410 53.884,5.816 50.000 C 14.259 26.675,33.910 9.410,57.800 4.328 C 66.945 2.383,68.090 2.368,205.200 2.513 L 333.400 2.648 337.200 3.540 C 339.290 4.031,341.810 4.579,342.800 4.759 C 346.830 5.491,357.320 10.077,363.400 13.766 C 368.252 16.710,376.790 24.307,380.745 29.199 C 381.545 30.189,382.426 31.238,382.703 31.531 C 382.979 31.823,383.402 32.430,383.643 32.879 C 383.883 33.329,384.554 34.229,385.134 34.879 C 385.713 35.530,386.833 37.263,387.622 38.731 C 388.411 40.199,389.262 41.760,389.512 42.200 C 393.937 49.963,395.582 57.806,396.038 73.314 C 396.462 87.724,396.313 343.917,395.879 345.800 L 395.603 347.000 396.099 345.800 C 396.489 344.854,396.595 314.912,396.597 204.200 C 396.600 59.776,396.608 60.627,395.163 55.800 C 394.966 55.140,394.461 53.430,394.041 52.000 C 388.392 32.757,370.253 13.350,351.933 6.950 C 350.331 6.390,348.722 5.772,348.357 5.577 C 347.423 5.077,340.450 3.294,336.400 2.520 C 332.722 1.816,79.432 1.334,68.600 2.010 M3.600 56.200 C 3.342 57.445,3.210 58.543,3.308 58.641 C 3.406 58.739,3.691 57.795,3.943 56.543 C 4.194 55.291,4.326 54.192,4.235 54.102 C 4.144 54.011,3.858 54.955,3.600 56.200 M2.676 60.010 C 2.530 60.555,2.430 61.720,2.452 62.600 C 2.491 64.108,2.514 64.074,2.855 62.023 C 3.239 59.707,3.118 58.355,2.676 60.010 M189.100 63.500 C 196.635 63.561,208.965 63.561,216.500 63.500 C 224.035 63.439,217.870 63.389,202.800 63.389 C 187.730 63.389,181.565 63.439,189.100 63.500 M167.300 63.876 C 167.685 63.976,168.315 63.976,168.700 63.876 C 169.085 63.775,168.770 63.693,168.000 63.693 C 167.230 63.693,166.915 63.775,167.300 63.876 M163.900 64.629 C 163.295 64.957,162.800 65.316,162.800 65.427 C 162.800 65.538,163.194 65.417,163.677 65.159 C 164.159 64.901,165.014 64.550,165.577 64.379 C 166.377 64.136,166.426 64.065,165.800 64.050 C 165.360 64.040,164.505 64.301,163.900 64.629 M235.844 65.846 C 236.700 66.421,237.625 67.073,237.900 67.295 C 238.175 67.516,238.400 67.601,238.400 67.484 C 238.400 67.167,235.106 64.800,234.665 64.800 C 234.458 64.800,234.988 65.271,235.844 65.846 M160.845 66.758 C 159.254 68.244,157.201 72.578,157.200 74.451 C 157.200 75.812,158.169 78.800,158.611 78.800 C 158.721 78.800,158.538 78.148,158.205 77.351 C 156.946 74.337,158.126 70.165,161.105 67.100 C 162.821 65.333,162.634 65.086,160.845 66.758 M1.860 69.661 C 1.717 71.675,1.600 75.866,1.600 78.973 C 1.600 84.165,1.535 84.670,0.800 85.200 C -0.211 85.929,-0.499 390.800,0.511 390.800 C 1.243 390.800,2.400 392.269,2.400 393.199 C 2.400 393.633,2.972 394.918,3.672 396.056 C 4.553 397.488,4.999 398.780,5.122 400.262 L 5.299 402.400 30.850 402.400 C 54.569 402.400,59.615 402.188,54.700 401.397 C 53.765 401.246,52.601 400.870,52.114 400.562 C 51.627 400.253,50.814 400.000,50.308 400.000 C 49.802 400.000,48.760 399.645,47.994 399.211 C 47.227 398.777,45.070 397.677,43.200 396.767 C 22.530 386.707,7.770 368.623,3.422 348.028 L 2.397 343.172 2.381 204.586 C 2.372 128.364,2.310 66.000,2.243 66.000 C 2.175 66.000,2.003 67.648,1.860 69.661 M239.328 69.572 C 239.801 70.437,240.244 71.089,240.312 71.022 C 240.518 70.815,239.072 68.000,238.759 68.000 C 238.598 68.000,238.854 68.708,239.328 69.572 M240.524 73.800 C 240.526 75.120,240.601 75.612,240.690 74.893 C 240.779 74.174,240.777 73.094,240.686 72.493 C 240.595 71.892,240.522 72.480,240.524 73.800 M239.235 78.617 C 238.280 80.416,236.337 82.215,234.400 83.093 C 233.722 83.400,233.615 83.555,234.069 83.573 C 235.594 83.635,240.744 78.433,240.345 77.235 C 240.265 76.995,239.765 77.617,239.235 78.617 M160.400 81.234 C 161.839 82.408,163.738 83.597,164.178 83.599 C 164.386 83.599,163.733 83.078,162.726 82.439 C 161.719 81.801,160.773 81.081,160.624 80.839 C 160.475 80.598,160.138 80.404,159.876 80.409 C 159.614 80.414,159.850 80.785,160.400 81.234 M183.330 84.300 C 192.311 84.360,206.891 84.360,215.730 84.300 C 224.568 84.240,217.220 84.191,199.400 84.191 C 181.580 84.191,174.348 84.240,183.330 84.300 M146.700 98.700 C 175.795 98.757,223.405 98.757,252.500 98.700 C 281.595 98.643,257.790 98.597,199.600 98.597 C 141.410 98.597,117.605 98.643,146.700 98.700 M308.000 99.487 C 308.330 99.610,309.275 100.050,310.100 100.464 C 310.925 100.878,311.600 101.126,311.600 101.016 C 311.600 100.702,308.491 99.196,307.916 99.232 C 307.575 99.252,307.604 99.339,308.000 99.487 M85.478 102.613 C 84.860 103.156,84.514 103.600,84.708 103.600 C 84.902 103.600,85.483 103.150,86.000 102.600 C 87.195 101.328,86.931 101.334,85.478 102.613 M313.824 102.782 C 314.791 104.189,316.399 106.038,316.388 105.731 C 316.381 105.549,315.706 104.672,314.888 103.782 C 314.070 102.893,313.591 102.443,313.824 102.782 M83.196 105.300 C 82.760 106.015,82.402 106.765,82.401 106.967 C 82.400 107.423,82.456 107.348,83.514 105.500 C 84.566 103.663,84.297 103.494,83.196 105.300 M81.314 111.800 C 81.317 112.900,81.395 113.303,81.487 112.695 C 81.579 112.086,81.577 111.186,81.482 110.695 C 81.387 110.203,81.311 110.700,81.314 111.800 M315.394 118.700 C 315.010 119.305,314.225 120.340,313.648 121.000 L 312.600 122.200 313.803 121.118 C 314.911 120.122,316.678 117.600,316.269 117.600 C 316.171 117.600,315.778 118.095,315.394 118.700 M83.584 119.171 C 84.499 120.880,89.985 124.549,90.642 123.891 C 90.739 123.795,89.998 123.403,88.997 123.020 C 87.995 122.638,86.281 121.453,85.188 120.388 C 84.094 119.323,83.373 118.775,83.584 119.171 M311.416 122.479 C 310.984 122.730,309.904 123.162,309.016 123.440 C 308.127 123.719,307.760 123.955,308.200 123.964 C 309.048 123.984,312.400 122.591,312.400 122.220 C 312.400 121.929,312.334 121.946,311.416 122.479 M138.700 124.296 C 140.075 124.374,142.325 124.374,143.700 124.296 C 145.075 124.218,143.950 124.154,141.200 124.154 C 138.450 124.154,137.325 124.218,138.700 124.296 M107.700 138.665 C 107.425 138.776,107.200 139.156,107.200 139.510 C 107.200 140.081,107.256 140.077,107.700 139.474 C 108.168 138.838,114.056 138.801,200.152 138.897 L 292.105 139.000 292.108 146.200 L 292.112 153.400 292.393 146.400 C 292.566 142.065,292.527 139.210,292.288 138.900 C 291.902 138.400,108.934 138.167,107.700 138.665 M107.350 154.600 C 107.351 157.020,107.416 157.958,107.496 156.685 C 107.576 155.412,107.575 153.432,107.494 152.285 C 107.414 151.138,107.349 152.180,107.350 154.600 M135.908 155.212 C 134.902 155.878,133.836 156.730,133.539 157.104 C 133.243 157.478,133.773 157.182,134.717 156.445 C 135.662 155.708,137.192 154.869,138.117 154.579 C 139.441 154.166,139.580 154.048,138.769 154.027 C 138.201 154.012,136.914 154.545,135.908 155.212 M144.192 154.639 C 145.068 154.960,146.418 155.802,147.191 156.511 L 148.598 157.800 147.399 156.464 C 146.060 154.973,144.407 153.986,143.320 154.028 C 142.924 154.044,143.317 154.319,144.192 154.639 M175.221 155.184 C 173.589 156.267,171.582 158.839,171.620 159.800 C 171.628 160.020,171.988 159.532,172.419 158.716 C 173.321 157.008,175.407 155.219,177.296 154.534 C 178.193 154.208,178.351 154.052,177.800 154.032 C 177.360 154.016,176.199 154.534,175.221 155.184 M183.000 154.400 C 184.101 154.873,184.492 154.873,184.200 154.400 C 184.064 154.180,183.558 154.013,183.076 154.028 C 182.231 154.055,182.229 154.069,183.000 154.400 M215.400 154.664 C 213.230 155.805,210.749 158.631,210.818 159.880 C 210.827 160.056,211.187 159.535,211.616 158.721 C 212.526 157.000,214.569 155.331,216.699 154.571 C 217.550 154.267,217.854 154.034,217.400 154.034 C 216.960 154.033,216.060 154.316,215.400 154.664 M222.509 154.496 C 224.669 155.218,226.766 157.041,227.634 158.951 C 228.045 159.858,228.386 160.312,228.391 159.959 C 228.416 158.150,224.669 154.553,222.398 154.205 L 221.000 153.991 222.509 154.496 M254.100 154.698 C 253.385 155.054,252.800 155.515,252.800 155.722 C 252.800 155.929,253.044 155.896,253.342 155.648 C 253.640 155.401,254.585 154.941,255.442 154.627 C 256.319 154.306,256.650 154.055,256.200 154.054 C 255.760 154.052,254.815 154.342,254.100 154.698 M262.218 154.777 C 264.373 155.737,266.187 157.612,266.975 159.696 C 267.687 161.577,267.779 299.682,267.070 301.400 L 266.740 302.200 267.270 301.400 C 268.163 300.053,268.261 162.037,267.371 159.684 C 266.289 156.825,263.078 153.921,261.116 154.028 C 260.832 154.044,261.328 154.381,262.218 154.777 M185.800 155.766 C 186.460 156.295,187.070 156.659,187.157 156.574 C 187.373 156.362,185.494 154.829,185.000 154.815 C 184.780 154.809,185.140 155.237,185.800 155.766 M292.173 166.000 C 292.173 171.390,292.230 173.595,292.299 170.900 C 292.368 168.205,292.368 163.795,292.299 161.100 C 292.230 158.405,292.173 160.610,292.173 166.000 M188.525 159.159 C 189.006 160.237,189.456 160.970,189.523 160.789 C 189.652 160.446,188.109 157.200,187.817 157.200 C 187.726 157.200,188.045 158.082,188.525 159.159 M250.011 158.971 C 249.417 160.534,249.534 160.780,250.247 159.465 C 250.586 158.840,250.764 158.230,250.642 158.109 C 250.521 157.988,250.237 158.376,250.011 158.971 M228.588 184.200 C 228.588 197.180,228.638 202.432,228.700 195.871 C 228.762 189.311,228.761 178.691,228.700 172.271 C 228.638 165.852,228.587 171.220,228.588 184.200 M249.119 167.500 C 249.053 171.185,249.091 195.350,249.202 221.200 L 249.405 268.200 249.502 214.500 C 249.556 184.965,249.518 160.800,249.419 160.800 C 249.319 160.800,249.184 163.815,249.119 167.500 M189.796 230.800 C 189.796 268.970,189.843 284.585,189.900 265.500 C 189.957 246.415,189.957 215.185,189.900 196.100 C 189.843 177.015,189.796 192.630,189.796 230.800 M150.093 230.600 C 150.036 268.220,149.896 299.450,149.783 300.000 L 149.577 301.000 149.990 300.062 C 150.269 299.427,150.369 277.024,150.300 230.662 L 150.198 162.200 150.093 230.600 M170.920 165.600 C 170.920 166.810,170.995 167.305,171.087 166.700 C 171.178 166.095,171.178 165.105,171.087 164.500 C 170.995 163.895,170.920 164.390,170.920 165.600 M107.380 178.600 C 107.380 186.080,107.434 189.083,107.499 185.274 C 107.565 181.465,107.565 175.345,107.499 171.674 C 107.433 168.003,107.379 171.120,107.380 178.600 M131.389 193.800 C 131.389 209.200,131.439 215.442,131.500 207.671 C 131.561 199.900,131.561 187.300,131.500 179.671 C 131.439 172.042,131.389 178.400,131.389 193.800 M170.957 173.200 C 170.957 176.170,171.020 177.385,171.097 175.900 C 171.174 174.415,171.174 171.985,171.097 170.500 C 171.020 169.015,170.957 170.230,170.957 173.200 M291.598 182.000 C 291.487 185.190,291.442 187.875,291.498 187.967 C 291.894 188.615,292.008 186.956,291.911 181.955 L 291.800 176.200 291.598 182.000 M291.013 210.881 C 290.858 221.286,290.791 230.970,290.865 232.400 C 290.939 233.830,291.152 225.402,291.338 213.672 C 291.524 201.941,291.591 192.257,291.486 192.153 C 291.381 192.048,291.168 200.476,291.013 210.881 M107.766 202.400 C 107.766 206.470,107.825 208.135,107.898 206.100 C 107.971 204.065,107.971 200.735,107.898 198.700 C 107.825 196.665,107.766 198.330,107.766 202.400 M108.173 227.200 C 108.173 232.590,108.230 234.795,108.299 232.100 C 108.368 229.405,108.368 224.995,108.299 222.300 C 108.230 219.605,108.173 221.810,108.173 227.200 M131.329 267.000 C 131.302 284.600,131.397 299.417,131.540 299.926 C 131.779 300.777,131.738 255.517,131.487 241.200 C 131.427 237.790,131.356 249.400,131.329 267.000 M290.570 247.400 C 290.571 252.240,290.629 254.165,290.699 251.678 C 290.769 249.191,290.769 245.231,290.698 242.878 C 290.628 240.525,290.570 242.560,290.570 247.400 M108.572 251.600 C 108.572 256.770,108.629 258.885,108.699 256.300 C 108.768 253.715,108.768 249.485,108.699 246.900 C 108.629 244.315,108.572 246.430,108.572 251.600 M210.187 275.200 C 210.187 287.850,210.238 293.025,210.300 286.700 C 210.362 280.375,210.362 270.025,210.300 263.700 C 210.238 257.375,210.187 262.550,210.187 275.200 M290.184 275.600 C 290.184 285.170,290.236 289.085,290.300 284.300 C 290.363 279.515,290.363 271.685,290.300 266.900 C 290.236 262.115,290.184 266.030,290.184 275.600 M108.971 275.600 C 108.971 280.550,109.028 282.575,109.099 280.100 C 109.169 277.625,109.169 273.575,109.099 271.100 C 109.028 268.625,108.971 270.650,108.971 275.600 M248.942 276.200 C 248.941 278.180,249.008 279.040,249.092 278.112 C 249.176 277.184,249.177 275.564,249.095 274.512 C 249.012 273.460,248.943 274.220,248.942 276.200 M249.346 291.400 C 249.347 293.600,249.414 294.449,249.495 293.287 C 249.576 292.124,249.576 290.324,249.493 289.287 C 249.411 288.249,249.345 289.200,249.346 291.400 M109.370 299.600 C 109.370 304.330,109.428 306.265,109.498 303.900 C 109.569 301.535,109.569 297.665,109.498 295.300 C 109.428 292.935,109.370 294.870,109.370 299.600 M249.247 298.713 C 249.201 299.993,250.126 302.800,250.594 302.800 C 250.723 302.800,250.624 302.418,250.374 301.951 C 250.124 301.485,249.779 300.270,249.607 299.251 C 249.340 297.674,249.287 297.594,249.247 298.713 M210.430 299.600 C 210.428 300.176,211.557 302.466,211.586 301.946 C 211.594 301.806,211.337 301.086,211.016 300.346 C 210.694 299.606,210.431 299.270,210.430 299.600 M171.210 300.000 C 171.219 301.878,174.642 305.648,176.800 306.156 L 177.800 306.392 176.786 305.896 C 174.527 304.790,173.060 303.379,172.158 301.440 C 171.635 300.318,171.209 299.670,171.210 300.000 M132.400 302.252 C 132.400 302.464,133.165 303.349,134.100 304.219 L 135.800 305.800 134.200 304.006 C 133.320 303.020,132.555 302.135,132.500 302.039 C 132.445 301.944,132.400 302.040,132.400 302.252 M147.381 304.049 C 146.377 305.097,146.118 305.534,146.672 305.250 C 147.418 304.866,149.527 302.400,149.108 302.400 C 149.028 302.400,148.251 303.142,147.381 304.049 M213.000 303.947 C 214.603 305.696,216.551 306.823,217.887 306.773 C 218.279 306.759,217.808 306.500,216.840 306.198 C 215.854 305.890,214.271 304.890,213.240 303.925 L 211.401 302.200 213.000 303.947 M186.255 304.641 C 185.185 305.389,184.483 306.000,184.695 306.000 C 185.129 306.000,188.400 303.703,188.400 303.397 C 188.400 303.134,188.471 303.093,186.255 304.641 M252.343 304.700 C 253.108 305.415,253.923 306.000,254.156 306.000 C 254.388 306.000,254.133 305.702,253.589 305.338 C 253.045 304.973,252.230 304.388,251.777 304.038 C 251.324 303.687,251.579 303.985,252.343 304.700 M264.600 304.650 C 263.881 305.262,263.734 305.505,264.233 305.257 C 264.966 304.893,266.341 303.576,265.949 303.614 C 265.867 303.622,265.260 304.088,264.600 304.650 M221.400 306.400 C 220.293 306.682,220.277 306.709,221.200 306.747 C 221.750 306.769,222.470 306.613,222.800 306.400 C 223.481 305.960,223.129 305.960,221.400 306.400 M139.300 306.687 C 139.905 306.778,140.895 306.778,141.500 306.687 C 142.105 306.595,141.610 306.520,140.400 306.520 C 139.190 306.520,138.695 306.595,139.300 306.687 M179.107 306.690 C 179.826 306.779,180.906 306.777,181.507 306.686 C 182.108 306.595,181.520 306.522,180.200 306.524 C 178.880 306.526,178.388 306.601,179.107 306.690 M257.500 306.689 C 258.215 306.778,259.385 306.778,260.100 306.689 C 260.815 306.601,260.230 306.528,258.800 306.528 C 257.370 306.528,256.785 306.601,257.500 306.689 M286.439 318.224 C 285.977 319.007,285.780 319.536,286.002 319.399 C 286.436 319.131,287.734 316.800,287.450 316.800 C 287.356 316.800,286.901 317.441,286.439 318.224 M283.200 322.045 C 282.210 323.114,281.130 324.085,280.800 324.201 C 280.470 324.318,279.750 324.782,279.200 325.234 C 278.326 325.951,278.414 325.938,279.903 325.127 C 281.547 324.233,286.173 319.948,285.386 320.050 C 285.174 320.077,284.190 320.975,283.200 322.045 M115.400 322.400 C 116.032 323.060,116.682 323.600,116.844 323.600 C 117.006 323.600,116.598 323.060,115.938 322.400 C 115.278 321.740,114.629 321.200,114.494 321.200 C 114.360 321.200,114.768 321.740,115.400 322.400 M119.200 325.397 C 119.200 325.668,122.449 327.284,122.630 327.103 C 122.714 327.019,121.976 326.559,120.991 326.081 C 120.006 325.602,119.200 325.294,119.200 325.397 M275.600 327.000 C 275.050 327.314,274.780 327.572,275.000 327.572 C 275.220 327.572,275.850 327.314,276.400 327.000 C 276.950 326.686,277.220 326.428,277.000 326.428 C 276.780 326.428,276.150 326.686,275.600 327.000 M129.200 328.860 C 131.990 329.191,250.267 329.179,262.600 328.847 C 267.660 328.711,239.220 328.600,199.400 328.600 C 159.580 328.600,127.990 328.717,129.200 328.860 M394.676 350.550 C 394.279 352.257,393.848 353.956,393.718 354.326 C 393.562 354.772,393.616 354.865,393.878 354.600 C 394.415 354.057,395.705 349.040,395.535 348.156 C 395.460 347.767,395.073 348.844,394.676 350.550 M392.045 358.749 C 388.155 368.660,379.147 380.906,371.400 386.817 C 370.300 387.656,368.500 389.035,367.400 389.880 C 360.717 395.019,349.238 400.417,342.807 401.445 C 338.307 402.165,342.266 402.400,358.879 402.400 L 377.005 402.400 377.579 401.103 C 377.895 400.389,378.137 399.223,378.116 398.511 C 378.090 397.571,378.407 396.897,379.277 396.046 C 380.209 395.135,380.508 394.447,380.626 392.938 C 380.834 390.283,381.231 388.288,381.659 387.749 C 381.896 387.450,381.725 387.221,381.150 387.071 C 380.365 386.866,380.305 386.658,380.519 384.856 C 380.699 383.333,380.619 382.816,380.177 382.647 C 379.860 382.525,379.600 382.134,379.600 381.779 C 379.600 381.405,379.810 381.231,380.100 381.366 C 380.375 381.495,380.915 381.711,381.300 381.846 C 381.709 381.991,382.000 382.501,382.000 383.074 C 382.000 384.579,383.684 384.199,383.889 382.648 C 384.023 381.636,383.937 381.523,383.178 381.722 C 380.272 382.482,379.792 380.721,382.200 378.135 C 383.190 377.071,384.000 376.066,384.000 375.901 C 384.000 375.735,384.289 375.600,384.643 375.600 C 385.044 375.600,385.201 375.379,385.060 375.013 C 384.936 374.690,385.007 374.319,385.217 374.189 C 385.428 374.059,385.600 373.625,385.600 373.225 C 385.600 372.825,385.858 372.283,386.174 372.021 C 386.490 371.759,386.866 371.009,387.010 370.353 C 387.154 369.698,387.616 368.947,388.036 368.685 C 388.456 368.422,388.800 367.978,388.800 367.698 C 388.800 367.418,388.960 366.877,389.156 366.495 C 390.034 364.782,392.060 360.160,393.177 357.320 C 393.454 356.617,393.617 355.873,393.540 355.669 C 393.463 355.465,392.790 356.850,392.045 358.749 M380.308 383.525 C 380.396 383.789,380.102 384.000,379.646 384.000 C 379.071 384.000,378.896 383.815,379.062 383.383 C 379.324 382.700,380.061 382.784,380.308 383.525 " stroke="none" fill="#c990a0" fill-rule="evenodd"></path></g></svg>