<svg id="svg" version="1.1" xmlns="http://www.w3.org/2000/svg" xmlns:xlink="http://www.w3.org/1999/xlink" width="400" height="393.1623931623932" viewBox="0, 0, 400,393.1623931623932"><g id="svgg"><path id="path0" d="M0.000 196.657 L 0.000 393.314 25.836 393.314 L 51.672 393.314 50.828 392.527 C 50.364 392.094,49.820 391.740,49.619 391.740 C 49.418 391.740,48.747 391.473,48.128 391.147 C 47.508 390.820,46.337 390.444,45.526 390.310 C 43.981 390.055,43.482 389.381,44.838 389.381 C 45.270 389.381,45.624 389.204,45.624 388.987 C 45.624 388.771,45.100 388.594,44.458 388.594 C 43.695 388.594,43.147 388.322,42.871 387.807 C 42.640 387.375,42.086 387.021,41.641 387.021 C 41.163 387.021,40.747 386.700,40.626 386.238 C 40.514 385.808,40.264 385.554,40.070 385.674 C 39.648 385.934,38.545 384.907,38.545 384.253 C 38.545 383.999,38.279 383.892,37.955 384.016 C 37.595 384.154,37.365 384.017,37.365 383.665 C 37.365 383.344,37.005 383.088,36.555 383.088 C 36.081 383.088,35.853 382.913,36.005 382.668 C 36.147 382.437,35.894 382.151,35.442 382.033 C 34.990 381.915,34.716 381.663,34.833 381.474 C 34.950 381.285,34.771 381.235,34.435 381.364 C 34.030 381.520,33.825 381.372,33.825 380.924 C 33.825 380.479,33.619 380.329,33.219 380.483 C 32.858 380.621,32.651 380.519,32.706 380.230 C 32.850 379.481,32.246 377.974,31.803 377.974 C 31.585 377.974,30.532 377.089,29.461 376.008 C 28.391 374.926,27.298 374.035,27.032 374.027 C 26.766 374.019,26.085 373.401,25.519 372.654 C 24.952 371.906,23.271 369.978,21.782 368.370 C 10.989 356.709,4.012 342.488,1.598 327.227 L 0.760 321.927 0.872 198.427 L 0.984 74.926 1.858 70.600 C 8.520 37.614,32.567 12.845,66.595 3.918 C 74.419 1.865,70.123 1.923,203.933 2.056 L 329.400 2.181 333.220 3.062 C 368.421 11.180,395.549 41.452,399.205 76.696 C 399.904 83.431,399.725 322.106,399.017 327.782 C 398.697 330.353,398.276 332.654,398.083 332.895 C 397.718 333.349,397.343 334.833,397.077 336.873 C 396.992 337.522,396.730 338.551,396.495 339.160 C 396.259 339.769,396.067 340.861,396.067 341.586 C 396.067 343.364,395.723 344.144,395.051 343.886 C 394.676 343.742,394.494 343.950,394.494 344.524 C 394.494 345.043,394.325 345.271,394.061 345.108 C 393.747 344.914,393.746 345.062,394.061 345.649 C 394.512 346.493,394.295 349.671,393.761 350.035 C 393.111 350.479,392.939 351.622,393.523 351.622 C 394.277 351.622,394.269 352.369,393.510 352.660 C 393.186 352.785,392.918 353.177,392.914 353.533 C 392.908 354.263,392.101 356.666,391.600 357.450 C 391.417 357.735,391.268 358.575,391.268 359.318 C 391.268 360.061,391.115 360.669,390.927 360.669 C 390.739 360.669,390.695 360.956,390.830 361.307 C 390.978 361.692,390.816 362.091,390.425 362.310 C 390.067 362.510,389.774 362.873,389.774 363.115 C 389.774 363.358,389.481 363.880,389.123 364.276 C 388.606 364.847,388.586 364.995,389.025 364.997 C 389.329 364.997,388.995 365.353,388.283 365.787 C 387.571 366.221,387.019 366.796,387.057 367.064 C 387.219 368.213,386.453 370.188,385.579 370.875 C 385.023 371.313,384.802 371.722,385.041 371.870 C 385.732 372.297,385.490 372.861,384.616 372.861 C 383.916 372.861,383.812 373.048,383.958 374.041 C 384.088 374.925,383.976 375.223,383.511 375.227 C 383.006 375.232,382.991 375.297,383.433 375.577 C 384.175 376.047,383.721 376.644,381.629 377.946 C 380.569 378.606,380.028 379.162,380.289 379.323 C 380.932 379.720,380.824 380.334,380.111 380.334 C 379.673 380.334,379.567 380.563,379.745 381.122 C 379.970 381.831,379.852 381.891,378.566 381.727 C 377.270 381.561,377.149 381.625,377.270 382.414 C 377.405 383.298,374.685 386.540,373.982 386.332 C 373.798 386.278,373.648 386.521,373.648 386.872 C 373.648 387.395,373.541 387.422,373.058 387.021 C 372.559 386.607,372.468 386.689,372.468 387.550 C 372.468 388.294,372.309 388.508,371.878 388.343 C 371.447 388.177,371.288 388.392,371.288 389.142 C 371.288 389.985,371.105 390.167,370.263 390.167 C 369.554 390.167,369.302 390.334,369.445 390.708 C 369.567 391.027,369.261 391.428,368.700 391.683 C 365.500 393.141,367.102 393.314,383.874 393.314 L 400.000 393.314 400.000 196.657 L 400.000 0.000 200.000 0.000 L 0.000 0.000 0.000 196.657 M148.155 70.183 C 146.154 70.901,145.284 71.747,144.545 73.696 C 143.592 76.207,143.828 141.738,144.799 144.269 C 146.340 148.285,149.282 151.094,152.923 152.027 C 156.313 152.896,244.389 152.706,246.767 151.825 C 249.025 150.989,252.294 147.810,253.572 145.208 L 254.671 142.970 254.671 108.328 L 254.671 73.686 253.491 72.286 C 251.253 69.629,255.270 69.821,200.000 69.729 C 158.228 69.659,149.400 69.737,148.155 70.183 M114.061 72.641 C 103.212 74.457,92.745 85.050,90.427 96.559 C 89.635 100.490,89.593 295.672,90.383 299.847 C 92.630 311.721,103.014 321.986,114.135 323.328 C 119.326 323.954,286.414 323.616,288.673 322.975 C 298.172 320.278,306.240 311.811,309.034 301.605 C 309.896 298.457,310.357 106.002,309.519 99.124 C 308.256 88.753,302.109 80.016,292.917 75.526 C 287.276 72.771,285.083 72.385,275.025 72.377 L 266.667 72.370 266.667 111.682 C 266.667 139.291,266.535 151.614,266.224 153.078 C 265.215 157.836,262.193 161.618,257.699 163.747 L 255.064 164.995 195.674 164.995 L 136.283 164.995 134.120 163.868 C 129.463 161.441,126.818 158.168,125.410 153.091 C 124.722 150.609,124.680 148.237,124.680 111.415 L 124.680 72.370 119.862 72.423 C 117.212 72.453,114.602 72.551,114.061 72.641 M239.962 82.702 C 242.809 84.604,242.694 83.304,242.580 112.382 L 242.478 138.432 241.192 139.717 L 239.906 141.003 199.558 141.107 L 159.210 141.211 157.678 139.678 L 156.146 138.146 156.063 127.578 C 155.858 101.094,156.140 85.627,156.851 84.417 C 158.478 81.648,155.845 81.809,199.444 81.809 L 238.625 81.809 239.962 82.702 M294.592 88.398 C 297.007 89.604,297.344 90.873,297.345 98.761 C 297.345 109.373,297.373 109.341,288.301 109.341 C 282.521 109.341,282.338 109.316,281.398 108.376 L 280.433 107.410 280.433 98.910 C 280.433 89.908,280.544 89.281,282.311 88.322 C 283.963 87.425,292.754 87.480,294.592 88.398 M113.196 95.345 C 121.520 99.706,118.237 111.325,108.933 110.431 C 102.520 109.815,99.936 101.909,104.544 97.002 C 106.545 94.872,110.753 94.065,113.196 95.345 M262.498 198.385 C 267.020 200.275,267.372 206.258,263.131 209.145 L 261.831 210.029 200.040 210.029 C 130.976 210.028,136.598 210.265,134.585 207.276 C 132.638 204.387,134.255 199.176,137.379 198.273 C 139.637 197.620,260.927 197.729,262.498 198.385 M264.178 230.292 C 266.363 232.573,266.659 235.226,265.022 237.874 C 263.140 240.918,268.406 240.691,199.803 240.691 C 141.018 240.691,138.581 240.662,137.032 239.959 C 132.798 238.036,132.529 231.766,136.575 229.300 C 137.839 228.529,138.685 228.518,200.166 228.517 L 262.475 228.515 264.178 230.292 M262.971 259.548 C 266.919 261.955,266.930 267.962,262.991 270.118 C 261.126 271.138,140.016 271.384,137.343 270.372 C 132.734 268.628,132.339 262.212,136.676 259.532 C 138.541 258.380,261.082 258.396,262.971 259.548 M113.589 289.247 C 120.498 292.856,118.797 303.461,111.172 304.321 C 102.215 305.330,98.435 293.461,106.392 289.312 C 107.881 288.535,112.153 288.497,113.589 289.247 M295.355 289.664 C 298.319 291.196,298.300 306.818,295.333 308.896 C 293.728 310.020,283.171 309.825,281.800 308.647 C 279.841 306.962,279.640 291.387,281.558 289.836 C 282.788 288.842,293.506 288.707,295.355 289.664 " stroke="none" fill="#f3f5f5" fill-rule="evenodd"></path><path id="path1" d="M91.544 10.123 C 92.679 10.202,94.538 10.202,95.674 10.123 C 96.809 10.043,95.880 9.978,93.609 9.978 C 91.337 9.978,90.408 10.043,91.544 10.123 M133.333 10.236 C 138.172 10.536,151.272 10.714,151.000 10.477 C 150.910 10.399,145.880 10.250,139.823 10.146 C 133.683 10.040,130.811 10.081,133.333 10.236 M226.731 10.249 C 226.590 10.477,225.473 10.644,224.250 10.620 C 218.259 10.500,211.783 11.566,216.618 11.876 C 217.963 11.963,218.486 12.161,218.486 12.586 C 218.486 13.327,211.883 13.655,210.617 12.978 C 209.259 12.251,203.576 12.640,203.417 13.471 C 203.300 14.085,203.701 14.167,207.149 14.226 L 211.013 14.293 206.686 14.570 C 204.307 14.722,201.613 14.868,200.701 14.896 C 199.428 14.934,199.092 15.078,199.259 15.514 C 199.430 15.958,199.017 16.109,197.379 16.202 C 195.336 16.319,195.280 16.354,195.280 17.502 L 195.280 18.682 210.914 18.785 C 220.885 18.851,226.549 19.029,226.549 19.277 C 226.549 19.529,217.642 19.666,201.203 19.666 C 182.807 19.666,175.782 19.787,175.583 20.110 C 175.396 20.413,175.196 20.351,174.951 19.913 C 174.003 18.220,171.965 20.115,172.382 22.300 C 172.621 23.549,172.278 23.599,163.438 23.599 C 154.934 23.599,154.370 23.723,154.831 25.488 C 154.993 26.105,154.882 26.352,154.445 26.352 C 153.610 26.352,153.174 25.550,153.799 25.164 C 154.553 24.698,153.191 23.441,152.301 23.781 C 151.757 23.988,151.720 23.941,152.114 23.543 C 152.384 23.271,152.606 22.287,152.606 21.357 L 152.606 19.666 146.739 19.666 C 143.077 19.666,140.821 19.514,140.737 19.262 C 140.601 18.852,98.583 18.676,97.924 19.082 C 97.749 19.191,92.062 19.289,85.286 19.302 L 72.966 19.324 72.087 18.221 C 70.965 16.814,66.411 16.512,66.150 17.827 C 66.024 18.461,66.275 18.537,68.304 18.483 C 71.719 18.391,71.976 18.433,71.976 19.076 C 71.976 19.543,71.413 19.666,69.265 19.666 C 67.218 19.666,66.499 19.810,66.328 20.256 C 66.173 20.660,65.541 20.846,64.319 20.846 C 62.605 20.846,62.350 20.647,62.496 19.420 C 62.562 18.869,60.677 17.590,60.501 18.066 C 60.431 18.257,59.734 18.513,58.952 18.636 C 58.171 18.758,57.053 19.040,56.469 19.262 C 54.814 19.891,53.901 19.754,55.207 19.073 C 55.827 18.750,56.579 18.486,56.879 18.486 C 57.179 18.486,57.424 18.309,57.424 18.092 C 57.424 17.581,55.970 17.581,55.654 18.092 C 55.520 18.309,55.143 18.486,54.816 18.486 C 54.489 18.486,53.956 18.751,53.631 19.076 C 53.307 19.400,52.744 19.659,52.381 19.652 C 51.897 19.641,52.036 19.379,52.901 18.670 C 57.203 15.144,43.206 23.136,38.151 27.092 C 32.136 31.800,26.375 38.319,19.015 48.746 C 17.956 50.246,17.951 49.060,19.007 46.872 L 19.961 44.894 18.950 44.015 C 18.306 43.455,17.883 43.302,17.786 43.594 C 17.702 43.845,17.358 44.051,17.021 44.051 C 16.685 44.051,16.174 44.361,15.887 44.739 C 15.534 45.204,15.360 45.259,15.352 44.908 C 15.332 44.108,14.064 42.962,13.863 43.563 C 13.774 43.831,13.317 44.065,12.848 44.082 C 12.380 44.099,12.216 44.202,12.485 44.311 C 12.843 44.455,12.864 44.712,12.563 45.274 C 12.338 45.695,12.014 45.954,11.844 45.848 C 11.318 45.524,7.193 54.281,4.909 60.570 C 3.611 64.143,2.038 71.241,1.580 75.588 C 1.186 79.329,0.990 238.276,1.380 237.886 C 1.490 237.776,1.581 223.330,1.583 205.785 C 1.585 177.192,1.751 171.337,2.481 174.135 C 2.581 174.516,2.682 173.269,2.708 171.363 C 2.737 169.164,2.897 167.987,3.147 168.142 C 3.363 168.275,3.540 168.152,3.540 167.867 C 3.540 167.495,4.037 167.389,5.310 167.490 C 6.863 167.614,7.080 167.535,7.080 166.847 C 7.080 166.218,7.760 165.585,8.437 165.585 C 8.500 165.585,8.669 200.674,8.815 243.559 C 9.077 321.211,9.171 326.136,10.475 331.367 C 14.688 348.267,27.401 365.731,41.762 374.345 C 50.645 379.673,58.548 383.100,65.049 384.442 C 69.577 385.378,331.362 385.374,336.292 384.439 C 361.128 379.728,384.102 356.936,389.789 331.367 C 391.344 324.378,391.305 326.711,391.422 234.321 C 391.519 158.183,391.705 127.514,392.055 129.695 C 392.150 130.290,393.707 130.361,393.707 129.770 C 393.707 129.541,393.882 129.462,394.095 129.594 C 394.308 129.725,395.137 129.653,395.937 129.432 C 396.960 129.149,397.545 129.158,397.909 129.460 C 398.329 129.809,398.427 129.330,398.427 126.915 C 398.427 124.151,398.034 122.938,397.447 123.887 C 396.676 125.136,395.764 123.227,396.488 121.876 L 396.952 121.009 397.433 121.907 C 398.207 123.355,398.416 122.130,398.524 115.504 C 398.577 112.222,398.710 142.193,398.820 182.104 L 399.020 254.671 399.109 168.338 C 399.205 74.498,399.216 75.030,397.049 66.449 C 395.194 59.103,390.890 48.127,390.065 48.638 C 389.838 48.778,389.765 48.711,389.902 48.489 C 390.039 48.267,389.713 47.222,389.177 46.167 C 388.642 45.111,388.203 44.463,388.202 44.726 C 388.201 44.988,387.820 45.407,387.355 45.656 L 386.509 46.109 387.391 44.869 L 388.274 43.630 386.849 44.431 C 386.065 44.871,384.845 45.231,384.137 45.231 C 383.430 45.231,382.659 45.423,382.424 45.659 C 382.116 45.967,381.915 45.954,381.705 45.615 C 381.545 45.355,381.652 44.996,381.944 44.815 C 382.236 44.635,382.351 44.364,382.201 44.213 C 382.050 44.062,381.657 44.163,381.327 44.437 C 380.917 44.777,380.728 44.795,380.728 44.493 C 380.728 44.250,380.488 44.051,380.195 44.051 C 379.803 44.051,379.915 44.578,380.620 46.052 C 382.020 48.977,381.453 48.831,379.456 45.751 C 374.898 38.723,367.493 30.588,361.599 26.134 C 359.898 24.848,358.446 23.663,358.374 23.500 C 358.302 23.338,358.065 23.206,357.846 23.206 C 357.628 23.206,357.002 22.854,356.455 22.423 C 355.806 21.913,355.101 21.710,354.427 21.839 C 353.657 21.987,353.581 21.955,354.128 21.715 C 354.805 21.418,354.778 21.336,353.794 20.690 C 351.752 19.353,348.548 17.699,347.998 17.699 C 347.693 17.699,347.093 17.371,346.663 16.971 C 346.233 16.570,344.651 15.840,343.147 15.349 C 341.643 14.857,340.245 14.300,340.039 14.111 C 339.834 13.921,339.391 13.772,339.056 13.778 C 338.539 13.789,338.550 13.869,339.126 14.307 C 340.014 14.981,338.424 15.966,337.117 15.551 C 335.916 15.170,336.090 14.638,337.365 14.795 C 338.022 14.876,337.851 14.758,336.927 14.494 C 335.828 14.180,335.334 14.179,335.142 14.490 C 334.995 14.727,334.042 14.904,333.023 14.883 L 331.170 14.846 331.170 13.273 L 331.170 11.699 332.827 11.964 C 333.738 12.110,334.388 12.133,334.272 12.017 C 334.061 11.806,331.041 11.170,328.417 10.784 C 327.660 10.673,326.828 10.511,326.569 10.424 C 326.297 10.333,326.187 10.499,326.308 10.815 C 326.482 11.268,326.312 11.285,325.329 10.914 C 324.674 10.667,324.227 10.323,324.335 10.149 C 324.442 9.975,319.785 9.834,313.986 9.835 C 304.287 9.837,303.534 9.886,304.594 10.439 C 305.520 10.922,307.059 11.020,312.460 10.940 C 316.153 10.886,320.324 11.034,321.731 11.270 L 324.287 11.700 322.310 11.750 L 320.333 11.799 320.485 13.390 L 320.637 14.981 322.364 14.722 C 323.797 14.507,324.090 14.571,324.090 15.098 C 324.090 15.447,323.901 15.733,323.669 15.733 C 323.437 15.733,323.526 16.011,323.866 16.351 C 324.206 16.691,324.484 17.284,324.484 17.669 C 324.484 18.437,327.667 18.879,333.196 18.879 C 334.955 18.879,335.890 19.035,335.890 19.329 C 335.890 19.648,335.083 19.704,333.101 19.519 C 330.523 19.280,330.297 19.320,330.106 20.053 C 329.843 21.057,328.417 21.123,328.417 20.131 C 328.417 19.494,328.050 19.420,325.014 19.443 C 323.143 19.457,321.370 19.292,321.074 19.076 C 320.137 18.389,293.019 18.767,293.019 19.467 C 293.019 19.820,292.786 19.945,292.403 19.798 C 291.926 19.615,291.810 19.062,291.891 17.352 L 291.995 15.143 290.540 15.021 C 289.405 14.925,289.086 14.731,289.086 14.136 C 289.086 13.672,288.815 13.372,288.397 13.370 C 288.019 13.369,287.225 13.115,286.634 12.807 C 286.010 12.481,285.464 12.400,285.333 12.613 C 284.940 13.248,281.299 13.052,280.921 12.376 C 280.636 11.867,279.430 11.772,273.242 11.770 C 267.596 11.768,265.831 11.648,265.596 11.251 C 265.356 10.846,262.352 10.691,251.721 10.538 C 239.429 10.361,238.559 10.389,242.478 10.836 C 244.857 11.108,248.840 11.248,251.327 11.149 C 253.815 11.049,257.266 11.131,258.997 11.331 C 261.876 11.664,261.966 11.699,260.055 11.747 C 258.775 11.779,258.061 11.952,258.210 12.193 C 258.367 12.446,256.914 12.586,254.137 12.586 C 251.762 12.586,249.761 12.419,249.689 12.214 C 249.616 12.009,246.801 11.789,243.414 11.723 C 238.322 11.623,237.307 11.508,237.483 11.048 C 237.643 10.627,237.464 10.555,236.743 10.748 C 236.220 10.888,235.648 11.004,235.473 11.007 C 235.298 11.010,235.265 11.190,235.398 11.406 C 235.532 11.622,235.365 11.799,235.028 11.799 C 234.691 11.799,234.415 11.622,234.415 11.406 C 234.415 11.189,233.382 11.013,232.104 11.013 C 230.833 11.013,229.196 10.885,228.466 10.729 L 227.139 10.446 228.515 10.191 L 229.892 9.936 228.440 9.885 C 227.642 9.856,226.873 10.020,226.731 10.249 M292.232 10.226 C 292.232 10.442,291.568 10.625,290.757 10.631 C 289.533 10.641,289.403 10.714,289.994 11.058 C 290.386 11.286,291.006 11.346,291.371 11.193 C 291.736 11.040,294.071 10.695,296.559 10.427 L 301.082 9.941 296.657 9.887 C 293.933 9.854,292.232 9.984,292.232 10.226 M123.022 10.517 C 124.165 10.596,125.935 10.595,126.955 10.515 C 127.975 10.434,127.040 10.369,124.877 10.370 C 122.714 10.371,121.879 10.437,123.022 10.517 M156.801 10.488 C 156.237 11.052,156.591 11.406,157.719 11.406 C 158.980 11.406,159.304 10.859,158.277 10.465 C 157.477 10.158,157.126 10.164,156.801 10.488 M75.713 11.013 C 75.579 11.229,75.735 11.406,76.060 11.406 C 76.384 11.406,76.759 11.229,76.893 11.013 C 77.027 10.796,76.870 10.619,76.546 10.619 C 76.221 10.619,75.847 10.796,75.713 11.013 M273.550 11.013 C 273.400 11.255,274.070 11.406,275.296 11.406 C 276.391 11.406,277.286 11.229,277.286 11.013 C 277.286 10.796,276.500 10.619,275.539 10.619 C 274.579 10.619,273.683 10.796,273.550 11.013 M132.978 11.429 C 133.672 11.859,132.995 13.310,132.036 13.446 C 131.560 13.514,131.215 13.746,131.269 13.963 C 131.331 14.208,134.707 14.380,140.237 14.420 C 145.115 14.455,149.392 14.594,149.742 14.728 C 150.397 14.979,151.133 14.246,150.787 13.686 C 150.680 13.514,150.072 13.373,149.436 13.373 C 148.800 13.373,148.279 13.196,148.279 12.979 C 148.279 12.751,146.757 12.556,144.641 12.515 C 142.640 12.476,141.888 12.390,142.970 12.324 C 153.071 11.707,152.635 11.405,141.443 11.267 C 136.545 11.207,132.736 11.280,132.978 11.429 M191.441 11.502 C 192.308 11.780,193.499 11.785,195.177 11.516 L 197.640 11.122 193.904 11.108 C 190.777 11.095,190.375 11.160,191.441 11.502 M327.933 12.389 C 328.005 13.257,327.865 13.370,326.741 13.348 C 325.544 13.324,325.523 13.301,326.393 12.952 C 326.986 12.714,327.238 12.370,327.094 11.994 C 326.968 11.665,327.086 11.406,327.360 11.406 C 327.631 11.406,327.889 11.849,327.933 12.389 M68.240 12.193 C 68.106 12.409,67.653 12.586,67.233 12.586 C 66.161 12.586,66.276 13.365,67.355 13.408 C 68.037 13.435,67.947 13.528,66.962 13.813 C 65.608 14.204,65.211 14.955,66.372 14.932 C 66.750 14.924,67.502 14.665,68.043 14.356 C 68.584 14.047,69.381 13.802,69.813 13.811 C 70.246 13.820,70.379 13.917,70.108 14.026 C 69.227 14.382,69.581 15.010,70.501 14.723 C 72.306 14.160,72.523 12.586,70.796 12.586 C 70.147 12.586,69.617 12.409,69.617 12.193 C 69.617 11.976,69.361 11.799,69.050 11.799 C 68.738 11.799,68.374 11.976,68.240 12.193 M240.511 12.193 C 240.378 12.409,239.836 12.586,239.308 12.586 C 238.780 12.586,238.348 12.409,238.348 12.193 C 238.348 11.976,238.890 11.799,239.551 11.799 C 240.253 11.799,240.653 11.963,240.511 12.193 M175.252 13.324 C 174.680 14.249,175.574 14.553,178.869 14.553 C 182.013 14.553,182.224 14.504,181.633 13.913 C 180.841 13.120,175.672 12.643,175.252 13.324 M288.572 15.162 C 288.860 15.450,289.086 16.554,289.086 17.671 L 289.086 19.666 283.189 19.666 C 277.044 19.666,275.320 20.155,275.320 21.900 C 275.320 22.286,274.521 22.419,272.196 22.419 C 270.478 22.419,268.964 22.596,268.830 22.812 C 268.696 23.029,267.978 23.206,267.233 23.206 C 265.708 23.206,265.265 21.517,266.473 20.309 C 267.310 19.472,266.998 19.409,262.144 19.441 C 257.966 19.468,257.813 19.500,257.691 20.354 C 257.576 21.168,257.361 21.239,255.008 21.239 C 252.684 21.239,252.507 21.183,253.069 20.621 C 254.082 19.608,253.791 19.277,251.819 19.196 C 250.792 19.154,251.721 19.022,253.884 18.901 L 257.817 18.682 257.940 17.404 C 258.051 16.253,258.189 16.126,259.328 16.126 C 260.142 16.126,260.796 15.845,261.160 15.339 C 261.888 14.329,265.253 14.205,265.792 15.169 C 266.225 15.941,269.675 15.826,269.518 15.044 C 269.332 14.114,273.388 14.404,273.632 15.339 C 273.904 16.378,275.678 16.386,276.787 15.353 C 278.122 14.110,287.369 13.960,288.572 15.162 M60.177 15.016 C 59.530 15.288,59.375 15.496,59.724 15.626 C 60.016 15.735,60.540 15.538,60.890 15.188 C 61.616 14.462,61.539 14.443,60.177 15.016 M299.581 16.027 C 303.299 16.091,309.494 16.091,313.347 16.027 C 317.201 15.963,314.159 15.910,306.588 15.910 C 299.017 15.909,295.864 15.962,299.581 16.027 M56.244 16.716 C 55.712 17.356,55.840 17.436,56.802 17.067 C 57.144 16.936,57.424 16.670,57.424 16.477 C 57.424 15.933,56.786 16.062,56.244 16.716 M92.527 20.146 C 91.430 20.675,91.380 21.239,92.429 21.239 C 92.866 21.239,93.215 21.501,93.215 21.829 C 93.215 22.272,92.741 22.419,91.302 22.419 C 90.015 22.419,89.076 22.665,88.434 23.169 C 86.643 24.579,85.920 24.409,86.078 22.616 C 86.325 19.822,86.548 19.662,90.181 19.692 C 92.798 19.714,93.244 19.800,92.527 20.146 M57.200 20.719 C 57.565 21.671,56.627 22.399,55.359 22.148 C 54.659 22.009,54.277 21.684,54.277 21.226 C 54.277 20.013,56.763 19.581,57.200 20.719 M151.426 21.042 C 151.426 21.409,151.054 21.632,150.442 21.632 C 149.831 21.632,149.459 21.409,149.459 21.042 C 149.459 20.675,149.831 20.452,150.442 20.452 C 151.054 20.452,151.426 20.675,151.426 21.042 M49.777 23.021 C 48.805 23.757,48.378 23.753,48.378 23.009 C 48.378 22.624,48.754 22.423,49.459 22.431 C 50.495 22.443,50.509 22.468,49.777 23.021 M62.351 24.581 C 62.341 26.183,62.251 26.350,61.394 26.351 C 60.503 26.352,60.486 26.311,61.099 25.633 C 61.817 24.839,61.974 23.599,61.357 23.599 C 61.141 23.599,60.964 23.422,60.964 23.206 C 60.964 22.989,61.278 22.812,61.662 22.812 C 62.230 22.812,62.359 23.145,62.351 24.581 M298.918 23.599 C 298.918 23.815,298.476 23.992,297.935 23.992 C 297.394 23.992,296.952 23.815,296.952 23.599 C 296.952 23.382,297.394 23.206,297.935 23.206 C 298.476 23.206,298.918 23.382,298.918 23.599 M149.162 24.582 C 149.059 25.123,148.818 25.565,148.627 25.565 C 148.222 25.565,148.156 24.246,148.541 23.861 C 149.080 23.323,149.344 23.630,149.162 24.582 M239.644 23.890 C 238.086 23.965,235.431 23.965,233.745 23.891 C 232.058 23.818,233.333 23.757,236.578 23.756 C 239.823 23.756,241.203 23.816,239.644 23.890 M20.059 43.854 C 20.059 44.179,20.236 44.444,20.452 44.444 C 20.669 44.444,20.846 44.179,20.846 43.854 C 20.846 43.530,20.669 43.265,20.452 43.265 C 20.236 43.265,20.059 43.530,20.059 43.854 M14.553 44.276 C 14.553 44.399,14.287 44.766,13.963 45.091 C 13.322 45.731,13.242 45.636,13.611 44.673 C 13.836 44.089,14.553 43.786,14.553 44.276 M17.743 51.244 C 17.422 51.565,17.306 51.521,17.306 51.078 C 17.306 50.296,17.835 49.768,18.030 50.354 C 18.113 50.603,17.984 51.003,17.743 51.244 M383.829 52.846 C 383.786 53.623,383.768 53.628,383.587 52.917 C 383.480 52.493,383.127 51.697,382.803 51.147 L 382.215 50.147 383.045 51.076 C 383.501 51.587,383.854 52.383,383.829 52.846 M172.566 68.723 C 171.755 68.808,170.428 68.808,169.617 68.723 C 168.805 68.638,169.469 68.569,171.091 68.569 C 172.714 68.569,173.378 68.638,172.566 68.723 M251.554 70.024 C 252.517 70.491,253.644 71.483,254.250 72.400 L 255.292 73.974 255.368 100.212 L 255.444 126.450 255.552 101.180 L 255.660 75.910 260.768 75.910 L 265.876 75.910 265.987 113.963 L 266.098 152.016 266.149 112.094 L 266.201 72.173 275.100 72.067 C 282.143 71.984,284.491 72.089,286.359 72.573 C 287.658 72.910,288.876 73.089,289.066 72.972 C 289.256 72.854,289.471 72.892,289.544 73.056 C 289.616 73.219,290.649 73.791,291.839 74.327 C 300.222 78.104,306.371 85.171,309.039 94.096 L 310.128 97.738 310.298 170.108 C 310.391 209.912,310.591 241.416,310.742 240.118 C 310.949 238.345,310.976 238.638,310.851 241.298 C 310.600 246.633,310.693 274.660,310.975 278.377 C 311.328 283.043,312.283 281.692,312.226 276.608 C 312.174 272.002,312.583 271.183,314.005 273.048 C 315.098 274.481,315.290 275.309,314.672 275.929 C 314.140 276.463,314.108 279.209,314.614 280.823 C 315.271 282.920,315.177 288.579,314.479 288.970 C 314.073 289.197,313.878 290.229,313.790 292.625 L 313.668 295.963 315.339 296.317 C 317.232 296.717,317.552 297.791,316.423 299.955 C 315.997 300.772,315.835 302.388,315.833 305.840 C 315.830 312.303,315.444 316.595,314.886 316.381 C 314.576 316.262,314.504 316.892,314.646 318.479 C 314.826 320.510,314.752 320.825,313.929 321.490 C 313.331 321.975,313.164 322.327,313.450 322.504 C 313.747 322.688,313.770 323.084,313.523 323.728 C 313.200 324.568,313.123 324.598,312.874 323.982 C 312.646 323.417,312.482 323.375,312.013 323.765 C 311.506 324.186,311.515 324.305,312.088 324.725 C 313.099 325.464,312.724 327.343,311.504 327.650 C 310.964 327.785,310.573 328.124,310.636 328.403 C 310.823 329.227,309.502 330.450,308.933 329.978 C 308.576 329.682,308.383 329.838,308.199 330.570 C 308.041 331.201,307.674 331.563,307.194 331.563 C 306.778 331.563,306.328 331.740,306.195 331.957 C 306.061 332.173,306.139 332.350,306.368 332.350 C 307.106 332.350,306.813 333.367,305.801 334.317 C 305.261 334.825,304.811 335.608,304.803 336.057 C 304.788 336.850,301.831 338.667,300.582 338.650 C 300.252 338.645,300.163 338.960,300.319 339.583 C 300.597 340.689,300.214 340.995,298.338 341.163 C 297.432 341.245,296.688 341.625,296.185 342.266 C 295.739 342.833,294.498 343.532,293.234 343.930 C 292.034 344.307,291.052 344.796,291.052 345.015 C 291.052 345.249,290.627 345.308,290.027 345.157 C 289.394 344.998,288.668 345.119,288.128 345.473 C 286.897 346.280,273.819 347.264,273.397 346.581 C 273.207 346.274,272.167 346.124,270.477 346.160 C 268.908 346.194,267.620 346.024,267.274 345.737 C 265.224 344.036,260.556 345.153,261.326 347.161 C 261.511 347.643,261.317 347.701,260.275 347.476 C 259.572 347.324,258.938 347.044,258.865 346.852 C 258.793 346.661,258.571 346.604,258.373 346.727 C 258.176 346.849,258.014 346.762,258.014 346.533 C 258.014 346.301,257.226 346.116,256.239 346.116 C 255.262 346.116,254.106 345.895,253.670 345.624 C 253.154 345.305,252.778 345.270,252.594 345.526 C 251.757 346.689,234.230 346.079,234.539 344.898 C 234.681 344.355,234.528 344.149,233.985 344.149 C 233.066 344.149,233.039 344.461,233.879 345.389 C 234.404 345.970,234.432 346.212,234.028 346.699 C 233.466 347.376,232.223 347.493,231.858 346.903 C 231.466 346.267,228.638 346.443,227.933 347.147 C 227.360 347.721,227.248 347.724,226.824 347.178 C 226.293 346.495,218.682 345.744,218.682 346.375 C 218.682 346.568,217.971 346.659,217.102 346.576 C 216.232 346.493,215.271 346.633,214.966 346.886 C 214.048 347.648,206.870 346.991,205.983 346.064 C 205.135 345.179,204.530 345.140,203.517 345.907 C 202.525 346.657,199.911 346.663,198.484 345.919 C 197.867 345.597,197.166 345.454,196.928 345.602 C 195.911 346.230,195.084 347.112,195.084 347.568 C 195.084 347.844,194.824 347.958,194.487 347.829 C 194.158 347.703,193.914 347.399,193.943 347.153 C 194.078 346.027,193.824 345.723,192.747 345.723 C 192.111 345.723,191.481 345.900,191.347 346.116 C 191.030 346.629,187.611 346.629,187.611 346.116 C 187.611 345.900,186.726 345.723,185.644 345.723 C 184.562 345.723,183.677 345.900,183.677 346.116 C 183.677 346.332,182.793 346.509,181.711 346.509 C 180.589 346.509,179.744 346.330,179.744 346.093 C 179.744 345.864,179.605 345.762,179.436 345.867 C 178.271 346.587,160.079 345.976,160.079 345.217 C 160.079 344.645,150.808 345.093,150.077 345.700 C 149.351 346.302,148.673 345.922,148.673 344.913 C 148.673 344.493,148.407 344.149,148.083 344.149 C 147.661 344.149,147.493 344.579,147.493 345.655 L 147.493 347.161 144.375 347.237 C 142.588 347.281,141.151 347.142,141.009 346.912 C 140.868 346.684,139.161 346.509,137.070 346.509 C 135.040 346.509,133.297 346.377,133.197 346.214 C 133.096 346.052,135.563 345.973,138.680 346.038 C 143.589 346.141,144.346 346.075,144.346 345.546 C 144.346 344.846,137.117 344.617,136.692 345.304 C 136.391 345.791,128.191 345.811,127.434 345.326 C 127.005 345.052,126.985 344.946,127.359 344.942 C 127.642 344.939,127.764 344.759,127.630 344.543 C 127.497 344.326,126.856 344.149,126.207 344.149 C 125.407 344.149,125.119 344.297,125.312 344.610 C 125.513 344.935,125.375 344.978,124.843 344.756 C 124.250 344.509,119.835 343.965,116.959 343.784 C 116.714 343.769,116.302 342.915,116.043 341.888 C 115.608 340.160,115.531 340.076,115.026 340.766 C 114.603 341.344,114.356 341.411,113.939 341.065 C 113.642 340.818,113.282 340.733,113.140 340.875 C 112.997 341.018,112.881 340.848,112.881 340.498 C 112.881 339.527,111.716 339.046,110.598 339.556 C 109.408 340.098,107.992 338.655,108.273 337.185 C 108.413 336.451,108.273 336.283,107.517 336.283 C 106.845 336.283,106.588 336.062,106.588 335.484 C 106.588 335.045,106.323 334.583,105.998 334.459 C 105.674 334.334,105.408 333.986,105.408 333.685 C 105.408 333.383,105.223 333.137,104.998 333.137 C 104.772 333.137,103.608 332.181,102.411 331.012 L 100.235 328.887 100.041 325.997 C 99.935 324.408,99.683 323.048,99.481 322.976 C 99.280 322.904,99.115 322.545,99.115 322.179 C 99.115 321.812,98.826 321.100,98.473 320.595 C 97.970 319.878,97.939 319.612,98.327 319.372 C 98.618 319.192,98.694 318.845,98.511 318.530 C 98.339 318.235,98.761 318.569,99.447 319.272 C 100.820 320.679,101.174 320.855,100.831 319.961 C 100.706 319.636,100.446 319.371,100.253 319.371 C 100.060 319.371,99.902 319.105,99.902 318.781 C 99.902 318.456,99.737 318.191,99.535 318.191 C 99.225 318.191,98.609 316.950,98.544 316.195 C 98.494 315.602,95.423 312.339,95.102 312.537 C 94.901 312.662,94.785 312.524,94.845 312.232 C 95.011 311.421,94.020 309.874,93.528 310.178 C 93.270 310.337,93.205 310.266,93.367 310.004 C 93.638 309.566,91.909 305.862,91.586 306.186 C 91.493 306.278,91.405 306.053,91.390 305.684 C 91.375 305.316,90.939 303.510,90.421 301.672 L 89.479 298.328 89.479 197.837 L 89.479 97.345 90.609 93.805 C 95.037 79.938,105.765 71.976,120.024 71.976 L 125.074 71.976 125.074 73.943 L 125.074 75.910 134.235 75.910 L 143.396 75.910 143.883 74.090 C 144.371 72.265,146.078 70.246,147.682 69.595 C 149.733 68.763,249.803 69.177,251.554 70.024 M160.286 82.579 C 160.158 82.786,159.838 82.879,159.574 82.787 C 158.906 82.553,157.415 83.883,156.937 85.138 C 156.245 86.960,156.406 137.048,157.109 138.408 C 158.432 140.967,155.621 140.806,199.042 140.806 C 234.679 140.806,238.555 140.745,239.781 140.163 C 242.377 138.931,242.295 139.815,242.271 113.382 C 242.246 85.949,242.205 85.366,240.180 83.511 L 238.753 82.203 199.636 82.203 C 175.173 82.203,160.431 82.343,160.286 82.579 M287.036 88.394 C 288.397 88.471,290.520 88.470,291.756 88.392 C 292.991 88.315,291.878 88.252,289.282 88.252 C 286.686 88.253,285.676 88.317,287.036 88.394 M280.599 98.722 C 280.599 103.156,280.656 104.971,280.726 102.753 C 280.796 100.536,280.796 96.908,280.726 94.690 C 280.656 92.473,280.599 94.287,280.599 98.722 M109.247 95.067 C 109.737 95.161,110.445 95.157,110.821 95.059 C 111.197 94.960,110.796 94.883,109.931 94.888 C 109.066 94.892,108.758 94.973,109.247 95.067 M116.814 105.735 C 116.814 105.986,116.157 106.945,115.354 107.865 C 113.967 109.453,113.959 109.478,115.191 108.358 C 116.617 107.061,117.397 105.860,117.043 105.505 C 116.917 105.380,116.814 105.483,116.814 105.735 M284.668 109.233 C 285.375 109.320,286.437 109.319,287.028 109.229 C 287.619 109.139,287.040 109.068,285.742 109.070 C 284.444 109.072,283.961 109.145,284.668 109.233 M392.019 127.527 C 391.925 128.017,391.844 127.709,391.840 126.844 C 391.835 125.978,391.912 125.578,392.011 125.954 C 392.109 126.330,392.113 127.038,392.019 127.527 M392.288 131.989 C 392.420 132.331,392.527 133.039,392.527 133.562 C 392.527 134.085,392.704 134.513,392.920 134.513 C 393.137 134.513,393.314 133.805,393.314 132.940 C 393.314 131.757,393.157 131.367,392.682 131.367 C 392.267 131.367,392.132 131.581,392.288 131.989 M250.713 149.558 L 249.558 150.836 250.836 149.681 C 251.539 149.045,252.114 148.470,252.114 148.402 C 252.114 148.098,251.790 148.366,250.713 149.558 M2.245 155.846 C 2.151 156.335,2.070 156.028,2.066 155.162 C 2.061 154.297,2.138 153.897,2.237 154.273 C 2.335 154.649,2.339 155.357,2.245 155.846 M2.258 165.683 C 2.181 167.035,2.118 165.929,2.118 163.225 C 2.118 160.521,2.181 159.415,2.258 160.767 C 2.335 162.119,2.335 164.331,2.258 165.683 M7.866 164.798 C 7.866 165.231,7.710 165.585,7.519 165.585 C 7.328 165.585,7.079 165.231,6.966 164.798 C 6.832 164.287,6.954 164.012,7.313 164.012 C 7.617 164.012,7.866 164.366,7.866 164.798 M156.047 165.092 C 158.265 165.162,161.893 165.162,164.110 165.092 C 166.327 165.022,164.513 164.964,160.079 164.964 C 155.644 164.964,153.830 165.022,156.047 165.092 M168.830 198.525 C 185.865 198.582,213.741 198.582,230.777 198.525 C 247.812 198.468,233.874 198.422,199.803 198.422 C 165.733 198.422,151.794 198.468,168.830 198.525 M265.594 204.130 C 265.594 205.103,265.671 205.501,265.764 205.015 C 265.858 204.528,265.858 203.732,265.764 203.245 C 265.671 202.758,265.594 203.156,265.594 204.130 M140.511 209.925 C 141.539 210.006,143.220 210.006,144.248 209.925 C 145.275 209.844,144.435 209.778,142.380 209.778 C 140.324 209.778,139.484 209.844,140.511 209.925 M171.583 228.810 C 187.970 228.867,214.784 228.867,231.170 228.810 C 247.557 228.753,234.149 228.707,201.377 228.707 C 168.604 228.707,155.197 228.753,171.583 228.810 M310.996 233.329 C 310.902 233.818,310.821 233.510,310.817 232.645 C 310.813 231.780,310.890 231.379,310.988 231.755 C 311.086 232.132,311.090 232.839,310.996 233.329 M1.271 239.528 C 1.271 240.285,1.352 240.595,1.451 240.216 C 1.550 239.838,1.550 239.218,1.451 238.840 C 1.352 238.461,1.271 238.771,1.271 239.528 M398.911 258.407 C 398.911 259.164,398.992 259.474,399.091 259.095 C 399.190 258.717,399.190 258.097,399.091 257.719 C 398.992 257.340,398.911 257.650,398.911 258.407 M245.526 259.094 C 247.852 259.163,251.657 259.163,253.982 259.094 C 256.308 259.024,254.405 258.967,249.754 258.967 C 245.103 258.967,243.201 259.024,245.526 259.094 M258.899 259.072 C 259.277 259.170,259.897 259.170,260.275 259.072 C 260.654 258.973,260.344 258.892,259.587 258.892 C 258.830 258.892,258.520 258.973,258.899 259.072 M133.818 264.700 C 133.818 265.457,133.899 265.767,133.998 265.388 C 134.097 265.010,134.097 264.390,133.998 264.012 C 133.899 263.633,133.818 263.943,133.818 264.700 M311.041 286.431 C 310.924 288.592,311.181 292.795,311.462 293.311 C 311.609 293.579,311.771 291.854,311.823 289.476 C 311.907 285.560,311.232 282.928,311.041 286.431 M109.243 288.970 C 109.730 289.064,110.526 289.064,111.013 288.970 C 111.500 288.876,111.101 288.799,110.128 288.799 C 109.154 288.799,108.756 288.876,109.243 288.970 M280.597 299.312 C 280.597 303.530,280.655 305.256,280.726 303.147 C 280.797 301.037,280.797 297.586,280.726 295.477 C 280.655 293.368,280.597 295.093,280.597 299.312 M102.361 296.362 C 102.365 297.227,102.446 297.535,102.540 297.046 C 102.634 296.556,102.630 295.848,102.532 295.472 C 102.433 295.096,102.356 295.497,102.361 296.362 M309.790 298.678 C 309.652 299.855,309.420 301.128,309.275 301.506 C 309.106 301.946,309.163 302.100,309.432 301.933 C 309.860 301.669,310.561 297.057,310.225 296.721 C 310.124 296.620,309.929 297.501,309.790 298.678 M314.531 298.777 C 314.216 299.091,314.572 299.705,315.067 299.705 C 315.271 299.705,315.438 299.440,315.438 299.115 C 315.438 298.507,314.973 298.334,314.531 298.777 M302.830 314.159 L 301.475 315.634 302.950 314.279 C 304.323 313.017,304.606 312.684,304.305 312.684 C 304.240 312.684,303.576 313.348,302.830 314.159 M97.935 315.634 C 98.273 316.042,98.288 316.224,97.983 316.224 C 97.740 316.224,97.542 316.037,97.542 315.808 C 97.542 315.579,97.365 315.501,97.148 315.634 C 96.932 315.768,96.755 315.690,96.755 315.461 C 96.755 314.859,97.367 314.949,97.935 315.634 M398.969 319.371 C 398.969 321.858,399.033 322.876,399.111 321.632 C 399.189 320.388,399.189 318.353,399.111 317.109 C 399.033 315.865,398.969 316.883,398.969 319.371 M99.679 317.363 C 99.826 317.600,100.311 317.989,100.758 318.228 C 101.340 318.539,101.494 318.541,101.304 318.232 C 101.158 317.995,100.672 317.606,100.226 317.367 C 99.644 317.056,99.489 317.054,99.679 317.363 M104.536 320.644 C 104.994 321.196,106.588 321.867,106.588 321.507 C 106.588 321.425,106.013 321.060,105.310 320.697 C 104.229 320.138,104.109 320.130,104.536 320.644 M109.559 322.892 C 109.777 323.111,110.570 323.383,111.320 323.497 C 112.705 323.708,112.444 323.541,110.333 322.869 C 109.546 322.618,109.292 322.626,109.559 322.892 M113.766 323.968 C 114.145 324.067,114.764 324.067,115.143 323.968 C 115.521 323.869,115.211 323.788,114.454 323.788 C 113.697 323.788,113.387 323.869,113.766 323.968 M6.583 344.154 C 6.923 345.021,7.274 345.660,7.361 345.573 C 7.550 345.383,6.414 342.576,6.148 342.576 C 6.046 342.576,6.242 343.286,6.583 344.154 M285.452 344.428 C 285.941 344.522,286.649 344.518,287.025 344.420 C 287.401 344.321,287.001 344.244,286.136 344.249 C 285.270 344.253,284.963 344.334,285.452 344.428 M280.498 345.281 C 280.104 345.530,280.195 345.672,280.861 345.846 C 281.821 346.097,282.399 345.894,282.399 345.306 C 282.399 344.848,281.206 344.832,280.498 345.281 M159.396 346.393 C 158.912 346.486,158.027 346.489,157.429 346.398 C 156.831 346.308,157.227 346.231,158.309 346.229 C 159.390 346.226,159.880 346.300,159.396 346.393 M197.502 347.493 C 197.502 347.698,197.312 347.930,197.080 348.007 C 196.847 348.085,196.657 347.853,196.657 347.493 C 196.657 347.132,196.847 346.901,197.080 346.978 C 197.312 347.056,197.502 347.287,197.502 347.493 M221.933 347.180 C 221.449 347.273,220.564 347.275,219.966 347.185 C 219.368 347.094,219.764 347.018,220.846 347.015 C 221.927 347.012,222.416 347.086,221.933 347.180 M14.553 358.702 C 15.015 359.351,15.481 359.882,15.589 359.882 C 15.698 359.882,15.408 359.351,14.946 358.702 C 14.484 358.053,14.017 357.522,13.909 357.522 C 13.801 357.522,14.091 358.053,14.553 358.702 M383.088 362.635 C 382.625 363.284,382.336 363.815,382.444 363.815 C 382.552 363.815,383.019 363.284,383.481 362.635 C 383.943 361.986,384.233 361.455,384.124 361.455 C 384.016 361.455,383.550 361.986,383.088 362.635 M19.272 365.118 C 19.272 365.186,19.848 365.761,20.551 366.396 L 21.829 367.552 20.674 366.273 C 19.597 365.082,19.272 364.814,19.272 365.118 M378.933 367.847 L 377.778 369.125 379.056 367.970 C 379.759 367.334,380.334 366.759,380.334 366.691 C 380.334 366.388,380.010 366.655,378.933 367.847 M23.206 369.445 C 23.206 369.512,23.781 370.088,24.484 370.723 L 25.762 371.878 24.607 370.600 C 23.530 369.408,23.206 369.141,23.206 369.445 M373.845 373.130 C 371.177 375.689,370.797 376.137,372.665 374.524 C 375.341 372.212,378.308 369.303,377.953 369.340 C 377.857 369.350,376.008 371.055,373.845 373.130 M27.139 372.984 C 27.139 373.052,27.714 373.627,28.417 374.263 L 29.695 375.418 28.540 374.140 C 27.463 372.948,27.139 372.681,27.139 372.984 M366.765 379.007 C 363.486 381.497,363.140 381.968,366.075 379.948 C 368.200 378.485,369.743 377.158,369.271 377.201 C 369.191 377.208,368.063 378.021,366.765 379.007 M37.955 381.406 C 38.171 381.613,39.056 382.179,39.921 382.665 C 40.787 383.151,41.141 383.254,40.708 382.895 C 39.829 382.164,37.338 380.817,37.955 381.406 M359.784 383.706 C 358.313 384.503,358.403 384.836,359.882 384.071 C 360.531 383.735,361.062 383.377,361.062 383.274 C 361.062 383.021,361.020 383.035,359.784 383.706 M46.804 386.431 C 47.778 386.952,48.751 387.378,48.968 387.378 C 49.184 387.378,48.564 386.952,47.591 386.431 C 46.618 385.909,45.644 385.483,45.428 385.483 C 45.211 385.483,45.831 385.909,46.804 386.431 M350.049 388.397 C 349.508 388.706,349.243 388.959,349.459 388.959 C 349.676 388.959,350.295 388.706,350.836 388.397 C 351.377 388.088,351.642 387.835,351.426 387.835 C 351.209 387.835,350.590 388.088,350.049 388.397 M343.953 390.771 C 342.969 391.245,342.937 391.299,343.756 391.099 C 344.871 390.827,346.123 390.188,345.526 390.197 C 345.310 390.200,344.602 390.458,343.953 390.771 M338.053 392.339 C 336.938 392.626,336.512 392.848,337.070 392.852 C 337.611 392.857,338.761 392.627,339.626 392.341 C 341.634 391.680,340.625 391.678,338.053 392.339 " stroke="none" fill="#1b6750" fill-rule="evenodd"></path><path id="path2" d="M125.163 113.963 L 125.270 152.016 126.229 154.376 C 128.096 158.975,130.355 161.498,134.371 163.470 L 136.676 164.602 193.707 164.711 C 232.029 164.784,251.618 164.685,253.421 164.408 C 258.476 163.632,262.115 161.053,264.339 156.672 L 265.683 154.024 265.789 114.967 L 265.895 75.910 260.833 75.910 L 255.772 75.910 255.556 108.850 C 255.340 141.602,255.334 141.803,254.471 144.088 C 253.256 147.306,250.842 150.106,248.009 151.584 L 245.674 152.802 199.041 152.802 L 152.409 152.802 150.617 151.749 C 148.311 150.393,145.949 147.820,144.724 145.329 L 143.756 143.363 143.647 109.636 L 143.538 75.910 134.297 75.910 L 125.055 75.910 125.163 113.963 M283.292 88.424 C 280.639 88.801,279.295 105.799,281.736 108.093 C 282.809 109.101,292.787 109.395,294.800 108.478 C 297.793 107.114,298.062 91.802,295.138 89.215 C 294.431 88.590,286.058 88.030,283.292 88.424 M106.489 95.996 C 101.693 98.528,101.460 106.719,106.117 109.098 C 113.322 112.779,120.591 105.256,116.178 98.685 C 113.957 95.378,109.829 94.232,106.489 95.996 M398.427 115.536 C 398.427 122.070,398.222 123.382,397.433 121.907 L 396.952 121.009 396.488 121.876 C 395.764 123.227,396.676 125.136,397.447 123.887 C 398.034 122.938,398.427 124.151,398.427 126.915 C 398.427 129.330,398.329 129.809,397.909 129.460 C 397.545 129.158,396.960 129.149,395.937 129.432 C 395.137 129.653,394.308 129.725,394.095 129.594 C 393.882 129.462,393.707 129.541,393.707 129.770 C 393.707 130.361,392.150 130.290,392.055 129.695 C 391.705 127.514,391.519 158.183,391.422 234.321 C 391.305 326.711,391.344 324.378,389.789 331.367 C 384.102 356.936,361.128 379.728,336.292 384.439 C 331.362 385.374,69.577 385.378,65.049 384.442 C 40.038 379.276,16.779 356.656,10.475 331.367 C 9.171 326.136,9.077 321.211,8.814 243.537 C 8.584 175.602,8.477 165.568,7.979 165.759 C 7.666 165.880,7.335 165.978,7.244 165.978 C 7.154 165.978,7.080 166.350,7.080 166.805 C 7.080 167.542,6.890 167.616,5.310 167.490 C 4.037 167.389,3.540 167.495,3.540 167.867 C 3.540 168.152,3.363 168.275,3.147 168.142 C 2.897 167.987,2.737 169.164,2.708 171.363 C 2.682 173.269,2.581 174.516,2.481 174.135 C 1.788 171.476,1.544 175.381,1.571 188.725 C 1.588 196.873,1.480 229.381,1.331 260.964 C 1.005 330.067,1.086 331.303,6.737 343.585 C 7.142 344.465,7.473 345.305,7.473 345.453 C 7.473 346.239,11.408 353.517,13.678 356.932 C 26.052 375.541,43.307 387.437,65.048 392.347 L 69.329 393.314 201.629 393.314 L 333.930 393.314 338.155 392.321 C 345.227 390.659,354.863 386.763,360.762 383.179 C 382.419 370.022,397.726 344.912,398.777 320.819 C 399.055 314.456,398.861 110.077,398.577 109.767 C 398.494 109.677,398.427 112.273,398.427 115.536 M391.840 126.844 C 391.844 127.709,391.925 128.017,392.019 127.527 C 392.113 127.038,392.109 126.330,392.011 125.954 C 391.912 125.578,391.835 125.978,391.840 126.844 M393.314 132.940 C 393.314 133.805,393.137 134.513,392.920 134.513 C 392.704 134.513,392.527 134.085,392.527 133.562 C 392.527 133.039,392.420 132.331,392.288 131.989 C 392.132 131.581,392.267 131.367,392.682 131.367 C 393.157 131.367,393.314 131.757,393.314 132.940 M2.066 155.162 C 2.070 156.028,2.151 156.335,2.245 155.846 C 2.339 155.357,2.335 154.649,2.237 154.273 C 2.138 153.897,2.061 154.297,2.066 155.162 M2.118 163.225 C 2.118 165.929,2.181 167.035,2.258 165.683 C 2.335 164.331,2.335 162.119,2.258 160.767 C 2.181 159.415,2.118 160.521,2.118 163.225 M6.966 164.798 C 7.079 165.231,7.328 165.585,7.519 165.585 C 7.710 165.585,7.866 165.231,7.866 164.798 C 7.866 164.366,7.617 164.012,7.313 164.012 C 6.954 164.012,6.832 164.287,6.966 164.798 M136.429 199.217 C 133.383 200.872,133.477 206.872,136.579 208.790 L 137.949 209.636 199.600 209.636 L 261.250 209.636 262.817 208.755 C 266.011 206.960,266.569 202.760,263.960 200.150 L 262.433 198.623 199.948 198.639 C 146.564 198.653,137.313 198.737,136.429 199.217 M137.431 229.290 C 133.178 231.010,133.155 237.627,137.395 239.552 C 139.962 240.718,259.975 240.735,262.258 239.570 C 266.517 237.396,266.493 230.809,262.220 229.319 C 260.777 228.816,138.673 228.787,137.431 229.290 M310.817 232.645 C 310.821 233.510,310.902 233.818,310.996 233.329 C 311.090 232.839,311.086 232.132,310.988 231.755 C 310.890 231.379,310.813 231.780,310.817 232.645 M310.787 239.135 C 310.745 240.108,310.629 241.878,310.529 243.068 L 310.346 245.231 310.747 243.306 C 310.968 242.248,311.084 240.478,311.006 239.373 L 310.863 237.365 310.787 239.135 M310.310 274.768 C 310.161 296.314,310.029 301.277,309.590 301.806 C 309.294 302.162,309.145 302.809,309.258 303.243 C 309.372 303.677,309.304 303.933,309.108 303.812 C 308.912 303.691,308.749 303.912,308.746 304.303 C 308.744 304.695,308.210 306.061,307.562 307.341 C 303.723 314.912,297.987 320.087,290.265 322.947 L 287.709 323.894 199.607 323.894 C 119.355 323.894,111.382 323.837,110.128 323.259 C 109.371 322.910,107.955 322.291,106.981 321.885 C 104.691 320.928,100.805 318.330,98.911 316.491 C 97.370 314.994,96.755 314.713,96.755 315.503 C 96.755 315.755,96.870 315.847,97.011 315.706 C 97.232 315.485,98.081 316.288,99.520 318.076 C 99.730 318.337,99.902 318.735,99.902 318.961 C 99.902 319.186,100.060 319.371,100.253 319.371 C 100.446 319.371,100.706 319.636,100.831 319.961 C 101.174 320.855,100.820 320.679,99.447 319.272 C 98.761 318.569,98.339 318.235,98.511 318.530 C 98.694 318.845,98.618 319.192,98.327 319.372 C 97.939 319.612,97.970 319.878,98.473 320.595 C 98.826 321.100,99.115 321.812,99.115 322.179 C 99.115 322.545,99.280 322.904,99.481 322.976 C 99.683 323.048,99.935 324.408,100.041 325.997 L 100.235 328.887 102.411 331.012 C 103.608 332.181,104.772 333.137,104.998 333.137 C 105.223 333.137,105.408 333.383,105.408 333.685 C 105.408 333.986,105.674 334.334,105.998 334.459 C 106.323 334.583,106.588 335.045,106.588 335.484 C 106.588 336.062,106.845 336.283,107.517 336.283 C 108.273 336.283,108.413 336.451,108.273 337.185 C 107.992 338.655,109.408 340.098,110.598 339.556 C 111.716 339.046,112.881 339.527,112.881 340.498 C 112.881 340.848,112.997 341.018,113.140 340.875 C 113.282 340.733,113.642 340.818,113.939 341.065 C 114.356 341.411,114.603 341.344,115.026 340.766 C 115.531 340.076,115.608 340.160,116.043 341.888 C 116.302 342.915,116.714 343.769,116.959 343.784 C 119.835 343.965,124.250 344.509,124.843 344.756 C 125.375 344.978,125.513 344.935,125.312 344.610 C 125.119 344.297,125.407 344.149,126.207 344.149 C 126.856 344.149,127.497 344.326,127.630 344.543 C 127.764 344.759,127.642 344.939,127.359 344.942 C 126.985 344.946,127.005 345.052,127.434 345.326 C 128.191 345.811,136.391 345.791,136.692 345.304 C 137.117 344.617,144.346 344.846,144.346 345.546 C 144.346 346.075,143.589 346.141,138.680 346.038 C 135.563 345.973,133.096 346.052,133.197 346.214 C 133.297 346.377,135.040 346.509,137.070 346.509 C 139.161 346.509,140.868 346.684,141.009 346.912 C 141.151 347.142,142.588 347.281,144.375 347.237 L 147.493 347.161 147.493 345.655 C 147.493 344.579,147.661 344.149,148.083 344.149 C 148.407 344.149,148.673 344.493,148.673 344.913 C 148.673 345.922,149.351 346.302,150.077 345.700 C 150.808 345.093,160.079 344.645,160.079 345.217 C 160.079 345.976,178.271 346.587,179.436 345.867 C 179.605 345.762,179.744 345.864,179.744 346.093 C 179.744 346.330,180.589 346.509,181.711 346.509 C 182.793 346.509,183.677 346.332,183.677 346.116 C 183.677 345.900,184.562 345.723,185.644 345.723 C 186.726 345.723,187.611 345.900,187.611 346.116 C 187.611 346.332,188.397 346.509,189.357 346.509 C 190.318 346.509,191.213 346.332,191.347 346.116 C 191.481 345.900,192.111 345.723,192.747 345.723 C 193.824 345.723,194.078 346.027,193.943 347.153 C 193.914 347.399,194.158 347.703,194.487 347.829 C 194.824 347.958,195.084 347.844,195.084 347.568 C 195.084 347.112,195.911 346.230,196.928 345.602 C 197.166 345.454,197.867 345.597,198.484 345.919 C 199.911 346.663,202.525 346.657,203.517 345.907 C 204.530 345.140,205.135 345.179,205.983 346.064 C 206.870 346.991,214.048 347.648,214.966 346.886 C 215.271 346.633,216.232 346.493,217.102 346.576 C 217.971 346.659,218.682 346.568,218.682 346.375 C 218.682 345.744,226.293 346.495,226.824 347.178 C 227.248 347.724,227.360 347.721,227.933 347.147 C 228.638 346.443,231.466 346.267,231.858 346.903 C 232.223 347.493,233.466 347.376,234.028 346.699 C 234.432 346.212,234.404 345.970,233.879 345.389 C 233.039 344.461,233.066 344.149,233.985 344.149 C 234.528 344.149,234.681 344.355,234.539 344.898 C 234.230 346.079,251.757 346.689,252.594 345.526 C 252.778 345.270,253.154 345.305,253.670 345.624 C 254.106 345.895,255.262 346.116,256.239 346.116 C 257.226 346.116,258.014 346.301,258.014 346.533 C 258.014 346.762,258.176 346.849,258.373 346.727 C 258.571 346.604,258.793 346.661,258.865 346.852 C 258.938 347.044,259.572 347.324,260.275 347.476 C 261.317 347.701,261.511 347.643,261.326 347.161 C 260.556 345.153,265.224 344.036,267.274 345.737 C 267.620 346.024,268.908 346.194,270.477 346.160 C 272.167 346.124,273.207 346.274,273.397 346.581 C 273.819 347.264,286.897 346.280,288.128 345.473 C 288.668 345.119,289.394 344.998,290.027 345.157 C 290.627 345.308,291.052 345.249,291.052 345.015 C 291.052 344.796,292.034 344.307,293.234 343.930 C 294.498 343.532,295.739 342.833,296.185 342.266 C 296.688 341.625,297.432 341.245,298.338 341.163 C 300.214 340.995,300.597 340.689,300.319 339.583 C 300.163 338.960,300.252 338.645,300.582 338.650 C 301.831 338.667,304.788 336.850,304.803 336.057 C 304.811 335.608,305.261 334.825,305.801 334.317 C 306.813 333.367,307.106 332.350,306.368 332.350 C 306.139 332.350,306.061 332.173,306.195 331.957 C 306.328 331.740,306.778 331.563,307.194 331.563 C 307.674 331.563,308.041 331.201,308.199 330.570 C 308.383 329.838,308.576 329.682,308.933 329.978 C 309.502 330.450,310.823 329.227,310.636 328.403 C 310.573 328.124,310.964 327.785,311.504 327.650 C 312.724 327.343,313.099 325.464,312.088 324.725 C 311.515 324.305,311.506 324.186,312.013 323.765 C 312.482 323.375,312.646 323.417,312.874 323.982 C 313.123 324.598,313.200 324.568,313.523 323.728 C 313.770 323.084,313.747 322.688,313.450 322.504 C 313.164 322.327,313.331 321.975,313.929 321.490 C 314.752 320.825,314.826 320.510,314.646 318.479 C 314.504 316.892,314.576 316.262,314.886 316.381 C 315.444 316.595,315.830 312.303,315.833 305.840 C 315.835 302.388,315.997 300.772,316.423 299.955 C 317.552 297.791,317.232 296.717,315.339 296.317 L 313.668 295.963 313.790 292.625 C 313.878 290.229,314.073 289.197,314.479 288.970 C 315.177 288.579,315.271 282.920,314.614 280.823 C 314.108 279.209,314.140 276.463,314.672 275.929 C 315.290 275.309,315.098 274.481,314.005 273.048 C 312.583 271.183,312.174 272.002,312.226 276.608 C 312.254 279.129,312.100 280.375,311.688 280.963 C 310.939 282.034,311.035 283.680,310.746 264.897 L 310.492 248.378 310.310 274.768 M137.288 259.741 C 133.445 261.135,133.025 266.872,136.578 269.446 L 138.171 270.600 199.371 270.591 C 258.869 270.583,260.617 270.562,262.234 269.827 C 266.075 268.084,266.613 263.442,263.329 260.374 L 262.277 259.390 200.460 259.320 C 151.864 259.265,138.353 259.355,137.288 259.741 M311.823 289.476 C 311.723 294.064,311.271 294.547,311.084 290.265 C 310.925 286.639,311.050 285.152,311.514 285.152 C 311.769 285.152,311.882 286.729,311.823 289.476 M107.219 289.494 C 104.506 290.306,102.654 293.126,102.656 296.441 C 102.661 303.320,110.525 306.409,115.463 301.470 C 121.078 295.856,115.080 287.142,107.219 289.494 M282.203 289.934 C 280.881 290.708,280.838 290.997,280.832 299.178 L 280.826 307.108 282.036 308.126 C 283.725 309.548,293.382 309.703,295.119 308.337 C 297.293 306.627,297.878 292.589,295.860 290.571 C 294.806 289.515,283.793 289.002,282.203 289.934 M315.438 299.115 C 315.438 299.440,315.271 299.705,315.067 299.705 C 314.572 299.705,314.216 299.091,314.531 298.777 C 314.973 298.334,315.438 298.507,315.438 299.115 M287.025 344.420 C 286.649 344.518,285.941 344.522,285.452 344.428 C 284.963 344.334,285.270 344.253,286.136 344.249 C 287.001 344.244,287.401 344.321,287.025 344.420 M282.399 345.306 C 282.399 345.894,281.821 346.097,280.861 345.846 C 280.195 345.672,280.104 345.530,280.498 345.281 C 281.206 344.832,282.399 344.848,282.399 345.306 M157.429 346.398 C 158.027 346.489,158.912 346.486,159.396 346.393 C 159.880 346.300,159.390 346.226,158.309 346.229 C 157.227 346.231,156.831 346.308,157.429 346.398 M196.657 347.493 C 196.657 347.853,196.847 348.085,197.080 348.007 C 197.312 347.930,197.502 347.698,197.502 347.493 C 197.502 347.287,197.312 347.056,197.080 346.978 C 196.847 346.901,196.657 347.132,196.657 347.493 M219.966 347.185 C 220.564 347.275,221.449 347.273,221.933 347.180 C 222.416 347.086,221.927 347.012,220.846 347.015 C 219.764 347.018,219.368 347.094,219.966 347.185 " stroke="none" fill="#042721" fill-rule="evenodd"></path><path id="path3" d="M73.746 2.415 C 61.859 3.947,44.364 11.477,33.295 19.826 C 29.376 22.783,24.150 27.428,24.429 27.707 C 24.521 27.798,25.561 26.981,26.741 25.891 C 29.634 23.216,34.758 19.139,36.087 18.453 C 36.682 18.147,37.401 17.676,37.686 17.406 C 38.386 16.744,43.380 13.842,44.080 13.691 C 44.389 13.624,44.733 13.449,44.844 13.301 C 45.263 12.750,51.265 9.869,51.584 10.067 C 51.767 10.180,51.917 10.085,51.917 9.856 C 51.917 9.627,52.127 9.440,52.383 9.440 C 52.639 9.440,53.569 9.097,54.448 8.679 C 56.624 7.644,60.583 6.293,61.442 6.293 C 61.828 6.293,62.144 6.125,62.144 5.919 C 62.144 5.714,63.209 5.425,64.512 5.277 C 65.815 5.130,66.976 4.856,67.092 4.668 C 67.208 4.480,67.923 4.326,68.680 4.326 C 69.563 4.326,69.962 4.175,69.794 3.903 C 69.613 3.609,70.090 3.563,71.348 3.751 C 72.614 3.941,73.351 3.868,73.785 3.508 C 74.485 2.927,113.274 2.657,113.274 3.233 C 113.274 3.686,116.727 3.606,117.011 3.147 C 117.385 2.541,132.750 2.628,133.732 3.241 C 134.343 3.623,134.678 3.626,135.270 3.256 C 136.240 2.651,324.693 2.569,328.976 3.173 C 330.474 3.384,331.933 3.750,332.219 3.988 C 332.505 4.225,333.138 4.315,333.626 4.187 C 334.553 3.944,336.530 4.439,338.310 5.360 C 338.885 5.657,339.902 5.900,340.572 5.900 C 341.242 5.900,341.790 6.077,341.790 6.293 C 341.790 6.509,342.035 6.686,342.335 6.686 C 342.634 6.686,343.387 6.951,344.006 7.274 C 344.626 7.597,345.446 7.863,345.829 7.864 C 346.212 7.865,347.226 8.309,348.083 8.850 C 348.939 9.390,349.832 9.833,350.067 9.833 C 351.837 9.833,365.475 18.017,367.748 20.444 C 367.856 20.559,368.653 21.181,369.518 21.825 C 371.005 22.932,375.019 26.852,378.613 30.708 C 379.505 31.665,381.505 34.174,383.057 36.283 C 384.609 38.392,385.974 40.118,386.090 40.118 C 386.303 40.118,384.778 37.934,381.556 33.628 C 371.166 19.743,351.429 7.262,333.220 3.062 L 329.400 2.181 202.950 2.121 C 129.745 2.086,75.340 2.210,73.746 2.415 M173.759 4.617 C 174.902 4.697,176.672 4.696,177.693 4.615 C 178.713 4.534,177.778 4.469,175.615 4.470 C 173.451 4.471,172.617 4.537,173.759 4.617 M228.614 4.616 C 229.641 4.697,231.323 4.697,232.350 4.616 C 233.378 4.535,232.537 4.468,230.482 4.468 C 228.427 4.468,227.586 4.535,228.614 4.616 M159.318 5.834 C 157.175 6.505,161.276 6.686,178.564 6.686 C 191.413 6.686,198.230 6.550,198.230 6.293 C 198.230 6.044,194.728 5.867,188.692 5.809 C 174.395 5.674,159.791 5.686,159.318 5.834 M115.438 6.293 L 114.258 6.593 115.536 6.640 C 116.239 6.665,116.814 6.509,116.814 6.293 C 116.814 6.077,116.770 5.921,116.716 5.946 C 116.662 5.972,116.087 6.128,115.438 6.293 M305.015 6.293 C 304.859 6.545,306.125 6.686,308.531 6.686 C 310.776 6.686,312.291 6.528,312.291 6.293 C 312.291 6.060,310.857 5.900,308.774 5.900 C 306.840 5.900,305.148 6.077,305.015 6.293 M291.878 7.584 C 292.589 8.126,296.559 7.999,296.559 7.435 C 296.559 7.240,295.364 7.085,293.904 7.092 C 291.732 7.102,291.363 7.192,291.878 7.584 M126.844 8.260 L 124.484 8.521 127.162 8.587 C 128.863 8.629,129.751 8.509,129.597 8.260 C 129.463 8.043,129.320 7.896,129.279 7.932 C 129.237 7.969,128.142 8.116,126.844 8.260 M159.432 8.358 C 159.088 8.903,187.181 9.184,192.344 8.687 C 195.101 8.422,193.948 8.341,185.644 8.215 C 170.024 7.978,159.635 8.035,159.432 8.358 M148.312 8.406 C 148.402 8.487,150.157 8.649,152.212 8.766 C 154.877 8.917,155.385 8.885,153.982 8.653 C 151.952 8.318,148.022 8.147,148.312 8.406 M21.603 30.580 C 19.435 32.945,15.221 38.452,14.489 39.878 C 13.889 41.048,14.557 40.280,16.333 37.758 C 17.172 36.568,19.244 33.958,20.939 31.957 C 24.400 27.871,24.747 27.153,21.603 30.580 M387.271 42.311 C 388.970 45.323,389.995 46.554,388.557 43.854 C 387.866 42.557,387.041 41.229,386.723 40.905 C 386.406 40.580,386.652 41.213,387.271 42.311 M13.473 41.396 C 13.259 41.667,12.873 42.330,12.617 42.871 C 12.073 44.015,13.058 42.959,13.809 41.593 C 14.246 40.796,14.043 40.677,13.473 41.396 M11.013 45.624 C 10.571 46.490,10.299 47.198,10.407 47.198 C 10.515 47.198,10.965 46.490,11.406 45.624 C 11.848 44.759,12.120 44.051,12.012 44.051 C 11.904 44.051,11.454 44.759,11.013 45.624 M390.200 47.394 C 390.200 47.611,390.539 48.407,390.954 49.164 C 391.368 49.921,391.707 50.364,391.707 50.147 C 391.707 49.931,391.368 49.135,390.954 48.378 C 390.539 47.620,390.200 47.178,390.200 47.394 M8.727 50.167 C 7.542 52.605,7.674 52.947,8.895 50.601 C 9.441 49.552,9.820 48.627,9.737 48.544 C 9.655 48.462,9.201 49.192,8.727 50.167 M392.167 51.721 C 392.167 51.937,392.506 52.734,392.920 53.491 C 393.335 54.248,393.674 54.690,393.674 54.474 C 393.674 54.258,393.335 53.461,392.920 52.704 C 392.506 51.947,392.167 51.504,392.167 51.721 M6.750 54.491 C 6.091 55.937,6.217 56.246,6.930 54.931 C 7.262 54.317,7.461 53.741,7.371 53.651 C 7.281 53.561,7.002 53.939,6.750 54.491 M394.350 57.030 C 394.482 57.571,394.833 58.545,395.128 59.194 C 395.560 60.141,395.618 60.180,395.424 59.390 C 395.292 58.850,394.941 57.876,394.646 57.227 C 394.214 56.279,394.156 56.241,394.350 57.030 M4.966 58.989 C 4.078 61.207,4.215 61.537,5.149 59.431 C 5.571 58.480,5.846 57.632,5.761 57.547 C 5.675 57.461,5.317 58.110,4.966 58.989 M396.509 63.520 C 396.490 63.736,396.722 64.798,397.023 65.880 C 397.324 66.962,397.572 67.493,397.575 67.060 C 397.580 66.223,396.566 62.855,396.509 63.520 M2.606 66.912 C 2.278 68.552,2.596 68.870,2.950 67.257 C 3.099 66.577,3.139 65.938,3.039 65.838 C 2.939 65.738,2.744 66.221,2.606 66.912 M147.984 69.810 C 146.187 70.591,146.392 70.813,148.302 70.155 C 149.642 69.693,157.945 69.621,200.205 69.709 C 227.874 69.766,250.209 69.693,249.838 69.546 C 248.360 68.960,149.350 69.216,147.984 69.810 M145.405 71.499 C 144.616 72.371,143.555 74.860,143.572 75.799 C 143.579 76.184,143.906 75.570,144.299 74.434 C 144.691 73.297,145.332 72.014,145.724 71.582 C 146.115 71.150,146.346 70.796,146.238 70.796 C 146.130 70.796,145.755 71.113,145.405 71.499 M252.507 71.121 C 252.507 71.300,252.981 71.875,253.561 72.399 L 254.614 73.353 253.730 72.075 C 252.839 70.785,252.507 70.526,252.507 71.121 M266.455 72.468 C 266.352 72.738,266.314 90.747,266.371 112.488 L 266.474 152.016 266.570 112.206 L 266.667 72.397 270.698 72.270 L 274.730 72.142 270.686 72.059 C 267.749 71.999,266.591 72.111,266.455 72.468 M398.518 73.156 C 398.518 73.913,398.599 74.223,398.698 73.845 C 398.797 73.466,398.797 72.847,398.698 72.468 C 398.599 72.089,398.518 72.399,398.518 73.156 M124.870 111.701 C 124.870 133.441,124.917 142.335,124.975 131.465 C 125.033 120.595,125.033 102.807,124.975 91.937 C 124.917 81.067,124.870 89.961,124.870 111.701 M107.445 74.526 C 101.470 77.389,96.173 82.289,93.619 87.316 C 92.924 88.683,93.561 87.919,95.350 85.239 C 98.480 80.549,104.632 75.735,110.025 73.755 C 110.839 73.456,111.234 73.199,110.903 73.184 C 110.573 73.169,109.016 73.773,107.445 74.526 M289.872 74.093 C 291.062 74.590,292.788 75.383,293.707 75.855 C 294.626 76.326,295.379 76.609,295.379 76.482 C 295.379 76.160,288.891 73.153,288.241 73.173 C 287.948 73.182,288.682 73.596,289.872 74.093 M254.770 97.874 C 254.825 111.211,254.916 126.372,254.974 131.563 C 255.032 136.755,255.117 126.047,255.164 107.768 C 255.210 89.489,255.118 74.328,254.960 74.079 C 254.801 73.829,254.715 84.537,254.770 97.874 M1.279 75.320 C 1.283 76.185,1.364 76.493,1.458 76.003 C 1.552 75.514,1.549 74.806,1.450 74.430 C 1.352 74.054,1.275 74.454,1.279 75.320 M398.938 76.696 C 398.938 77.886,399.012 78.373,399.102 77.778 C 399.192 77.183,399.192 76.209,399.102 75.615 C 399.012 75.020,398.938 75.506,398.938 76.696 M296.559 77.364 C 298.857 78.979,303.064 83.395,304.854 86.070 C 305.916 87.657,306.785 88.791,306.785 88.590 C 306.785 87.080,298.903 78.257,296.559 77.141 L 295.575 76.673 296.559 77.364 M0.981 200.197 C 0.981 268.014,1.026 295.757,1.082 261.849 C 1.137 227.940,1.137 172.453,1.082 138.545 C 1.026 104.636,0.981 132.380,0.981 200.197 M399.407 165.388 C 399.407 212.979,399.452 232.390,399.508 208.523 C 399.564 184.656,399.564 145.718,399.508 121.994 C 399.452 98.270,399.407 117.797,399.407 165.388 M179.646 82.104 C 190.516 82.162,208.304 82.162,219.174 82.104 C 230.044 82.046,221.150 81.998,199.410 81.998 C 177.670 81.998,168.776 82.046,179.646 82.104 M240.952 83.972 C 241.557 84.838,242.104 85.619,242.167 85.710 C 242.230 85.800,242.281 85.670,242.281 85.421 C 242.281 85.172,241.734 84.390,241.066 83.684 L 239.850 82.399 240.952 83.972 M156.928 84.267 C 156.499 84.971,156.148 85.708,156.147 85.906 C 156.145 86.355,156.201 86.281,157.241 84.464 C 158.275 82.658,158.011 82.491,156.928 84.267 M242.465 107.375 C 242.465 119.164,242.515 123.987,242.576 118.092 C 242.637 112.198,242.637 102.552,242.576 96.657 C 242.515 90.762,242.465 95.585,242.465 107.375 M285.644 88.001 C 287.104 88.076,289.494 88.076,290.954 88.001 C 292.414 87.925,291.219 87.863,288.299 87.863 C 285.379 87.863,284.184 87.925,285.644 88.001 M92.055 90.167 C 91.241 92.052,90.653 93.905,90.964 93.609 C 91.298 93.290,93.178 88.496,92.969 88.496 C 92.864 88.496,92.453 89.248,92.055 90.167 M280.978 89.491 C 280.620 90.039,280.398 90.558,280.485 90.646 C 280.573 90.733,280.942 90.285,281.307 89.650 C 282.118 88.236,281.877 88.119,280.978 89.491 M307.210 90.069 C 307.193 90.177,307.524 91.150,307.947 92.232 C 308.369 93.314,308.718 93.933,308.723 93.609 C 308.730 93.051,307.277 89.650,307.210 90.069 M297.116 98.918 C 297.116 103.029,297.174 104.656,297.245 102.536 C 297.316 100.416,297.316 97.053,297.245 95.063 C 297.173 93.073,297.115 94.808,297.116 98.918 M156.305 99.312 C 156.305 102.773,156.365 104.136,156.438 102.341 C 156.511 100.546,156.511 97.714,156.438 96.048 C 156.364 94.382,156.304 95.851,156.305 99.312 M90.062 95.980 C 89.614 97.771,89.519 114.629,89.495 196.460 L 89.465 294.789 89.683 196.460 C 89.853 119.460,90.007 97.757,90.392 96.405 C 90.663 95.455,90.820 94.487,90.743 94.253 C 90.665 94.019,90.359 94.796,90.062 95.980 M143.743 117.601 C 143.743 129.174,143.793 133.909,143.854 128.122 C 143.915 122.335,143.915 112.866,143.854 107.080 C 143.793 101.293,143.743 106.028,143.743 117.601 M309.629 99.508 C 309.629 100.265,309.710 100.575,309.809 100.197 C 309.908 99.818,309.908 99.199,309.809 98.820 C 309.710 98.441,309.629 98.751,309.629 99.508 M117.723 102.852 C 117.725 104.149,117.798 104.633,117.886 103.926 C 117.973 103.219,117.972 102.157,117.882 101.566 C 117.792 100.975,117.720 101.554,117.723 102.852 M310.124 178.761 C 310.124 221.377,310.170 238.869,310.226 217.632 C 310.282 196.396,310.282 161.528,310.226 140.149 C 310.170 118.770,310.124 136.146,310.124 178.761 M115.794 107.824 C 115.381 108.288,114.513 108.995,113.864 109.396 C 113.215 109.797,112.912 110.126,113.191 110.126 C 113.683 110.128,117.247 107.011,116.777 106.991 C 116.648 106.986,116.206 107.361,115.794 107.824 M155.906 112.094 C 155.906 115.015,155.968 116.209,156.044 114.749 C 156.120 113.289,156.120 110.900,156.044 109.440 C 155.968 107.979,155.906 109.174,155.906 112.094 M242.380 136.283 C 242.385 137.148,242.465 137.456,242.559 136.967 C 242.653 136.478,242.650 135.770,242.551 135.394 C 242.453 135.018,242.376 135.418,242.380 136.283 M156.186 136.977 C 156.159 137.712,156.560 138.483,157.424 139.355 C 158.127 140.065,158.284 140.165,157.774 139.578 C 157.263 138.991,156.706 137.920,156.536 137.200 C 156.242 135.958,156.224 135.946,156.186 136.977 M240.770 139.528 C 240.047 140.231,239.615 140.806,239.811 140.806 C 240.220 140.806,242.507 138.507,242.253 138.352 C 242.160 138.296,241.493 138.825,240.770 139.528 M198.354 141.101 C 202.424 141.165,208.973 141.165,212.907 141.101 C 216.840 141.037,213.510 140.984,205.506 140.984 C 197.502 140.984,194.284 141.037,198.354 141.101 M144.020 142.183 C 144.013 142.616,144.160 143.324,144.346 143.756 C 144.777 144.758,144.777 143.724,144.346 142.380 C 144.093 141.589,144.029 141.551,144.020 142.183 M250.719 149.164 L 249.164 150.836 250.836 149.281 C 252.390 147.835,252.688 147.493,252.391 147.493 C 252.326 147.493,251.574 148.245,250.719 149.164 M152.212 152.207 C 152.537 152.420,153.230 152.596,153.753 152.600 C 155.015 152.608,154.695 152.384,152.999 152.073 C 152.031 151.895,151.797 151.935,152.212 152.207 M265.404 154.779 C 265.282 155.206,265.063 155.910,264.916 156.342 C 264.770 156.775,264.938 156.631,265.290 156.024 C 265.642 155.416,265.861 154.712,265.777 154.461 C 265.693 154.209,265.525 154.352,265.404 154.779 M128.568 159.622 C 129.006 160.236,129.674 160.988,130.054 161.294 C 130.434 161.599,130.148 161.096,129.417 160.177 C 127.917 158.289,127.360 157.925,128.568 159.622 M255.654 164.208 C 254.897 164.500,254.543 164.744,254.867 164.751 C 255.192 164.757,255.988 164.520,256.637 164.223 C 258.156 163.527,257.450 163.517,255.654 164.208 M199.089 165.093 C 203.347 165.156,210.426 165.156,214.821 165.093 C 219.216 165.030,215.733 164.978,207.080 164.978 C 198.427 164.978,194.831 165.029,199.089 165.093 M247.689 165.088 C 248.825 165.168,250.683 165.168,251.819 165.088 C 252.955 165.009,252.026 164.944,249.754 164.944 C 247.483 164.944,246.554 165.009,247.689 165.088 M169.254 198.132 C 186.307 198.188,214.094 198.188,231.004 198.132 C 247.915 198.075,233.963 198.029,200.000 198.029 C 166.037 198.029,152.202 198.075,169.254 198.132 M135.991 199.115 C 135.481 199.602,135.339 199.804,135.674 199.563 C 136.009 199.323,136.637 198.930,137.070 198.690 C 137.502 198.450,137.645 198.249,137.387 198.242 C 137.128 198.235,136.500 198.628,135.991 199.115 M262.537 198.689 C 262.970 198.928,263.686 199.410,264.129 199.759 C 264.572 200.108,264.437 199.907,263.828 199.312 C 263.219 198.717,262.503 198.235,262.236 198.242 C 261.969 198.249,262.104 198.450,262.537 198.689 M265.979 203.933 C 265.984 204.798,266.064 205.106,266.158 204.617 C 266.252 204.128,266.249 203.420,266.150 203.044 C 266.052 202.668,265.975 203.068,265.979 203.933 M173.943 209.931 C 185.787 209.989,205.167 209.989,217.011 209.931 C 228.854 209.873,219.164 209.826,195.477 209.826 C 171.790 209.826,162.099 209.873,173.943 209.931 M137.266 228.927 C 136.836 229.218,136.995 229.255,137.856 229.062 C 139.303 228.738,139.617 228.513,138.610 228.521 C 138.196 228.525,137.591 228.707,137.266 228.927 M261.554 228.796 C 261.878 228.916,262.498 229.178,262.930 229.377 C 263.704 229.733,263.705 229.729,262.953 229.127 C 262.533 228.790,261.914 228.529,261.577 228.546 C 261.047 228.573,261.044 228.607,261.554 228.796 M135.418 230.187 C 134.445 231.255,133.721 232.603,133.742 233.307 C 133.751 233.592,134.026 233.207,134.353 232.451 C 134.681 231.696,135.324 230.678,135.783 230.190 C 136.242 229.701,136.528 229.302,136.420 229.302 C 136.312 229.302,135.861 229.700,135.418 230.187 M265.191 236.873 C 264.769 238.029,264.779 238.078,265.302 237.388 C 265.802 236.727,266.098 235.595,265.770 235.595 C 265.709 235.595,265.449 236.170,265.191 236.873 M169.027 240.610 C 185.954 240.666,213.653 240.666,230.580 240.610 C 247.507 240.553,233.658 240.506,199.803 240.506 C 165.949 240.506,152.099 240.553,169.027 240.610 M310.113 276.500 C 310.113 286.991,310.164 291.283,310.226 286.037 C 310.288 280.792,310.288 272.207,310.226 266.962 C 310.164 261.716,310.113 266.008,310.113 276.500 M137.266 259.212 C 136.836 259.503,136.995 259.540,137.856 259.347 C 139.303 259.023,139.617 258.798,138.610 258.806 C 138.196 258.810,137.591 258.992,137.266 259.212 M262.340 259.303 C 262.340 259.378,262.915 259.860,263.618 260.375 C 264.409 260.954,264.684 261.049,264.339 260.624 C 263.815 259.979,262.340 259.004,262.340 259.303 M265.019 262.144 C 265.218 262.576,265.479 263.196,265.599 263.520 C 265.788 264.030,265.822 264.027,265.849 263.497 C 265.866 263.160,265.605 262.540,265.268 262.120 C 264.666 261.369,264.662 261.370,265.019 262.144 M399.320 267.847 C 399.320 268.820,399.397 269.218,399.491 268.732 C 399.585 268.245,399.585 267.448,399.491 266.962 C 399.397 266.475,399.320 266.873,399.320 267.847 M168.799 270.895 C 185.601 270.951,213.212 270.952,230.156 270.895 C 247.100 270.838,233.353 270.792,199.607 270.792 C 165.860 270.792,151.997 270.838,168.799 270.895 M399.374 288.102 C 399.374 291.780,399.433 293.337,399.506 291.563 C 399.578 289.789,399.579 286.780,399.507 284.877 C 399.434 282.973,399.375 284.425,399.374 288.102 M281.736 289.774 C 281.323 290.152,281.242 290.285,281.554 290.069 C 281.867 289.853,284.973 289.578,288.456 289.460 L 294.789 289.244 288.637 289.165 C 283.258 289.095,282.392 289.172,281.736 289.774 M297.114 299.115 C 297.115 303.009,297.174 304.549,297.245 302.537 C 297.317 300.525,297.316 297.339,297.244 295.457 C 297.172 293.575,297.114 295.221,297.114 299.115 M89.783 296.952 C 89.783 297.925,89.859 298.324,89.953 297.837 C 90.047 297.350,90.047 296.554,89.953 296.067 C 89.859 295.580,89.783 295.978,89.783 296.952 M101.959 296.559 C 101.959 297.316,102.040 297.625,102.139 297.247 C 102.238 296.868,102.238 296.249,102.139 295.870 C 102.040 295.492,101.959 295.801,101.959 296.559 M309.629 297.738 C 309.629 298.496,309.710 298.805,309.809 298.427 C 309.908 298.048,309.908 297.429,309.809 297.050 C 309.710 296.672,309.629 296.981,309.629 297.738 M399.306 309.961 C 399.227 321.631,399.100 324.197,398.412 328.053 C 392.811 359.467,370.430 384.035,339.823 392.366 L 336.480 393.276 352.114 393.295 C 365.855 393.311,367.748 393.241,367.748 392.715 C 367.748 392.386,368.177 391.922,368.700 391.683 C 369.261 391.428,369.567 391.027,369.445 390.708 C 369.302 390.334,369.554 390.167,370.263 390.167 C 371.105 390.167,371.288 389.985,371.288 389.142 C 371.288 388.392,371.447 388.177,371.878 388.343 C 372.309 388.508,372.468 388.294,372.468 387.550 C 372.468 386.689,372.559 386.607,373.058 387.021 C 373.541 387.422,373.648 387.395,373.648 386.872 C 373.648 386.521,373.798 386.278,373.982 386.332 C 374.685 386.540,377.405 383.298,377.270 382.414 C 377.149 381.625,377.270 381.561,378.566 381.727 C 379.852 381.891,379.970 381.831,379.745 381.122 C 379.567 380.563,379.673 380.334,380.111 380.334 C 380.824 380.334,380.932 379.720,380.289 379.323 C 380.028 379.162,380.569 378.606,381.629 377.946 C 383.721 376.644,384.175 376.047,383.433 375.577 C 382.991 375.297,383.006 375.232,383.511 375.227 C 383.976 375.223,384.088 374.925,383.958 374.041 C 383.812 373.048,383.916 372.861,384.616 372.861 C 385.490 372.861,385.732 372.297,385.041 371.870 C 384.802 371.722,385.023 371.313,385.579 370.875 C 386.453 370.188,387.219 368.213,387.057 367.064 C 387.019 366.796,387.571 366.221,388.283 365.787 C 388.995 365.353,389.329 364.997,389.025 364.997 C 388.586 364.995,388.606 364.847,389.123 364.276 C 389.481 363.880,389.774 363.358,389.774 363.115 C 389.774 362.873,390.067 362.510,390.425 362.310 C 390.816 362.091,390.978 361.692,390.830 361.307 C 390.695 360.956,390.739 360.669,390.927 360.669 C 391.115 360.669,391.268 360.061,391.268 359.318 C 391.268 358.575,391.417 357.735,391.600 357.450 C 392.101 356.666,392.908 354.263,392.914 353.533 C 392.918 353.177,393.186 352.785,393.510 352.660 C 394.269 352.369,394.277 351.622,393.523 351.622 C 392.908 351.622,393.126 350.465,393.831 349.992 C 394.039 349.853,394.257 348.703,394.317 347.436 C 394.376 346.169,394.440 344.804,394.459 344.402 C 394.481 343.941,394.699 343.751,395.051 343.886 C 395.723 344.144,396.067 343.364,396.067 341.586 C 396.067 340.861,396.259 339.769,396.495 339.160 C 396.730 338.551,396.992 337.522,397.077 336.873 C 397.344 334.829,397.719 333.349,398.085 332.892 C 399.065 331.671,399.624 322.527,399.512 309.538 L 399.399 296.362 399.306 309.961 M105.140 302.557 C 105.992 303.368,106.883 304.031,107.119 304.031 C 107.356 304.031,107.112 303.739,106.577 303.381 C 106.042 303.024,105.152 302.360,104.598 301.906 C 104.045 301.453,104.289 301.745,105.140 302.557 M113.471 303.272 C 112.822 303.687,112.493 304.028,112.739 304.029 C 112.986 304.031,113.605 303.683,114.116 303.258 C 115.285 302.284,115.004 302.290,113.471 303.272 M91.277 304.122 C 91.231 304.587,92.513 307.618,92.683 307.448 C 92.768 307.363,92.493 306.515,92.071 305.564 C 91.650 304.613,91.292 303.964,91.277 304.122 M108.857 304.317 C 109.564 304.404,110.625 304.402,111.216 304.312 C 111.807 304.223,111.229 304.151,109.931 304.153 C 108.633 304.156,108.150 304.229,108.857 304.317 M306.272 308.560 C 305.912 309.314,305.699 309.931,305.798 309.931 C 306.067 309.931,307.261 307.523,307.081 307.343 C 306.995 307.258,306.631 307.805,306.272 308.560 M281.733 308.516 C 283.447 310.103,293.938 310.103,295.652 308.516 L 296.755 307.494 295.621 308.319 C 293.902 309.569,283.482 309.569,281.764 308.319 L 280.629 307.494 281.733 308.516 M93.399 309.120 C 93.728 309.755,94.175 310.385,94.393 310.520 C 94.611 310.655,94.418 310.135,93.964 309.365 C 92.968 307.676,92.562 307.500,93.399 309.120 M304.425 311.504 C 303.963 312.153,303.673 312.684,303.781 312.684 C 303.889 312.684,304.356 312.153,304.818 311.504 C 305.280 310.855,305.570 310.324,305.462 310.324 C 305.353 310.324,304.887 310.855,304.425 311.504 M95.155 311.701 C 95.381 312.134,96.381 313.373,97.378 314.454 C 98.374 315.536,99.048 316.155,98.875 315.831 C 98.703 315.506,97.967 314.596,97.241 313.808 C 96.515 313.020,95.656 312.047,95.333 311.645 C 94.771 310.946,94.763 310.948,95.155 311.701 M300.098 316.325 C 298.260 318.094,297.286 319.163,297.935 318.700 C 299.107 317.864,303.979 313.063,303.626 313.093 C 303.524 313.102,301.937 314.556,300.098 316.325 M102.262 318.681 C 102.995 319.388,105.801 321.078,105.801 320.813 C 105.801 320.706,104.872 320.054,103.736 319.365 C 102.601 318.676,101.937 318.368,102.262 318.681 M107.375 321.731 C 108.132 322.145,108.928 322.484,109.145 322.484 C 109.361 322.484,108.918 322.145,108.161 321.731 C 107.404 321.316,106.608 320.977,106.391 320.977 C 106.175 320.977,106.618 321.316,107.375 321.731 M291.445 321.927 C 290.905 322.236,290.639 322.489,290.855 322.489 C 291.072 322.489,291.691 322.236,292.232 321.927 C 292.773 321.618,293.038 321.365,292.822 321.365 C 292.606 321.365,291.986 321.618,291.445 321.927 M113.574 323.582 C 114.063 323.676,114.771 323.673,115.147 323.574 C 115.523 323.476,115.123 323.399,114.258 323.403 C 113.392 323.407,113.085 323.488,113.574 323.582 M284.857 323.575 C 285.236 323.674,285.855 323.674,286.234 323.575 C 286.613 323.476,286.303 323.395,285.546 323.395 C 284.789 323.395,284.479 323.476,284.857 323.575 M1.271 324.877 C 1.271 325.634,1.352 325.944,1.451 325.565 C 1.550 325.187,1.550 324.567,1.451 324.189 C 1.352 323.810,1.271 324.120,1.271 324.877 M159.784 323.992 C 181.794 324.048,217.812 324.048,239.823 323.992 C 261.834 323.936,243.825 323.890,199.803 323.890 C 155.782 323.890,137.773 323.936,159.784 323.992 M3.202 335.103 C 3.202 335.428,3.354 336.047,3.540 336.480 C 3.753 336.976,3.878 337.048,3.878 336.676 C 3.878 336.352,3.726 335.733,3.540 335.300 C 3.327 334.804,3.202 334.731,3.202 335.103 M4.945 340.610 C 5.090 341.150,5.372 341.858,5.573 342.183 C 5.826 342.593,5.857 342.473,5.674 341.790 C 5.530 341.249,5.247 340.541,5.047 340.216 C 4.793 339.806,4.762 339.926,4.945 340.610 M6.714 345.133 C 6.714 345.349,6.967 345.969,7.276 346.509 C 7.585 347.050,7.838 347.316,7.838 347.099 C 7.838 346.883,7.585 346.264,7.276 345.723 C 6.967 345.182,6.714 344.916,6.714 345.133 M10.816 353.589 C 11.152 354.238,11.515 354.769,11.623 354.769 C 11.731 354.769,11.545 354.238,11.209 353.589 C 10.874 352.940,10.511 352.409,10.403 352.409 C 10.294 352.409,10.481 352.940,10.816 353.589 M14.159 358.702 C 15.041 360.000,15.850 361.062,15.959 361.062 C 16.067 361.062,15.434 360.000,14.553 358.702 C 13.671 357.404,12.862 356.342,12.753 356.342 C 12.645 356.342,13.278 357.404,14.159 358.702 M16.469 362.148 C 16.673 362.529,17.243 363.193,17.735 363.623 C 18.469 364.264,18.431 364.138,17.528 362.930 C 16.362 361.369,15.850 360.992,16.469 362.148 M18.879 365.184 C 19.204 365.608,20.577 367.128,21.932 368.564 C 23.287 369.999,24.880 371.812,25.472 372.593 C 26.064 373.374,26.766 374.019,27.032 374.027 C 27.298 374.035,28.391 374.926,29.461 376.008 C 30.532 377.089,31.585 377.974,31.803 377.974 C 32.246 377.974,32.850 379.481,32.706 380.230 C 32.651 380.519,32.858 380.621,33.219 380.483 C 33.619 380.329,33.825 380.479,33.825 380.924 C 33.825 381.372,34.030 381.520,34.435 381.364 C 34.771 381.235,34.950 381.285,34.833 381.474 C 34.716 381.663,34.990 381.915,35.442 382.033 C 35.894 382.151,36.147 382.437,36.005 382.668 C 35.853 382.913,36.081 383.088,36.555 383.088 C 37.005 383.088,37.365 383.344,37.365 383.665 C 37.365 384.017,37.595 384.154,37.955 384.016 C 38.279 383.892,38.545 383.999,38.545 384.253 C 38.545 384.907,39.648 385.934,40.070 385.674 C 40.264 385.554,40.514 385.808,40.626 386.238 C 40.747 386.700,41.163 387.021,41.641 387.021 C 42.086 387.021,42.640 387.375,42.871 387.807 C 43.147 388.322,43.695 388.594,44.458 388.594 C 45.100 388.594,45.624 388.771,45.624 388.987 C 45.624 389.204,45.270 389.381,44.838 389.381 C 43.482 389.381,43.981 390.055,45.526 390.310 C 46.337 390.444,47.508 390.820,48.128 391.147 C 48.747 391.473,49.418 391.740,49.619 391.740 C 49.820 391.740,50.364 392.094,50.828 392.527 C 51.616 393.261,52.185 393.311,59.366 393.273 C 66.499 393.236,66.902 393.197,64.897 392.735 C 48.585 388.982,35.468 381.651,23.402 369.545 C 20.590 366.724,18.555 364.761,18.879 365.184 " stroke="none" fill="#5fa088" fill-rule="evenodd"></path><path id="path4" d="M75.718 3.077 C 74.855 3.148,73.928 3.389,73.657 3.614 C 73.360 3.861,72.441 3.915,71.348 3.751 C 70.090 3.563,69.613 3.609,69.794 3.903 C 69.962 4.175,69.563 4.326,68.680 4.326 C 67.923 4.326,67.208 4.480,67.092 4.668 C 66.976 4.856,65.815 5.130,64.512 5.277 C 63.209 5.425,62.144 5.714,62.144 5.919 C 62.144 6.125,61.828 6.293,61.442 6.293 C 60.583 6.293,56.624 7.644,54.448 8.679 C 53.569 9.097,52.639 9.440,52.383 9.440 C 52.127 9.440,51.917 9.627,51.917 9.856 C 51.917 10.085,51.767 10.180,51.584 10.067 C 51.265 9.869,45.263 12.750,44.844 13.301 C 44.733 13.449,44.389 13.624,44.080 13.691 C 43.380 13.842,38.386 16.744,37.686 17.406 C 37.401 17.676,36.682 18.147,36.087 18.453 C 34.985 19.022,29.296 23.463,27.772 24.944 C 27.309 25.394,26.314 26.293,25.560 26.942 C 21.443 30.486,11.595 43.708,12.862 43.992 C 13.199 44.067,13.613 43.905,13.781 43.633 C 14.140 43.052,15.330 44.019,15.352 44.908 C 15.360 45.259,15.534 45.204,15.887 44.739 C 16.174 44.361,16.685 44.051,17.021 44.051 C 17.358 44.051,17.702 43.845,17.786 43.594 C 17.883 43.302,18.306 43.455,18.950 44.015 L 19.961 44.894 19.007 46.872 C 17.951 49.060,17.956 50.246,19.015 48.746 C 26.375 38.319,32.136 31.800,38.151 27.092 C 41.941 24.126,52.680 17.692,53.826 17.701 C 53.966 17.702,53.550 18.138,52.901 18.670 C 52.036 19.379,51.897 19.641,52.381 19.652 C 52.744 19.659,53.307 19.400,53.631 19.076 C 53.956 18.751,54.489 18.486,54.816 18.486 C 55.143 18.486,55.520 18.309,55.654 18.092 C 55.788 17.876,56.241 17.699,56.660 17.699 C 57.080 17.699,57.424 17.876,57.424 18.092 C 57.424 18.309,57.179 18.486,56.879 18.486 C 56.579 18.486,55.827 18.750,55.207 19.073 C 53.901 19.754,54.814 19.891,56.469 19.262 C 57.053 19.040,58.171 18.758,58.952 18.636 C 59.734 18.513,60.431 18.257,60.501 18.066 C 60.677 17.590,62.562 18.869,62.496 19.420 C 62.350 20.647,62.605 20.846,64.319 20.846 C 65.541 20.846,66.173 20.660,66.328 20.256 C 66.499 19.810,67.218 19.666,69.265 19.666 C 71.413 19.666,71.976 19.543,71.976 19.076 C 71.976 18.433,71.719 18.391,68.304 18.483 C 66.275 18.537,66.024 18.461,66.150 17.827 C 66.411 16.512,70.965 16.814,72.087 18.221 L 72.966 19.324 85.286 19.302 C 92.062 19.289,97.749 19.191,97.924 19.082 C 98.583 18.676,140.601 18.852,140.737 19.262 C 140.821 19.514,143.077 19.666,146.739 19.666 L 152.606 19.666 152.606 21.357 C 152.606 22.287,152.384 23.271,152.114 23.543 C 151.720 23.941,151.757 23.988,152.301 23.781 C 153.191 23.441,154.553 24.698,153.799 25.164 C 153.174 25.550,153.610 26.352,154.445 26.352 C 154.882 26.352,154.993 26.105,154.831 25.488 C 154.370 23.723,154.934 23.599,163.438 23.599 C 172.278 23.599,172.621 23.549,172.382 22.300 C 171.965 20.115,174.003 18.220,174.951 19.913 C 175.196 20.351,175.396 20.413,175.583 20.110 C 175.782 19.787,182.807 19.666,201.203 19.666 C 217.642 19.666,226.549 19.529,226.549 19.277 C 226.549 19.029,220.885 18.851,210.914 18.785 L 195.280 18.682 195.280 17.502 C 195.280 16.354,195.336 16.319,197.379 16.202 C 199.017 16.109,199.430 15.958,199.259 15.514 C 199.092 15.078,199.428 14.934,200.701 14.896 C 201.613 14.868,204.307 14.722,206.686 14.570 L 211.013 14.293 207.149 14.226 C 203.701 14.167,203.300 14.085,203.417 13.471 C 203.576 12.640,209.259 12.251,210.617 12.978 C 211.883 13.655,218.486 13.327,218.486 12.586 C 218.486 12.161,217.963 11.963,216.618 11.876 C 211.783 11.566,218.259 10.500,224.250 10.620 C 225.473 10.644,226.590 10.477,226.731 10.249 C 226.873 10.020,227.642 9.856,228.440 9.885 L 229.892 9.936 228.515 10.191 L 227.139 10.446 228.466 10.729 C 229.196 10.885,230.833 11.013,232.104 11.013 C 233.382 11.013,234.415 11.189,234.415 11.406 C 234.415 11.622,234.691 11.799,235.028 11.799 C 235.365 11.799,235.544 11.643,235.426 11.451 C 235.307 11.259,235.607 10.996,236.091 10.866 C 237.394 10.517,237.666 10.566,237.458 11.111 C 237.315 11.488,238.700 11.631,243.414 11.723 C 246.801 11.789,249.616 12.009,249.689 12.214 C 249.761 12.419,251.762 12.586,254.137 12.586 C 256.914 12.586,258.367 12.446,258.210 12.193 C 258.061 11.952,258.775 11.779,260.055 11.747 C 261.966 11.699,261.876 11.664,258.997 11.331 C 257.266 11.131,253.815 11.049,251.327 11.149 C 248.840 11.248,244.857 11.108,242.478 10.836 C 238.559 10.389,239.429 10.361,251.721 10.538 C 262.352 10.691,265.356 10.846,265.596 11.251 C 265.831 11.648,267.596 11.768,273.242 11.770 C 279.430 11.772,280.636 11.867,280.921 12.376 C 281.299 13.052,284.940 13.248,285.333 12.613 C 285.464 12.400,286.010 12.481,286.634 12.807 C 287.225 13.115,288.019 13.369,288.397 13.370 C 288.815 13.372,289.086 13.672,289.086 14.136 C 289.086 14.731,289.405 14.925,290.540 15.021 L 291.995 15.143 291.891 17.352 C 291.810 19.062,291.926 19.615,292.403 19.798 C 292.786 19.945,293.019 19.820,293.019 19.467 C 293.019 18.767,320.137 18.389,321.074 19.076 C 321.370 19.292,323.143 19.457,325.014 19.443 C 328.050 19.420,328.417 19.494,328.417 20.131 C 328.417 21.123,329.843 21.057,330.106 20.053 C 330.297 19.320,330.523 19.280,333.101 19.519 C 335.083 19.704,335.890 19.648,335.890 19.329 C 335.890 19.035,334.955 18.879,333.196 18.879 C 327.667 18.879,324.484 18.437,324.484 17.669 C 324.484 17.284,324.206 16.691,323.866 16.351 C 323.526 16.011,323.437 15.733,323.669 15.733 C 323.901 15.733,324.090 15.447,324.090 15.098 C 324.090 14.571,323.797 14.507,322.364 14.722 L 320.637 14.981 320.485 13.390 L 320.333 11.799 322.310 11.750 L 324.287 11.700 321.731 11.270 C 320.324 11.034,316.153 10.886,312.460 10.940 C 307.059 11.020,305.520 10.922,304.594 10.439 C 303.534 9.886,304.287 9.837,313.986 9.835 C 319.785 9.834,324.442 9.975,324.335 10.149 C 324.227 10.323,324.674 10.667,325.329 10.914 C 326.312 11.285,326.482 11.268,326.308 10.815 C 326.187 10.499,326.297 10.333,326.569 10.424 C 326.828 10.511,327.660 10.673,328.417 10.784 C 331.041 11.170,334.061 11.806,334.272 12.017 C 334.388 12.133,333.738 12.110,332.827 11.964 L 331.170 11.699 331.170 13.273 L 331.170 14.846 333.023 14.883 C 334.042 14.904,334.995 14.727,335.142 14.490 C 335.334 14.179,335.828 14.180,336.927 14.494 C 337.851 14.758,338.022 14.876,337.365 14.795 C 336.090 14.638,335.916 15.170,337.117 15.551 C 338.424 15.966,340.014 14.981,339.126 14.307 C 338.550 13.869,338.539 13.789,339.056 13.778 C 339.391 13.772,339.834 13.921,340.039 14.111 C 340.245 14.300,341.643 14.857,343.147 15.349 C 344.651 15.840,346.233 16.570,346.663 16.971 C 347.093 17.371,347.693 17.699,347.998 17.699 C 348.548 17.699,351.752 19.353,353.794 20.690 C 354.778 21.336,354.805 21.418,354.128 21.715 C 353.581 21.955,353.657 21.987,354.427 21.839 C 355.101 21.710,355.806 21.913,356.455 22.423 C 357.002 22.854,357.628 23.206,357.846 23.206 C 358.065 23.206,358.302 23.338,358.374 23.500 C 358.446 23.663,359.898 24.848,361.599 26.134 C 367.493 30.588,374.898 38.723,379.456 45.751 C 381.453 48.831,382.020 48.977,380.620 46.052 C 379.915 44.578,379.803 44.051,380.195 44.051 C 380.488 44.051,380.728 44.250,380.728 44.493 C 380.728 44.795,380.917 44.777,381.327 44.437 C 381.657 44.163,382.050 44.062,382.201 44.213 C 382.351 44.364,382.216 44.647,381.899 44.843 C 381.472 45.107,381.438 45.313,381.768 45.642 C 382.085 45.960,382.287 45.964,382.476 45.659 C 382.622 45.423,383.428 45.231,384.267 45.231 C 385.107 45.231,385.890 45.075,386.008 44.885 C 386.126 44.695,386.590 44.443,387.040 44.325 C 387.827 44.120,387.834 44.149,387.215 45.093 C 386.590 46.047,386.595 46.063,387.386 45.639 C 388.428 45.082,388.411 44.563,387.280 42.437 C 386.141 40.295,380.789 33.057,378.607 30.708 C 375.100 26.933,371.014 22.939,369.518 21.825 C 368.653 21.181,367.856 20.559,367.748 20.444 C 365.475 18.017,351.837 9.833,350.067 9.833 C 349.832 9.833,348.939 9.390,348.083 8.850 C 347.226 8.309,346.212 7.865,345.829 7.864 C 345.446 7.863,344.626 7.597,344.006 7.274 C 343.387 6.951,342.634 6.686,342.335 6.686 C 342.035 6.686,341.790 6.509,341.790 6.293 C 341.790 6.077,341.242 5.900,340.572 5.900 C 339.902 5.900,338.885 5.657,338.310 5.360 C 336.530 4.439,334.553 3.944,333.626 4.187 C 333.138 4.315,332.505 4.225,332.219 3.988 C 331.933 3.750,330.474 3.384,328.976 3.173 C 324.693 2.569,136.240 2.651,135.270 3.256 C 134.678 3.626,134.343 3.623,133.732 3.241 C 132.750 2.628,117.385 2.541,117.011 3.147 C 116.731 3.599,113.274 3.690,113.274 3.245 C 113.274 2.964,78.994 2.811,75.718 3.077 M177.693 4.615 C 176.672 4.696,174.902 4.697,173.759 4.617 C 172.617 4.537,173.451 4.471,175.615 4.470 C 177.778 4.469,178.713 4.534,177.693 4.615 M232.350 4.616 C 231.323 4.697,229.641 4.697,228.614 4.616 C 227.586 4.535,228.427 4.468,230.482 4.468 C 232.537 4.468,233.378 4.535,232.350 4.616 M188.692 5.809 C 194.728 5.867,198.230 6.044,198.230 6.293 C 198.230 6.550,191.413 6.686,178.564 6.686 C 161.276 6.686,157.175 6.505,159.318 5.834 C 159.791 5.686,174.395 5.674,188.692 5.809 M116.814 6.293 C 116.814 6.509,116.239 6.665,115.536 6.640 L 114.258 6.593 115.438 6.293 C 116.087 6.128,116.662 5.972,116.716 5.946 C 116.770 5.921,116.814 6.077,116.814 6.293 M312.291 6.293 C 312.291 6.528,310.776 6.686,308.531 6.686 C 306.125 6.686,304.859 6.545,305.015 6.293 C 305.148 6.077,306.840 5.900,308.774 5.900 C 310.857 5.900,312.291 6.060,312.291 6.293 M296.559 7.435 C 296.559 7.999,292.589 8.126,291.878 7.584 C 291.363 7.192,291.732 7.102,293.904 7.092 C 295.364 7.085,296.559 7.240,296.559 7.435 M129.597 8.260 C 129.751 8.509,128.863 8.629,127.162 8.587 L 124.484 8.521 126.844 8.260 C 128.142 8.116,129.237 7.969,129.279 7.932 C 129.320 7.896,129.463 8.043,129.597 8.260 M185.644 8.215 C 193.948 8.341,195.101 8.422,192.344 8.687 C 189.789 8.933,159.952 8.948,159.367 8.704 C 157.807 8.051,165.457 7.909,185.644 8.215 M153.982 8.653 C 155.385 8.885,154.877 8.917,152.212 8.766 C 150.157 8.649,148.402 8.487,148.312 8.406 C 148.022 8.147,151.952 8.318,153.982 8.653 M95.674 10.123 C 94.538 10.202,92.679 10.202,91.544 10.123 C 90.408 10.043,91.337 9.978,93.609 9.978 C 95.880 9.978,96.809 10.043,95.674 10.123 M151.000 10.477 C 151.272 10.714,138.172 10.536,133.333 10.236 C 130.811 10.081,133.683 10.040,139.823 10.146 C 145.880 10.250,150.910 10.399,151.000 10.477 M296.559 10.427 C 294.071 10.695,291.736 11.040,291.371 11.193 C 291.006 11.346,290.386 11.286,289.994 11.058 C 289.403 10.714,289.533 10.641,290.757 10.631 C 291.568 10.625,292.232 10.442,292.232 10.226 C 292.232 9.984,293.933 9.854,296.657 9.887 L 301.082 9.941 296.559 10.427 M126.955 10.515 C 125.935 10.595,124.165 10.596,123.022 10.517 C 121.879 10.437,122.714 10.371,124.877 10.370 C 127.040 10.369,127.975 10.434,126.955 10.515 M158.277 10.465 C 159.304 10.859,158.980 11.406,157.719 11.406 C 156.591 11.406,156.237 11.052,156.801 10.488 C 157.126 10.164,157.477 10.158,158.277 10.465 M76.893 11.013 C 76.759 11.229,76.384 11.406,76.060 11.406 C 75.735 11.406,75.579 11.229,75.713 11.013 C 75.847 10.796,76.221 10.619,76.546 10.619 C 76.870 10.619,77.027 10.796,76.893 11.013 M277.286 11.013 C 277.286 11.229,276.391 11.406,275.296 11.406 C 274.070 11.406,273.400 11.255,273.550 11.013 C 273.683 10.796,274.579 10.619,275.539 10.619 C 276.500 10.619,277.286 10.796,277.286 11.013 M150.523 11.552 C 150.687 11.717,147.383 12.054,142.970 12.324 C 141.888 12.390,142.640 12.476,144.641 12.515 C 146.757 12.556,148.279 12.751,148.279 12.979 C 148.279 13.196,148.800 13.373,149.436 13.373 C 150.072 13.373,150.680 13.514,150.787 13.686 C 151.133 14.246,150.397 14.979,149.742 14.728 C 149.392 14.594,145.115 14.455,140.237 14.420 C 134.707 14.380,131.331 14.208,131.269 13.963 C 131.215 13.746,131.560 13.514,132.036 13.446 C 132.995 13.310,133.672 11.859,132.978 11.429 C 132.736 11.280,136.545 11.207,141.443 11.267 C 146.341 11.328,150.427 11.456,150.523 11.552 M195.177 11.516 C 193.499 11.785,192.308 11.780,191.441 11.502 C 190.375 11.160,190.777 11.095,193.904 11.108 L 197.640 11.122 195.177 11.516 M327.094 11.994 C 327.238 12.370,326.986 12.714,326.393 12.952 C 325.523 13.301,325.544 13.324,326.741 13.348 C 327.865 13.370,328.005 13.257,327.933 12.389 C 327.889 11.849,327.631 11.406,327.360 11.406 C 327.086 11.406,326.968 11.665,327.094 11.994 M69.617 12.193 C 69.617 12.409,70.147 12.586,70.796 12.586 C 72.523 12.586,72.306 14.160,70.501 14.723 C 69.581 15.010,69.227 14.382,70.108 14.026 C 70.379 13.917,70.246 13.820,69.813 13.811 C 69.381 13.802,68.584 14.047,68.043 14.356 C 67.502 14.665,66.750 14.924,66.372 14.932 C 65.211 14.955,65.608 14.204,66.962 13.813 C 67.947 13.528,68.037 13.435,67.355 13.408 C 66.276 13.365,66.161 12.586,67.233 12.586 C 67.653 12.586,68.106 12.409,68.240 12.193 C 68.374 11.976,68.738 11.799,69.050 11.799 C 69.361 11.799,69.617 11.976,69.617 12.193 M238.348 12.193 C 238.348 12.409,238.780 12.586,239.308 12.586 C 239.836 12.586,240.378 12.409,240.511 12.193 C 240.653 11.963,240.253 11.799,239.551 11.799 C 238.890 11.799,238.348 11.976,238.348 12.193 M181.633 13.913 C 182.224 14.504,182.013 14.553,178.869 14.553 C 175.574 14.553,174.680 14.249,175.252 13.324 C 175.672 12.643,180.841 13.120,181.633 13.913 M281.679 14.450 C 278.299 14.559,277.477 14.711,276.787 15.353 C 275.678 16.386,273.904 16.378,273.632 15.339 C 273.388 14.404,269.332 14.114,269.518 15.044 C 269.675 15.826,266.225 15.941,265.792 15.169 C 265.253 14.205,261.888 14.329,261.160 15.339 C 260.796 15.845,260.142 16.126,259.328 16.126 C 258.189 16.126,258.051 16.253,257.940 17.404 L 257.817 18.682 253.884 18.901 C 251.721 19.022,250.792 19.154,251.819 19.196 C 253.791 19.277,254.082 19.608,253.069 20.621 C 252.507 21.183,252.684 21.239,255.008 21.239 C 257.361 21.239,257.576 21.168,257.691 20.354 C 257.813 19.500,257.966 19.468,262.144 19.441 C 266.998 19.409,267.310 19.472,266.473 20.309 C 265.265 21.517,265.708 23.206,267.233 23.206 C 267.978 23.206,268.696 23.029,268.830 22.812 C 268.964 22.596,270.478 22.419,272.196 22.419 C 274.521 22.419,275.320 22.286,275.320 21.900 C 275.320 20.155,277.044 19.666,283.189 19.666 L 289.086 19.666 289.086 17.671 C 289.086 14.493,288.485 14.232,281.679 14.450 M60.890 15.188 C 60.540 15.538,60.016 15.735,59.724 15.626 C 59.375 15.496,59.530 15.288,60.177 15.016 C 61.539 14.443,61.616 14.462,60.890 15.188 M313.347 16.027 C 309.494 16.091,303.299 16.091,299.581 16.027 C 295.864 15.962,299.017 15.909,306.588 15.910 C 314.159 15.910,317.201 15.963,313.347 16.027 M57.424 16.477 C 57.424 16.670,57.144 16.936,56.802 17.067 C 55.840 17.436,55.712 17.356,56.244 16.716 C 56.786 16.062,57.424 15.933,57.424 16.477 M86.583 20.354 C 85.096 23.147,86.244 24.892,88.434 23.169 C 89.076 22.665,90.015 22.419,91.302 22.419 C 92.741 22.419,93.215 22.272,93.215 21.829 C 93.215 21.501,92.866 21.239,92.429 21.239 C 91.380 21.239,91.430 20.675,92.527 20.146 C 93.244 19.800,92.798 19.714,90.181 19.692 C 87.488 19.670,86.889 19.780,86.583 20.354 M54.769 20.319 C 53.833 20.697,54.229 21.924,55.359 22.148 C 56.627 22.399,57.565 21.671,57.200 20.719 C 56.957 20.087,55.811 19.899,54.769 20.319 M149.459 21.042 C 149.459 21.409,149.831 21.632,150.442 21.632 C 151.054 21.632,151.426 21.409,151.426 21.042 C 151.426 20.675,151.054 20.452,150.442 20.452 C 149.831 20.452,149.459 20.675,149.459 21.042 M48.378 23.009 C 48.378 23.753,48.805 23.757,49.777 23.021 C 50.509 22.468,50.495 22.443,49.459 22.431 C 48.754 22.423,48.378 22.624,48.378 23.009 M60.964 23.206 C 60.964 23.422,61.141 23.599,61.357 23.599 C 61.974 23.599,61.817 24.839,61.099 25.633 C 60.486 26.311,60.503 26.352,61.394 26.351 C 62.251 26.350,62.341 26.183,62.351 24.581 C 62.359 23.145,62.230 22.812,61.662 22.812 C 61.278 22.812,60.964 22.989,60.964 23.206 M296.952 23.599 C 296.952 23.815,297.394 23.992,297.935 23.992 C 298.476 23.992,298.918 23.815,298.918 23.599 C 298.918 23.382,298.476 23.206,297.935 23.206 C 297.394 23.206,296.952 23.382,296.952 23.599 M148.541 23.861 C 148.156 24.246,148.222 25.565,148.627 25.565 C 148.818 25.565,149.059 25.123,149.162 24.582 C 149.344 23.630,149.080 23.323,148.541 23.861 M233.745 23.891 C 235.431 23.965,238.086 23.965,239.644 23.890 C 241.203 23.816,239.823 23.756,236.578 23.756 C 233.333 23.757,232.058 23.818,233.745 23.891 M20.846 43.854 C 20.846 44.179,20.669 44.444,20.452 44.444 C 20.236 44.444,20.059 44.179,20.059 43.854 C 20.059 43.530,20.236 43.265,20.452 43.265 C 20.669 43.265,20.846 43.530,20.846 43.854 M13.611 44.673 C 13.242 45.636,13.322 45.731,13.963 45.091 C 14.631 44.422,14.716 44.051,14.201 44.051 C 14.008 44.051,13.743 44.331,13.611 44.673 M11.975 44.804 C 12.098 45.002,11.984 45.235,11.723 45.322 C 11.370 45.440,11.364 45.552,11.701 45.760 C 11.959 45.920,12.337 45.697,12.580 45.242 C 12.926 44.596,12.888 44.444,12.380 44.444 C 12.035 44.444,11.853 44.606,11.975 44.804 M388.453 45.424 C 388.087 46.379,388.136 46.520,388.752 46.284 C 389.090 46.154,389.388 46.397,389.523 46.913 C 389.644 47.375,389.860 47.636,390.004 47.492 C 390.148 47.348,389.914 46.676,389.485 45.999 C 388.844 44.986,388.660 44.884,388.453 45.424 M17.593 50.188 C 17.435 50.346,17.306 50.747,17.306 51.078 C 17.306 51.521,17.422 51.565,17.743 51.244 C 17.984 51.003,18.113 50.603,18.030 50.354 C 17.947 50.105,17.750 50.031,17.593 50.188 M382.803 51.147 C 383.127 51.697,383.480 52.493,383.587 52.917 C 383.768 53.628,383.786 53.623,383.829 52.846 C 383.854 52.383,383.501 51.587,383.045 51.076 L 382.215 50.147 382.803 51.147 M169.617 68.723 C 170.428 68.808,171.755 68.808,172.566 68.723 C 173.378 68.638,172.714 68.569,171.091 68.569 C 169.469 68.569,168.805 68.638,169.617 68.723 M116.716 72.268 C 118.284 72.343,120.851 72.343,122.419 72.268 C 123.987 72.194,122.704 72.133,119.567 72.133 C 116.431 72.133,115.147 72.194,116.716 72.268 M266.038 72.525 C 265.922 72.827,265.888 73.756,265.962 74.590 C 266.086 75.995,266.110 75.954,266.283 74.041 C 266.474 71.933,266.412 71.551,266.038 72.525 M276.991 72.268 C 278.451 72.344,280.841 72.344,282.301 72.268 C 283.761 72.192,282.566 72.130,279.646 72.130 C 276.726 72.130,275.531 72.192,276.991 72.268 M143.731 86.529 C 143.731 92.262,143.786 94.607,143.853 91.740 C 143.921 88.874,143.921 84.184,143.853 81.318 C 143.786 78.451,143.731 80.796,143.731 86.529 M300.688 80.629 C 301.533 81.495,302.313 82.203,302.421 82.203 C 302.529 82.203,301.927 81.495,301.082 80.629 C 300.237 79.764,299.457 79.056,299.349 79.056 C 299.241 79.056,299.843 79.764,300.688 80.629 M241.987 87.119 C 241.991 87.984,242.072 88.292,242.166 87.803 C 242.260 87.313,242.257 86.605,242.158 86.229 C 242.060 85.853,241.983 86.254,241.987 87.119 M156.287 89.676 C 156.287 91.731,156.354 92.571,156.435 91.544 C 156.516 90.516,156.516 88.835,156.435 87.807 C 156.354 86.780,156.287 87.620,156.287 89.676 M156.325 120.747 C 156.325 129.292,156.377 132.788,156.440 128.515 C 156.504 124.243,156.504 117.252,156.440 112.979 C 156.377 108.707,156.325 112.203,156.325 120.747 M289.184 109.234 C 289.995 109.319,291.323 109.319,292.134 109.234 C 292.945 109.150,292.281 109.080,290.659 109.080 C 289.036 109.080,288.373 109.150,289.184 109.234 M242.419 131.760 C 242.419 133.599,242.486 134.351,242.569 133.432 C 242.652 132.512,242.652 131.008,242.569 130.088 C 242.486 129.169,242.419 129.921,242.419 131.760 M143.651 139.626 C 143.651 140.383,143.732 140.693,143.831 140.315 C 143.930 139.936,143.930 139.317,143.831 138.938 C 143.732 138.559,143.651 138.869,143.651 139.626 M167.624 141.101 C 171.882 141.164,178.961 141.164,183.356 141.101 C 187.751 141.038,184.267 140.986,175.615 140.986 C 166.962 140.985,163.366 141.037,167.624 141.101 M226.254 141.100 C 228.363 141.170,231.814 141.170,233.923 141.100 C 236.032 141.029,234.307 140.971,230.088 140.971 C 225.870 140.971,224.145 141.029,226.254 141.100 M177.286 152.901 C 189.454 152.958,209.366 152.958,221.534 152.901 C 233.702 152.843,223.746 152.796,199.410 152.796 C 175.074 152.796,165.118 152.843,177.286 152.901 M142.085 165.091 C 143.977 165.163,147.075 165.163,148.968 165.091 C 150.860 165.019,149.312 164.960,145.526 164.960 C 141.740 164.960,140.192 165.019,142.085 165.091 M173.746 165.093 C 177.045 165.158,182.443 165.158,185.742 165.093 C 189.041 165.027,186.342 164.973,179.744 164.973 C 173.147 164.973,170.447 165.027,173.746 165.093 M228.441 165.093 C 231.754 165.159,237.063 165.158,240.241 165.092 C 243.418 165.026,240.708 164.973,234.218 164.973 C 227.729 164.973,225.129 165.027,228.441 165.093 M147.603 209.926 C 148.637 210.007,150.230 210.006,151.143 209.924 C 152.055 209.841,151.209 209.775,149.263 209.776 C 147.316 209.777,146.569 209.844,147.603 209.926 M239.233 209.918 C 239.828 210.008,240.801 210.008,241.396 209.918 C 241.991 209.828,241.504 209.754,240.315 209.754 C 239.125 209.754,238.638 209.828,239.233 209.918 M247.471 209.929 C 249.784 209.999,253.678 209.999,256.124 209.930 C 258.569 209.861,256.676 209.804,251.917 209.804 C 247.158 209.803,245.157 209.860,247.471 209.929 M139.926 228.793 C 140.415 228.887,141.123 228.884,141.499 228.785 C 141.875 228.687,141.475 228.610,140.610 228.614 C 139.744 228.619,139.437 228.699,139.926 228.793 M399.339 255.261 C 399.339 256.667,399.411 257.242,399.498 256.539 C 399.585 255.836,399.585 254.685,399.498 253.982 C 399.411 253.279,399.339 253.854,399.339 255.261 M164.700 259.095 C 178.815 259.153,201.912 259.153,216.028 259.095 C 230.143 259.038,218.594 258.991,190.364 258.991 C 162.134 258.991,150.585 259.038,164.700 259.095 M399.313 264.897 C 399.317 265.762,399.397 266.070,399.492 265.580 C 399.586 265.091,399.582 264.383,399.484 264.007 C 399.385 263.631,399.308 264.031,399.313 264.897 M399.331 275.713 C 399.331 276.903,399.405 277.389,399.495 276.794 C 399.585 276.200,399.585 275.226,399.495 274.631 C 399.405 274.036,399.331 274.523,399.331 275.713 M399.326 279.843 C 399.329 280.924,399.405 281.320,399.496 280.722 C 399.586 280.124,399.584 279.239,399.490 278.756 C 399.397 278.272,399.323 278.761,399.326 279.843 M118.092 323.968 C 118.471 324.067,119.090 324.067,119.469 323.968 C 119.848 323.869,119.538 323.788,118.781 323.788 C 118.024 323.788,117.714 323.869,118.092 323.968 M282.301 323.975 C 282.788 324.068,283.584 324.068,284.071 323.975 C 284.558 323.881,284.159 323.804,283.186 323.804 C 282.212 323.804,281.814 323.881,282.301 323.975 " stroke="none" fill="#4b9e7a" fill-rule="evenodd"></path></g></svg>